<svg width="221" height="322" viewBox="0 0 221 322" fill="none" xmlns="http://www.w3.org/2000/svg">
<path d="M56.7151 29.504L57.3391 26.144C58.8591 26.16 60.0831 26.12 61.0111 26.024C61.9551 25.912 62.6671 25.712 63.1471 25.424C63.6431 25.12 63.9631 24.696 64.1071 24.152C64.2671 23.592 64.3231 22.88 64.2751 22.016L63.7471 11.432H67.1071L67.6351 22.184C67.7151 23.64 67.6111 24.848 67.3231 25.808C67.0351 26.752 66.4911 27.496 65.6911 28.04C64.8911 28.568 63.7631 28.944 62.3071 29.168C60.8511 29.392 58.9871 29.504 56.7151 29.504ZM55.5631 23.816L54.9391 21.44C55.4991 21.296 55.9551 21.168 56.3071 21.056C56.6751 20.944 56.9471 20.832 57.1231 20.72C57.2991 20.608 57.3871 20.496 57.3871 20.384C57.3871 20.24 57.3151 20.088 57.1711 19.928C57.0271 19.768 56.8671 19.584 56.6911 19.376C56.5151 19.168 56.3551 18.936 56.2111 18.68C56.0671 18.424 55.9951 18.128 55.9951 17.792C55.9951 17.392 56.1071 17.016 56.3311 16.664C56.5551 16.296 56.9151 15.944 57.4111 15.608C57.9231 15.256 58.5951 14.912 59.4271 14.576L60.4591 16.712C59.7871 16.984 59.3311 17.224 59.0911 17.432C58.8671 17.624 58.7551 17.808 58.7551 17.984C58.7551 18.128 58.8271 18.296 58.9711 18.488C59.1151 18.68 59.2751 18.896 59.4511 19.136C59.6431 19.36 59.8111 19.616 59.9551 19.904C60.0991 20.176 60.1711 20.472 60.1711 20.792C60.1711 21.048 60.1151 21.312 60.0031 21.584C59.9071 21.856 59.6991 22.12 59.3791 22.376C59.0751 22.632 58.6191 22.88 58.0111 23.12C57.4031 23.36 56.5871 23.592 55.5631 23.816ZM56.7151 29.504C54.9871 29.504 53.5231 29.368 52.3231 29.096C51.1391 28.84 50.1711 28.472 49.4191 27.992C48.6831 27.496 48.1471 26.92 47.8111 26.264C47.4751 25.608 47.3071 24.888 47.3071 24.104C47.3071 23.592 47.3471 23.08 47.4271 22.568C47.5231 22.04 47.6351 21.528 47.7631 21.032C47.9071 20.536 48.0351 20.088 48.1471 19.688L51.1471 20.384C51.0831 20.672 51.0111 20.984 50.9311 21.32C50.8511 21.656 50.7871 21.984 50.7391 22.304C50.6911 22.608 50.6671 22.888 50.6671 23.144C50.6671 23.736 50.8751 24.264 51.2911 24.728C51.7231 25.176 52.4271 25.528 53.4031 25.784C54.3791 26.024 55.6911 26.144 57.3391 26.144L57.8191 28.736L56.7151 29.504ZM68.6496 34.52L67.4256 31.448C68.8016 30.968 69.9136 30.44 70.7616 29.864C71.6256 29.288 72.2576 28.672 72.6576 28.016C73.0736 27.36 73.2816 26.68 73.2816 25.976C73.2816 25.528 73.2176 25.064 73.0896 24.584C72.9616 24.088 72.7776 23.568 72.5376 23.024C72.3136 22.48 72.0416 21.912 71.7216 21.32L74.8656 19.808C75.4256 20.88 75.8576 21.904 76.1616 22.88C76.4816 23.856 76.6416 24.768 76.6416 25.616C76.6416 26.4 76.5376 27.152 76.3296 27.872C76.1376 28.592 75.8336 29.264 75.4176 29.888C75.0176 30.528 74.4976 31.128 73.8576 31.688C73.2176 32.248 72.4656 32.76 71.6016 33.224C70.7376 33.704 69.7536 34.136 68.6496 34.52ZM73.9536 17.36C73.4576 17.36 73.0336 17.192 72.6816 16.856C72.3456 16.52 72.1776 16.104 72.1776 15.608C72.1776 15.112 72.3456 14.688 72.6816 14.336C73.0336 13.984 73.4576 13.808 73.9536 13.808C74.4336 13.808 74.8416 13.984 75.1776 14.336C75.5296 14.688 75.7056 15.112 75.7056 15.608C75.7056 16.104 75.5296 16.52 75.1776 16.856C74.8416 17.192 74.4336 17.36 73.9536 17.36ZM85.6939 29.12C84.2059 29.12 83.0539 28.968 82.2379 28.664C81.4379 28.36 80.8779 27.888 80.5579 27.248C80.2379 26.592 80.0539 25.768 80.0059 24.776L79.5019 11.432H82.8619L83.3659 23.168C83.3979 23.904 83.4779 24.456 83.6059 24.824C83.7339 25.192 83.9739 25.44 84.3259 25.568C84.6939 25.696 85.2299 25.76 85.9339 25.76C86.5419 25.76 86.9739 25.92 87.2299 26.24C87.5019 26.544 87.6379 26.928 87.6379 27.392C87.6379 27.888 87.4699 28.304 87.1339 28.64C86.7979 28.96 86.3179 29.12 85.6939 29.12ZM101.423 29.12C100.687 29.12 99.9986 29.064 99.3586 28.952C98.7346 28.84 98.1586 28.648 97.6306 28.376C97.1026 28.088 96.6306 27.696 96.2146 27.2C95.8146 26.704 95.4786 26.08 95.2066 25.328L97.1026 23.816C97.3906 24.328 97.7426 24.728 98.1586 25.016C98.5746 25.288 99.0706 25.48 99.6466 25.592C100.223 25.704 100.895 25.76 101.663 25.76C102.271 25.76 102.703 25.92 102.959 26.24C103.215 26.544 103.343 26.928 103.343 27.392C103.343 27.888 103.175 28.304 102.839 28.64C102.519 28.96 102.047 29.12 101.423 29.12ZM85.7266 29.12L85.9666 25.76C86.8306 25.76 87.6866 25.712 88.5346 25.616C89.3826 25.52 90.2066 25.376 91.0066 25.184C91.8066 24.992 92.5666 24.744 93.2866 24.44C94.0226 24.136 94.7106 23.768 95.3506 23.336C94.8706 23.048 94.3506 22.8 93.7906 22.592C93.2306 22.384 92.6306 22.232 91.9906 22.136C91.3666 22.024 90.7026 21.968 89.9986 21.968C89.7426 21.968 89.4706 21.976 89.1826 21.992C88.9106 22.008 88.6306 22.04 88.3426 22.088C88.0546 22.12 87.7666 22.168 87.4786 22.232L86.9986 18.944C87.4626 18.816 87.9506 18.728 88.4626 18.68C88.9906 18.616 89.4546 18.584 89.8546 18.584C90.7186 18.584 91.5106 18.68 92.2306 18.872C92.9666 19.064 93.6386 19.304 94.2466 19.592C94.8706 19.88 95.4466 20.168 95.9746 20.456C96.5186 20.744 97.0306 20.984 97.5106 21.176C98.0066 21.368 98.4866 21.464 98.9506 21.464H99.8386L100.223 24.656C99.5346 24.688 98.8866 24.824 98.2786 25.064C97.6866 25.288 97.0946 25.576 96.5026 25.928C95.9266 26.264 95.3026 26.616 94.6306 26.984C93.9746 27.352 93.2306 27.696 92.3986 28.016C91.5666 28.336 90.6066 28.6 89.5186 28.808C88.4306 29.016 87.1666 29.12 85.7266 29.12ZM92.5186 34.52C92.0546 34.52 91.6546 34.36 91.3186 34.04C90.9986 33.72 90.8386 33.328 90.8386 32.864C90.8386 32.4 90.9986 31.992 91.3186 31.64C91.6546 31.304 92.0546 31.136 92.5186 31.136C92.9826 31.136 93.3746 31.304 93.6946 31.64C94.0306 31.992 94.1986 32.4 94.1986 32.864C94.1986 33.328 94.0306 33.72 93.6946 34.04C93.3746 34.36 92.9826 34.52 92.5186 34.52ZM101.43 29.12L101.67 25.76C102.374 25.76 102.926 25.712 103.326 25.616C103.742 25.52 104.038 25.344 104.214 25.088C104.39 24.816 104.478 24.432 104.478 23.936C104.478 23.488 104.414 22.952 104.286 22.328C104.174 21.704 104.022 21.056 103.83 20.384C103.638 19.712 103.446 19.096 103.254 18.536L106.566 17.624C106.758 18.168 106.95 18.8 107.142 19.52C107.334 20.24 107.494 20.984 107.622 21.752C107.766 22.504 107.838 23.232 107.838 23.936C107.838 24.816 107.726 25.56 107.502 26.168C107.278 26.76 106.966 27.256 106.566 27.656C106.182 28.04 105.718 28.344 105.174 28.568C104.646 28.776 104.062 28.92 103.422 29C102.782 29.08 102.118 29.12 101.43 29.12ZM104.886 15.632C104.39 15.632 103.966 15.464 103.614 15.128C103.278 14.792 103.11 14.376 103.11 13.88C103.11 13.384 103.278 12.96 103.614 12.608C103.966 12.256 104.39 12.08 104.886 12.08C105.366 12.08 105.774 12.256 106.11 12.608C106.462 12.96 106.638 13.384 106.638 13.88C106.638 14.376 106.462 14.792 106.11 15.128C105.774 15.464 105.366 15.632 104.886 15.632ZM110.967 29L110.463 11.432H113.823L114.327 29H110.967ZM128.988 38.456C127.932 38.456 126.94 38.344 126.012 38.12C125.084 37.896 124.268 37.552 123.564 37.088C122.876 36.624 122.332 36.024 121.932 35.288C121.548 34.552 121.356 33.68 121.356 32.672C121.356 31.632 121.572 30.712 122.004 29.912C122.436 29.128 122.988 28.44 123.66 27.848C124.332 27.24 125.044 26.696 125.796 26.216C126.564 25.72 127.284 25.248 127.956 24.8C128.628 24.352 129.18 23.896 129.612 23.432C130.044 22.952 130.26 22.424 130.26 21.848C130.26 21.64 130.204 21.448 130.092 21.272C129.996 21.08 129.828 20.928 129.588 20.816C129.364 20.688 129.044 20.624 128.628 20.624C128.356 20.624 128.076 20.656 127.788 20.72C127.5 20.768 127.22 20.84 126.948 20.936C126.676 21.016 126.42 21.12 126.18 21.248C126.596 21.584 127.004 21.96 127.404 22.376C127.82 22.776 128.196 23.168 128.532 23.552C128.884 23.92 129.156 24.24 129.348 24.512C129.716 24.704 130.116 24.88 130.548 25.04C130.98 25.184 131.436 25.312 131.916 25.424C132.412 25.536 132.924 25.624 133.452 25.688C133.98 25.736 134.524 25.76 135.084 25.76C135.692 25.76 136.124 25.92 136.38 26.24C136.636 26.544 136.764 26.928 136.764 27.392C136.764 27.888 136.596 28.304 136.26 28.64C135.924 28.96 135.452 29.12 134.844 29.12C133.516 29.12 132.38 29.024 131.436 28.832C130.508 28.64 129.668 28.352 128.916 27.968C128.18 27.568 127.42 27.08 126.636 26.504C126.444 26.168 126.164 25.8 125.796 25.4C125.428 24.984 125.052 24.592 124.668 24.224C124.3 23.856 123.988 23.568 123.732 23.36C123.684 23.312 123.604 23.152 123.492 22.88C123.38 22.592 123.276 22.288 123.18 21.968C123.1 21.648 123.06 21.424 123.06 21.296C123.06 20.976 123.212 20.616 123.516 20.216C123.82 19.8 124.244 19.408 124.788 19.04C125.348 18.656 125.996 18.344 126.732 18.104C127.468 17.848 128.268 17.72 129.132 17.72C130.7 17.72 131.828 18.056 132.516 18.728C133.22 19.384 133.572 20.232 133.572 21.272C133.572 22.232 133.356 23.088 132.924 23.84C132.508 24.592 131.964 25.28 131.292 25.904C130.62 26.528 129.908 27.104 129.156 27.632C128.42 28.16 127.716 28.672 127.044 29.168C126.372 29.68 125.82 30.192 125.388 30.704C124.972 31.232 124.764 31.8 124.764 32.408C124.764 32.92 124.892 33.344 125.148 33.68C125.42 34.032 125.764 34.312 126.18 34.52C126.596 34.728 127.052 34.872 127.548 34.952C128.06 35.048 128.556 35.096 129.036 35.096C129.532 35.096 130.044 35.056 130.572 34.976C131.116 34.896 131.676 34.768 132.252 34.592C132.844 34.432 133.452 34.224 134.076 33.968L135.084 36.848C134.476 37.168 133.828 37.448 133.14 37.688C132.452 37.944 131.756 38.136 131.052 38.264C130.348 38.392 129.66 38.456 128.988 38.456ZM134.852 29.12L135.092 25.76C135.7 25.76 136.18 25.704 136.532 25.592C136.9 25.48 137.188 25.256 137.396 24.92C137.62 24.568 137.804 24.056 137.948 23.384C138.108 22.712 138.268 21.816 138.428 20.696L141.572 21.224C141.54 21.464 141.492 21.744 141.428 22.064C141.38 22.384 141.332 22.712 141.284 23.048C141.252 23.368 141.236 23.672 141.236 23.96C141.236 24.344 141.316 24.672 141.476 24.944C141.652 25.2 141.956 25.4 142.388 25.544C142.836 25.688 143.476 25.76 144.308 25.76C144.916 25.76 145.348 25.92 145.604 26.24C145.86 26.544 145.988 26.928 145.988 27.392C145.988 27.888 145.82 28.304 145.484 28.64C145.164 28.96 144.692 29.12 144.068 29.12C142.964 29.12 142.068 29.016 141.38 28.808C140.692 28.6 140.18 28.248 139.844 27.752C139.508 27.256 139.292 26.576 139.196 25.712H140.348C140.06 26.48 139.724 27.096 139.34 27.56C138.956 28.008 138.524 28.344 138.044 28.568C137.564 28.792 137.052 28.936 136.508 29C135.98 29.08 135.428 29.12 134.852 29.12ZM139.124 34.64C138.66 34.64 138.26 34.48 137.924 34.16C137.604 33.84 137.444 33.448 137.444 32.984C137.444 32.52 137.604 32.112 137.924 31.76C138.26 31.424 138.66 31.256 139.124 31.256C139.588 31.256 139.98 31.424 140.3 31.76C140.636 32.112 140.804 32.52 140.804 32.984C140.804 33.448 140.636 33.84 140.3 34.16C139.98 34.48 139.588 34.64 139.124 34.64ZM144.062 29.12L144.303 25.76C144.879 25.76 145.375 25.704 145.791 25.592C146.207 25.48 146.559 25.256 146.847 24.92C147.135 24.568 147.375 24.056 147.567 23.384C147.775 22.712 147.959 21.816 148.119 20.696L151.263 21.224C151.231 21.464 151.183 21.744 151.118 22.064C151.071 22.384 151.023 22.712 150.975 23.048C150.943 23.368 150.927 23.672 150.927 23.96C150.927 24.248 150.983 24.504 151.095 24.728C151.207 24.952 151.383 25.144 151.623 25.304C151.879 25.448 152.207 25.56 152.607 25.64C153.023 25.72 153.527 25.76 154.119 25.76C154.727 25.76 155.159 25.92 155.415 26.24C155.671 26.544 155.799 26.928 155.799 27.392C155.799 27.888 155.631 28.304 155.295 28.64C154.975 28.96 154.503 29.12 153.879 29.12C153.159 29.12 152.503 29.064 151.911 28.952C151.335 28.84 150.831 28.656 150.398 28.4C149.983 28.128 149.639 27.776 149.367 27.344C149.111 26.896 148.951 26.352 148.887 25.712H150.039C149.751 26.48 149.383 27.096 148.935 27.56C148.503 28.008 148.015 28.344 147.471 28.568C146.927 28.792 146.359 28.936 145.767 29C145.191 29.08 144.623 29.12 144.062 29.12ZM151.767 18.536C151.303 18.536 150.903 18.376 150.567 18.056C150.247 17.72 150.087 17.328 150.087 16.88C150.087 16.416 150.247 16.016 150.567 15.68C150.903 15.344 151.303 15.176 151.767 15.176C152.215 15.176 152.599 15.344 152.919 15.68C153.239 16.016 153.399 16.416 153.399 16.88C153.399 17.328 153.239 17.72 152.919 18.056C152.599 18.376 152.215 18.536 151.767 18.536ZM147.615 18.512C147.151 18.512 146.751 18.352 146.415 18.032C146.095 17.696 145.935 17.304 145.935 16.856C145.935 16.392 146.095 15.992 146.415 15.656C146.751 15.32 147.151 15.152 147.615 15.152C148.063 15.152 148.447 15.32 148.767 15.656C149.087 15.992 149.247 16.392 149.247 16.856C149.247 17.304 149.087 17.696 148.767 18.032C148.447 18.352 148.063 18.512 147.615 18.512ZM153.883 29.12L154.123 25.76C155.083 25.76 155.819 25.712 156.331 25.616C156.843 25.52 157.195 25.344 157.387 25.088C157.595 24.816 157.699 24.432 157.699 23.936C157.699 23.488 157.635 22.952 157.507 22.328C157.395 21.704 157.243 21.056 157.051 20.384C156.875 19.712 156.683 19.096 156.475 18.536L159.787 17.624C159.995 18.168 160.195 18.8 160.387 19.52C160.579 20.24 160.739 20.984 160.867 21.752C160.995 22.504 161.059 23.232 161.059 23.936C161.059 25.024 160.883 25.912 160.531 26.6C160.179 27.272 159.683 27.792 159.043 28.16C158.419 28.528 157.667 28.784 156.787 28.928C155.907 29.056 154.939 29.12 153.883 29.12ZM160.387 15.68C159.923 15.68 159.523 15.52 159.187 15.2C158.867 14.864 158.707 14.472 158.707 14.024C158.707 13.56 158.867 13.16 159.187 12.824C159.523 12.488 159.923 12.32 160.387 12.32C160.835 12.32 161.219 12.488 161.539 12.824C161.859 13.16 162.019 13.56 162.019 14.024C162.019 14.472 161.859 14.864 161.539 15.2C161.219 15.52 160.835 15.68 160.387 15.68ZM156.235 15.656C155.771 15.656 155.371 15.496 155.035 15.176C154.715 14.84 154.555 14.448 154.555 14C154.555 13.536 154.715 13.136 155.035 12.8C155.371 12.464 155.771 12.296 156.235 12.296C156.683 12.296 157.067 12.464 157.387 12.8C157.707 13.136 157.867 13.536 157.867 14C157.867 14.448 157.707 14.84 157.387 15.176C157.067 15.496 156.683 15.656 156.235 15.656ZM163.876 34.52L163.18 31.16C164.316 31.016 165.308 30.84 166.156 30.632C167.004 30.44 167.716 30.168 168.292 29.816C168.868 29.464 169.3 28.984 169.588 28.376C169.876 27.752 170.02 26.952 170.02 25.976C170.02 25.624 169.988 25.272 169.924 24.92C169.86 24.552 169.764 24.216 169.636 23.912C169.508 23.608 169.34 23.36 169.132 23.168C168.94 22.976 168.708 22.88 168.436 22.88C168.148 22.88 167.892 22.984 167.668 23.192C167.444 23.384 167.268 23.632 167.14 23.936C167.012 24.224 166.948 24.52 166.948 24.824C166.948 25.048 167.004 25.24 167.116 25.4C167.228 25.544 167.396 25.656 167.62 25.736C167.844 25.8 168.124 25.832 168.46 25.832C168.844 25.832 169.236 25.792 169.636 25.712C170.052 25.616 170.428 25.488 170.764 25.328L170.86 27.944C170.476 28.248 170.036 28.52 169.54 28.76C169.044 28.984 168.444 29.096 167.74 29.096C167.164 29.096 166.628 29.032 166.132 28.904C165.636 28.76 165.196 28.544 164.812 28.256C164.444 27.968 164.156 27.6 163.948 27.152C163.74 26.688 163.636 26.136 163.636 25.496C163.636 24.712 163.764 23.952 164.02 23.216C164.276 22.48 164.628 21.824 165.076 21.248C165.54 20.656 166.068 20.192 166.66 19.856C167.268 19.504 167.908 19.328 168.58 19.328C169.38 19.328 170.076 19.528 170.668 19.928C171.276 20.328 171.78 20.856 172.18 21.512C172.58 22.152 172.884 22.848 173.092 23.6C173.3 24.352 173.404 25.072 173.404 25.76C173.404 27.568 173.02 29.104 172.252 30.368C171.484 31.632 170.388 32.608 168.964 33.296C167.54 34 165.844 34.408 163.876 34.52Z" fill="#4E4DA2"/>
<path d="M138.971 59.028H138.999H156.971C159.144 59.024 161.297 59.4482 163.306 60.2764C165.316 61.1049 167.142 62.3215 168.681 63.8566C170.221 65.3917 171.442 67.2151 172.276 69.2227C173.11 71.2302 173.54 73.3825 173.541 75.5564V75.5585L173.494 302.185V302.186C173.493 304.356 173.063 306.506 172.231 308.51C171.399 310.515 170.181 312.337 168.645 313.871C167.109 315.405 165.286 316.621 163.279 317.45C161.273 318.28 159.124 318.706 156.953 318.704L64.43 318.647C60.0498 318.645 55.8499 316.903 52.7527 313.806C49.6554 310.709 47.9141 306.509 47.9112 302.129L47.9112 302.127L47.9112 75.4915V75.4867C47.92 71.1046 49.6685 66.9053 52.7723 63.8119C55.8757 60.7189 60.0802 58.9846 64.4617 58.99M138.971 59.028L130.282 73.7918M138.971 59.028L138.943 59.0286C137.128 59.0707 135.403 59.8315 134.148 61.1439C132.9 62.4494 132.218 64.1947 132.249 66M138.971 59.028L132.249 66M64.4617 58.99C64.4622 58.99 64.4628 58.99 64.4633 58.99L64.4601 61.3814V58.99H64.4617ZM64.4617 58.99H86.4799H86.505L86.5302 58.9906C87.4303 59.0095 88.318 59.2056 89.1423 59.5677C89.9667 59.9298 90.7116 60.4507 91.3346 61.1008C91.9575 61.7508 92.4463 62.5172 92.773 63.3562L90.5527 64.2208L92.773 63.3562C93.0962 64.1864 93.2545 65.0715 93.2391 65.9621M93.2391 65.9621V65.9391H90.8477L93.2385 65.9906C93.2387 65.9811 93.2389 65.9716 93.2391 65.9621ZM93.2391 65.9621V69.1961V69.2292L93.2381 69.2624C93.2305 69.5375 93.2775 69.8114 93.3765 70.0682C93.4754 70.3251 93.6243 70.5597 93.8146 70.7586C94.0049 70.9575 94.2327 71.1167 94.4849 71.2269C94.7321 71.335 94.998 71.3939 95.2677 71.4005M95.2677 71.4005H95.2441V73.7918L95.2838 71.4008C95.2784 71.4007 95.2731 71.4006 95.2677 71.4005ZM95.2677 71.4005H130.249M130.249 71.4005C130.242 71.4007 130.234 71.4009 130.227 71.4011L130.282 73.7918M130.249 71.4005C130.789 71.3821 131.302 71.1531 131.676 70.7618C132.055 70.3652 132.261 69.8342 132.25 69.2856L132.249 69.2598V69.234V66M130.249 71.4005H130.282V73.7918M130.282 73.7918C131.464 73.7644 132.587 73.2691 133.404 72.4145C134.221 71.56 134.666 70.4161 134.64 69.234L132.249 66" fill="white" stroke="#4E4DA2" stroke-width="4.78267"/>
<path d="M157.357 134.066C150.163 114.832 132.897 107.59 119.273 120.504C113.954 125.543 110.634 133.561 104.12 136.779C98.0083 139.796 90.2656 138.908 83.6562 140.542C69.5816 144.001 50.6324 157.122 52.078 177.34C52.7112 186.196 57.8056 196.032 60.3238 204.318C63.2151 213.852 64.9498 225.78 72.603 231.48C85.7234 241.265 101.55 233.266 113.369 225.377C119.73 221.135 123.232 218.528 130.081 219.982C136.421 221.339 142.132 226.085 148.328 220.454C152.98 216.226 153.364 207.658 157.27 202.626C161.671 196.957 166.132 196.547 168.419 188.027C171.191 177.689 167.106 171.23 164.345 161.994C161.584 152.758 160.745 143.116 157.357 134.066Z" fill="#F5D8DA"/>
<g opacity="0.7">
<path d="M157.357 134.066C150.163 114.832 132.897 107.59 119.273 120.504C113.954 125.543 110.634 133.561 104.12 136.779C98.0083 139.796 90.2656 138.908 83.6562 140.542C69.5816 144.001 50.6324 157.122 52.078 177.34C52.7112 186.196 57.8056 196.032 60.3238 204.318C63.2151 213.852 64.9498 225.78 72.603 231.48C85.7234 241.265 101.55 233.266 113.369 225.377C119.73 221.135 123.232 218.528 130.081 219.982C136.421 221.339 142.132 226.085 148.328 220.454C152.98 216.226 153.364 207.658 157.27 202.626C161.671 196.957 166.132 196.547 168.419 188.027C171.191 177.689 167.106 171.23 164.345 161.994C161.584 152.758 160.745 143.116 157.357 134.066Z" fill="white"/>
</g>
<path d="M157.055 214.151C152.927 215.54 102.764 215.024 71.4486 215.299C70.4648 215.323 69.5101 214.934 68.7807 214.211C68.0512 213.489 67.6025 212.489 67.5267 211.416C66.1273 188.94 64.5494 161.327 65.1197 150.134C65.1083 149.611 65.1937 149.09 65.3707 148.603C65.5477 148.117 65.8126 147.674 66.1497 147.302C66.4868 146.93 66.8891 146.636 67.3324 146.438C67.7758 146.24 68.2512 146.141 68.7302 146.149C77.6201 145.001 121.345 145.219 154.337 145.001C155.322 144.976 156.278 145.366 157.008 146.089C157.738 146.812 158.187 147.813 158.262 148.887C159.193 158.737 160.011 187.804 160.669 210.17C160.68 210.693 160.593 211.213 160.416 211.7C160.238 212.186 159.973 212.628 159.636 213C159.298 213.371 158.896 213.665 158.453 213.863C158.009 214.061 157.534 214.159 157.055 214.151Z" fill="#D75B61"/>
<path opacity="0.6" d="M157.055 214.151C152.927 215.54 102.764 215.024 71.4486 215.299C70.4648 215.323 69.5101 214.934 68.7807 214.211C68.0512 213.489 67.6025 212.489 67.5267 211.416C66.1273 188.94 64.5494 161.327 65.1197 150.134C65.1083 149.611 65.1937 149.09 65.3707 148.603C65.5477 148.117 65.8126 147.674 66.1497 147.302C66.4868 146.93 66.8891 146.636 67.3324 146.438C67.7758 146.24 68.2512 146.141 68.7302 146.149C77.6201 145.001 121.345 145.219 154.337 145.001C155.322 144.976 156.278 145.366 157.008 146.089C157.738 146.812 158.187 147.813 158.262 148.887C159.193 158.737 160.011 187.804 160.669 210.17C160.68 210.693 160.593 211.213 160.416 211.7C160.238 212.186 159.973 212.628 159.636 213C159.298 213.371 158.896 213.665 158.453 213.863C158.009 214.061 157.534 214.159 157.055 214.151Z" fill="white"/>
<path d="M94 186C94 188.209 91.9853 190 89.5 190C87.0147 190 85 188.209 85 186C85 183.791 87.0147 182 89.5 182C91.9853 182 94 183.791 94 186ZM85.5276 186C85.5276 187.95 87.3061 189.531 89.5 189.531C91.6939 189.531 93.4724 187.95 93.4724 186C93.4724 184.05 91.6939 182.469 89.5 182.469C87.3061 182.469 85.5276 184.05 85.5276 186Z" fill="#4E4DA2"/>
<path d="M93.7544 186C93.8901 186 94.0009 186.11 93.9915 186.245C93.9368 187.037 93.6184 187.798 93.0737 188.431C92.4729 189.129 91.6303 189.631 90.6761 189.861C89.7219 190.091 88.7091 190.035 87.7943 189.702C86.8795 189.368 86.1135 188.777 85.6148 188.018C85.116 187.259 84.9121 186.376 85.0347 185.504C85.1573 184.632 85.5995 183.82 86.293 183.194C86.9865 182.568 87.8927 182.162 88.8716 182.039C89.7666 181.927 90.6769 182.057 91.4846 182.41C91.6061 182.463 91.6473 182.612 91.5763 182.724V182.724C91.5147 182.821 91.3898 182.856 91.2846 182.809C90.5609 182.489 89.7437 182.371 88.9402 182.471C88.0682 182.581 87.2609 182.942 86.6431 183.5C86.0252 184.058 85.6313 184.781 85.5221 185.558C85.4129 186.335 85.5944 187.122 86.0388 187.798C86.4831 188.474 87.1655 189.001 87.9805 189.298C88.7954 189.594 89.6977 189.644 90.5477 189.44C91.3978 189.235 92.1484 188.787 92.6837 188.166C93.1628 187.609 93.4454 186.941 93.4994 186.245C93.5099 186.11 93.6188 186 93.7544 186V186Z" fill="url(#paint0_linear_101_534)"/>
<path d="M82 186C82 188.209 79.9853 190 77.5 190C75.0147 190 73 188.209 73 186C73 183.791 75.0147 182 77.5 182C79.9853 182 82 183.791 82 186ZM73.5276 186C73.5276 187.95 75.3061 189.531 77.5 189.531C79.6939 189.531 81.4724 187.95 81.4724 186C81.4724 184.05 79.6939 182.469 77.5 182.469C75.3061 182.469 73.5276 184.05 73.5276 186Z" fill="#4E4DA2"/>
<path d="M81.7544 186C81.8901 186 82.0009 186.11 81.9915 186.245C81.9368 187.037 81.6184 187.798 81.0737 188.431C80.4729 189.129 79.6303 189.631 78.6761 189.861C77.7219 190.091 76.7091 190.035 75.7943 189.702C74.8795 189.368 74.1135 188.777 73.6148 188.018C73.116 187.259 72.9121 186.376 73.0347 185.504C73.1573 184.632 73.5995 183.82 74.293 183.194C74.9865 182.568 75.8927 182.162 76.8716 182.039C77.7666 181.927 78.6769 182.057 79.4846 182.41C79.6061 182.463 79.6473 182.612 79.5763 182.724V182.724C79.5147 182.821 79.3898 182.856 79.2846 182.809C78.5609 182.489 77.7437 182.371 76.9402 182.471C76.0682 182.581 75.2609 182.942 74.6431 183.5C74.0252 184.058 73.6313 184.781 73.5221 185.558C73.4129 186.335 73.5944 187.122 74.0388 187.798C74.4831 188.474 75.1655 189.001 75.9805 189.298C76.7954 189.594 77.6977 189.644 78.5477 189.44C79.3978 189.235 80.1484 188.787 80.6837 188.166C81.1628 187.609 81.4454 186.941 81.4994 186.245C81.5099 186.11 81.6188 186 81.7544 186V186Z" fill="url(#paint1_linear_101_534)"/>
<path d="M85.4008 214.079C78.8235 214.079 74.2718 213.956 73.1278 213.639H73.1103C71.0986 213.639 69.4053 212.051 69.3283 210.085L69.2129 207.79C68.2333 188.102 67.0123 163.599 67.1837 155.187C67.17 154.748 67.2376 154.311 67.3825 153.902C67.5274 153.492 67.7466 153.119 68.0269 152.804C68.3789 152.414 68.7989 152.104 69.2622 151.894C69.7255 151.683 70.2227 151.577 70.7243 151.58C78.1202 151.473 86.2159 151.332 94.0457 151.198C119.459 150.758 145.741 150.303 152.276 150.941H152.307C154.309 150.941 156.002 152.529 156.079 154.495C157.384 164.081 157.895 187.628 158.224 209.397C158.237 209.837 158.17 210.275 158.025 210.686C157.88 211.097 157.661 211.472 157.38 211.787C157.028 212.178 156.608 212.487 156.145 212.697C155.681 212.907 155.184 213.014 154.683 213.012C146.024 213.119 135.682 213.318 125.683 213.513C110.811 213.784 95.6481 214.079 85.4008 214.079ZM73.1383 213.448H73.1628C76.0106 214.259 101.26 213.773 125.68 213.306C135.679 213.111 146.021 212.924 154.683 212.805C155.16 212.81 155.633 212.711 156.074 212.514C156.516 212.317 156.917 212.026 157.254 211.657C157.519 211.36 157.725 211.007 157.862 210.619C157.998 210.232 158.062 209.819 158.049 209.404C157.72 187.64 157.209 164.1 155.907 154.51C155.831 152.64 154.218 151.133 152.297 151.133H152.269C145.734 150.494 119.459 150.949 94.0457 151.389C86.2194 151.523 78.1237 151.664 70.7278 151.772C70.2504 151.767 69.7769 151.865 69.3349 152.062C68.8928 152.26 68.491 152.551 68.1528 152.919C67.8886 153.217 67.6821 153.57 67.5456 153.957C67.4091 154.344 67.3456 154.757 67.3586 155.172C67.1872 163.587 68.4082 188.068 69.3878 207.763L69.5033 210.059C69.5767 211.921 71.1896 213.428 73.1103 213.428L73.1383 213.448Z" fill="#D75B61"/>
<path d="M112.372 165.458L110.93 165.477L110.902 164.796L112.274 162.987H112.973L113.047 164.819H113.397L113.421 165.462H113.071L113.092 166.02H112.392L112.372 165.458ZM112.347 164.819L112.312 163.878L111.584 164.827L112.347 164.819Z" fill="white"/>
<path d="M112.606 174.004L112.725 177.033H111.924L111.843 175.048C111.728 175.145 111.605 175.231 111.476 175.304C111.331 175.38 111.182 175.443 111.028 175.492L111 174.815C111.223 174.745 111.431 174.631 111.616 174.478C111.76 174.35 111.874 174.186 111.948 174L112.606 174.004Z" fill="white"/>
<path d="M114.606 174.004L114.725 177.033H113.92L113.843 175.048C113.728 175.144 113.605 175.229 113.476 175.301C113.332 175.378 113.182 175.442 113.028 175.492L113 174.811C113.222 174.742 113.431 174.629 113.616 174.478C113.765 174.351 113.885 174.187 113.966 174L114.606 174.004Z" fill="white"/>
<path d="M112.116 183.814L112.235 186.844H111.434L111.357 184.859C111.242 184.955 111.119 185.039 110.99 185.111C110.845 185.188 110.696 185.252 110.542 185.302L110.514 184.622C110.736 184.552 110.945 184.44 111.13 184.289C111.279 184.162 111.399 183.998 111.48 183.811L112.116 183.814Z" fill="white"/>
<path d="M113.512 185.226C113.404 185.172 113.308 185.094 113.229 184.997C113.147 184.881 113.102 184.741 113.099 184.595C113.095 184.471 113.122 184.348 113.177 184.24C113.231 184.131 113.312 184.041 113.411 183.979C113.622 183.842 113.865 183.776 114.11 183.788C114.41 183.759 114.71 183.836 114.968 184.006C115.054 184.068 115.126 184.152 115.177 184.25C115.228 184.349 115.257 184.459 115.261 184.572C115.27 184.707 115.236 184.842 115.167 184.954C115.102 185.057 115.019 185.145 114.922 185.211C115.062 185.275 115.183 185.379 115.272 185.513C115.351 185.637 115.396 185.783 115.401 185.934C115.409 186.079 115.381 186.224 115.321 186.354C115.268 186.475 115.189 186.579 115.09 186.657C114.984 186.735 114.865 186.79 114.74 186.817C114.592 186.853 114.441 186.871 114.289 186.871C114.052 186.885 113.815 186.851 113.589 186.771C113.436 186.707 113.304 186.594 113.211 186.446C113.122 186.303 113.072 186.134 113.068 185.96C113.056 185.805 113.09 185.649 113.166 185.517C113.25 185.382 113.371 185.28 113.512 185.226ZM113.862 185.918C113.865 186.04 113.911 186.155 113.991 186.24C114.062 186.317 114.158 186.361 114.257 186.362C114.305 186.36 114.353 186.347 114.396 186.324C114.439 186.301 114.478 186.268 114.509 186.228C114.545 186.185 114.572 186.134 114.589 186.079C114.606 186.023 114.612 185.965 114.607 185.907C114.608 185.847 114.597 185.787 114.575 185.732C114.554 185.676 114.522 185.627 114.481 185.586C114.447 185.545 114.405 185.513 114.359 185.492C114.312 185.471 114.262 185.461 114.212 185.463C114.164 185.464 114.118 185.475 114.074 185.496C114.031 185.517 113.992 185.548 113.96 185.586C113.922 185.63 113.894 185.683 113.875 185.74C113.856 185.797 113.848 185.858 113.851 185.918H113.862ZM113.862 184.633C113.862 184.68 113.871 184.726 113.889 184.769C113.906 184.812 113.932 184.85 113.963 184.882C114.034 184.945 114.124 184.978 114.215 184.974C114.256 184.975 114.297 184.967 114.334 184.95C114.372 184.934 114.407 184.909 114.436 184.878C114.463 184.845 114.485 184.807 114.498 184.764C114.511 184.722 114.516 184.678 114.513 184.633C114.505 184.565 114.48 184.501 114.441 184.447C114.403 184.393 114.352 184.352 114.294 184.327C114.235 184.302 114.172 184.294 114.11 184.305C114.049 184.316 113.991 184.345 113.942 184.388C113.911 184.419 113.886 184.457 113.869 184.499C113.852 184.541 113.844 184.587 113.844 184.633H113.862Z" fill="white"/>
<path d="M113.26 197.244L110.881 197.275C110.899 197.026 110.976 196.786 111.105 196.579C111.314 196.282 111.566 196.023 111.85 195.814C112.009 195.697 112.154 195.558 112.281 195.401C112.335 195.324 112.366 195.23 112.368 195.133C112.366 195.088 112.356 195.044 112.338 195.004C112.32 194.964 112.294 194.928 112.263 194.9C112.194 194.835 112.105 194.802 112.015 194.808C111.97 194.806 111.924 194.814 111.882 194.832C111.84 194.849 111.802 194.876 111.77 194.911C111.698 195.012 111.657 195.135 111.654 195.263L110.86 195.206C110.869 195.013 110.92 194.825 111.011 194.659C111.095 194.519 111.217 194.412 111.36 194.353C111.559 194.269 111.771 194.232 111.983 194.242C112.204 194.228 112.426 194.258 112.637 194.33C112.787 194.388 112.919 194.493 113.015 194.632C113.107 194.764 113.16 194.925 113.166 195.091C113.173 195.277 113.127 195.46 113.033 195.615C112.89 195.834 112.709 196.021 112.501 196.166C112.344 196.284 112.242 196.365 112.19 196.414C112.126 196.472 112.065 196.533 112.008 196.598L113.246 196.579L113.26 197.244Z" fill="white"/>
<path d="M113.817 194.253L115.699 194.23L115.727 194.892H114.45L114.401 195.34C114.483 195.298 114.569 195.265 114.656 195.24C114.74 195.218 114.826 195.205 114.912 195.202C115.167 195.189 115.417 195.284 115.611 195.466C115.701 195.549 115.774 195.653 115.825 195.77C115.876 195.886 115.903 196.014 115.905 196.143C115.912 196.336 115.872 196.527 115.79 196.697C115.708 196.875 115.577 197.019 115.415 197.111C115.216 197.215 114.996 197.266 114.775 197.26C114.612 197.265 114.449 197.248 114.289 197.21C114.055 197.155 113.846 197.009 113.701 196.801C113.634 196.693 113.581 196.576 113.544 196.453L114.341 196.349C114.357 196.467 114.409 196.574 114.488 196.655C114.561 196.722 114.653 196.758 114.747 196.755C114.798 196.755 114.849 196.744 114.895 196.721C114.942 196.697 114.983 196.663 115.017 196.621C115.079 196.503 115.109 196.369 115.103 196.233C115.097 196.098 115.057 195.967 114.985 195.856C114.946 195.815 114.9 195.782 114.85 195.761C114.799 195.74 114.745 195.731 114.691 195.733C114.614 195.735 114.539 195.756 114.471 195.795C114.407 195.836 114.35 195.889 114.303 195.952L113.621 195.86L113.817 194.253Z" fill="white"/>
<path d="M123.228 162.891L125.11 162.868L125.134 163.526H123.861L123.808 163.974C123.891 163.93 123.978 163.895 124.067 163.87C124.151 163.848 124.237 163.836 124.323 163.836C124.578 163.824 124.827 163.917 125.022 164.096C125.111 164.181 125.182 164.285 125.232 164.401C125.282 164.518 125.31 164.644 125.313 164.773C125.323 164.967 125.283 165.161 125.197 165.332C125.117 165.508 124.987 165.653 124.827 165.745C124.627 165.849 124.407 165.899 124.186 165.89C124.023 165.896 123.86 165.881 123.7 165.844C123.576 165.812 123.457 165.756 123.35 165.68C123.259 165.612 123.178 165.528 123.112 165.431C123.043 165.325 122.989 165.208 122.955 165.083L123.756 164.987C123.772 165.103 123.824 165.21 123.903 165.289C123.975 165.357 124.067 165.394 124.162 165.393C124.213 165.393 124.264 165.381 124.311 165.357C124.357 165.333 124.398 165.298 124.431 165.255C124.503 165.144 124.536 165.008 124.522 164.873C124.526 164.733 124.482 164.597 124.4 164.49C124.36 164.449 124.314 164.417 124.262 164.397C124.211 164.376 124.157 164.368 124.102 164.371C124.026 164.371 123.952 164.392 123.885 164.433C123.82 164.474 123.762 164.527 123.714 164.589L123.035 164.498L123.228 162.891Z" fill="white"/>
<path d="M124.602 174L124.721 177.033H123.92L123.843 175.044C123.729 175.143 123.606 175.229 123.476 175.301C123.331 175.378 123.18 175.441 123.024 175.488L123 174.811C123.222 174.741 123.431 174.627 123.616 174.474C123.759 174.346 123.872 174.184 123.948 174H124.602Z" fill="white"/>
<path d="M127.404 177.009L125.024 177.04C125.043 176.791 125.119 176.552 125.245 176.344C125.455 176.046 125.707 175.787 125.994 175.579C126.151 175.462 126.295 175.323 126.42 175.166C126.477 175.09 126.508 174.995 126.508 174.898C126.506 174.853 126.496 174.809 126.478 174.769C126.46 174.729 126.434 174.693 126.403 174.664C126.335 174.601 126.247 174.568 126.158 174.573C126.113 174.57 126.068 174.578 126.026 174.596C125.983 174.614 125.945 174.641 125.913 174.676C125.838 174.775 125.797 174.899 125.798 175.028L125 174.97C125.01 174.778 125.062 174.59 125.15 174.424C125.236 174.285 125.358 174.178 125.5 174.118C125.699 174.035 125.911 173.996 126.123 174.003C126.344 173.99 126.566 174.021 126.777 174.095C126.927 174.153 127.059 174.258 127.155 174.397C127.248 174.529 127.302 174.689 127.309 174.856C127.315 175.041 127.268 175.224 127.176 175.38C127.033 175.6 126.851 175.787 126.641 175.931C126.487 176.049 126.382 176.13 126.329 176.179C126.277 176.229 126.218 176.286 126.148 176.363L127.386 176.344L127.404 177.009Z" fill="white"/>
<path d="M124.106 183.654L124.225 186.687H123.424L123.347 184.702C123.232 184.8 123.109 184.886 122.979 184.958C122.835 185.033 122.685 185.096 122.532 185.146L122.497 184.495C122.719 184.425 122.928 184.311 123.112 184.159C123.262 184.033 123.381 183.87 123.462 183.684L124.106 183.654Z" fill="white"/>
<path d="M125.089 186.025L125.873 185.911C125.886 186.003 125.926 186.088 125.988 186.152C126.041 186.198 126.106 186.222 126.174 186.221C126.234 186.221 126.294 186.202 126.345 186.166C126.396 186.13 126.436 186.078 126.46 186.018C126.527 185.816 126.559 185.602 126.555 185.387C126.475 185.482 126.379 185.559 126.272 185.612C126.162 185.666 126.042 185.692 125.922 185.689C125.8 185.693 125.679 185.671 125.566 185.623C125.452 185.576 125.349 185.505 125.26 185.413C125.171 185.322 125.098 185.211 125.049 185.088C124.999 184.965 124.972 184.833 124.97 184.698C124.96 184.509 124.999 184.321 125.082 184.155C125.161 183.992 125.283 183.859 125.432 183.772C125.615 183.68 125.815 183.636 126.016 183.642C126.256 183.627 126.497 183.676 126.716 183.784C126.9 183.895 127.049 184.062 127.146 184.266C127.27 184.541 127.335 184.843 127.335 185.149C127.387 185.569 127.288 185.994 127.059 186.335C126.944 186.465 126.806 186.566 126.653 186.632C126.499 186.698 126.335 186.728 126.17 186.718C125.988 186.727 125.805 186.702 125.631 186.641C125.499 186.596 125.379 186.516 125.281 186.408C125.196 186.295 125.13 186.165 125.089 186.025ZM126.488 184.675C126.492 184.534 126.446 184.397 126.359 184.293C126.321 184.25 126.276 184.217 126.226 184.194C126.176 184.171 126.123 184.159 126.069 184.159C126.02 184.158 125.972 184.17 125.928 184.192C125.883 184.215 125.844 184.248 125.813 184.289C125.776 184.343 125.748 184.404 125.733 184.47C125.717 184.536 125.714 184.604 125.722 184.671C125.72 184.811 125.764 184.946 125.845 185.054C125.879 185.097 125.922 185.131 125.969 185.153C126.017 185.176 126.069 185.186 126.121 185.184C126.173 185.185 126.224 185.174 126.271 185.15C126.318 185.127 126.36 185.093 126.394 185.05C126.436 184.996 126.467 184.933 126.484 184.865C126.502 184.797 126.506 184.726 126.495 184.656L126.488 184.675Z" fill="white"/>
<path d="M125.246 197.084L122.867 197.118C122.885 196.869 122.961 196.63 123.088 196.422C123.298 196.125 123.551 195.867 123.837 195.657C123.996 195.539 124.14 195.399 124.267 195.24C124.322 195.164 124.352 195.07 124.354 194.972C124.353 194.928 124.343 194.885 124.325 194.845C124.307 194.805 124.281 194.771 124.249 194.743C124.181 194.677 124.092 194.643 124.001 194.647C123.91 194.646 123.822 194.683 123.756 194.751C123.685 194.853 123.644 194.977 123.641 195.106L122.846 195.049C122.856 194.855 122.907 194.667 122.993 194.498C123.08 194.362 123.202 194.256 123.343 194.196C123.543 194.113 123.756 194.074 123.969 194.081C124.191 194.069 124.412 194.1 124.624 194.173C124.774 194.232 124.905 194.336 125.002 194.475C125.095 194.607 125.148 194.768 125.152 194.934C125.159 195.12 125.112 195.303 125.019 195.458C124.874 195.676 124.694 195.863 124.487 196.009C124.33 196.128 124.228 196.208 124.176 196.254C124.112 196.311 124.052 196.373 123.994 196.437H125.229L125.246 197.084Z" fill="white"/>
<path d="M127.79 194.743L127.006 194.854C126.989 194.762 126.949 194.677 126.891 194.609C126.84 194.563 126.775 194.538 126.709 194.54C126.647 194.541 126.586 194.561 126.534 194.598C126.482 194.636 126.44 194.688 126.415 194.751C126.351 194.952 126.322 195.165 126.327 195.378C126.408 195.283 126.504 195.205 126.611 195.148C126.777 195.074 126.96 195.053 127.137 195.089C127.314 195.125 127.477 195.216 127.608 195.351C127.699 195.442 127.772 195.552 127.823 195.675C127.873 195.798 127.9 195.932 127.902 196.066C127.91 196.255 127.871 196.443 127.79 196.61C127.711 196.773 127.589 196.906 127.44 196.992C127.256 197.086 127.055 197.132 126.852 197.126C126.612 197.141 126.372 197.093 126.153 196.984C125.968 196.874 125.818 196.707 125.722 196.502C125.597 196.228 125.531 195.926 125.53 195.619C125.479 195.199 125.579 194.774 125.81 194.433C125.923 194.304 126.061 194.202 126.214 194.136C126.367 194.07 126.531 194.041 126.695 194.051C126.878 194.04 127.062 194.064 127.237 194.123C127.369 194.171 127.489 194.252 127.587 194.36C127.679 194.471 127.748 194.601 127.79 194.743ZM126.39 196.089C126.388 196.231 126.436 196.368 126.523 196.472C126.56 196.516 126.605 196.551 126.655 196.574C126.705 196.597 126.759 196.608 126.814 196.606C126.863 196.606 126.911 196.594 126.955 196.573C127 196.551 127.04 196.519 127.073 196.479C127.11 196.425 127.136 196.363 127.151 196.298C127.166 196.232 127.169 196.164 127.16 196.097C127.164 195.957 127.12 195.821 127.038 195.714C127.003 195.673 126.96 195.64 126.913 195.618C126.866 195.595 126.815 195.583 126.763 195.583C126.711 195.583 126.66 195.595 126.613 195.618C126.566 195.64 126.523 195.673 126.488 195.714C126.448 195.766 126.418 195.826 126.4 195.89C126.381 195.954 126.374 196.022 126.38 196.089H126.39Z" fill="white"/>
<path d="M137.18 163.377L136.396 163.488C136.383 163.397 136.344 163.313 136.284 163.247C136.232 163.201 136.166 163.176 136.099 163.178C136.038 163.18 135.978 163.2 135.927 163.236C135.876 163.273 135.835 163.324 135.809 163.385C135.744 163.586 135.713 163.799 135.718 164.012C135.799 163.919 135.895 163.843 136.001 163.786C136.112 163.735 136.231 163.708 136.351 163.71C136.473 163.707 136.594 163.73 136.708 163.778C136.822 163.827 136.926 163.899 137.014 163.992C137.102 164.084 137.173 164.195 137.221 164.317C137.27 164.439 137.297 164.571 137.299 164.704C137.31 164.892 137.272 165.08 137.187 165.244C137.11 165.408 136.988 165.542 136.837 165.626C136.653 165.718 136.452 165.764 136.249 165.76C136.009 165.775 135.768 165.725 135.55 165.615C135.364 165.505 135.213 165.337 135.116 165.133C134.992 164.859 134.927 164.558 134.927 164.253C134.875 163.832 134.974 163.406 135.203 163.063C135.318 162.935 135.457 162.834 135.61 162.768C135.763 162.702 135.928 162.672 136.092 162.681C136.275 162.671 136.459 162.697 136.634 162.757C136.767 162.804 136.887 162.885 136.984 162.994C137.072 163.106 137.139 163.236 137.18 163.377ZM135.781 164.723C135.778 164.865 135.826 165.002 135.914 165.106C135.951 165.149 135.996 165.184 136.046 165.207C136.096 165.23 136.15 165.241 136.204 165.24C136.252 165.239 136.3 165.228 136.344 165.206C136.388 165.184 136.427 165.153 136.459 165.114C136.534 165.004 136.567 164.867 136.55 164.731C136.553 164.591 136.508 164.455 136.424 164.349C136.389 164.308 136.347 164.276 136.3 164.254C136.253 164.232 136.202 164.221 136.151 164.221C136.1 164.221 136.05 164.232 136.003 164.254C135.956 164.276 135.914 164.308 135.879 164.349C135.838 164.4 135.808 164.459 135.79 164.524C135.772 164.588 135.766 164.656 135.774 164.723H135.781Z" fill="white"/>
<path d="M136.602 174.004L136.721 177.033H135.92L135.843 175.048C135.727 175.144 135.604 175.23 135.476 175.304C135.331 175.379 135.181 175.442 135.028 175.492L135 174.811C135.223 174.743 135.432 174.63 135.616 174.478C135.759 174.349 135.873 174.185 135.948 174L136.602 174.004Z" fill="white"/>
<path d="M137.756 174.924L137 174.794C137.045 174.559 137.17 174.353 137.35 174.216C137.572 174.063 137.833 173.99 138.095 174.006C138.38 173.978 138.666 174.05 138.91 174.212C138.991 174.274 139.057 174.355 139.103 174.449C139.15 174.544 139.176 174.648 139.18 174.756C139.188 174.88 139.157 175.005 139.092 175.107C139.016 175.225 138.915 175.321 138.798 175.387C138.888 175.404 138.976 175.437 139.057 175.482C139.154 175.541 139.235 175.627 139.291 175.731C139.348 175.835 139.378 175.954 139.379 176.075C139.385 176.25 139.346 176.424 139.267 176.576C139.189 176.74 139.067 176.873 138.917 176.959C138.716 177.056 138.497 177.102 138.277 177.093C138.069 177.105 137.86 177.076 137.661 177.009C137.515 176.953 137.384 176.858 137.28 176.733C137.172 176.599 137.09 176.443 137.038 176.274L137.826 176.152C137.845 176.282 137.901 176.403 137.987 176.496C138.056 176.563 138.146 176.597 138.238 176.592C138.288 176.592 138.337 176.581 138.382 176.559C138.427 176.537 138.468 176.505 138.501 176.465C138.535 176.421 138.561 176.369 138.577 176.313C138.592 176.257 138.597 176.198 138.592 176.14C138.593 176.081 138.584 176.022 138.565 175.967C138.546 175.912 138.517 175.862 138.48 175.819C138.442 175.781 138.397 175.752 138.348 175.733C138.3 175.713 138.248 175.705 138.197 175.708C138.11 175.713 138.024 175.731 137.941 175.762L137.959 175.169C137.994 175.172 138.029 175.172 138.064 175.169C138.111 175.17 138.157 175.162 138.201 175.144C138.245 175.125 138.285 175.097 138.319 175.062C138.35 175.031 138.375 174.993 138.391 174.951C138.408 174.908 138.415 174.863 138.413 174.817C138.414 174.776 138.406 174.735 138.391 174.697C138.376 174.66 138.354 174.626 138.326 174.599C138.296 174.571 138.262 174.549 138.225 174.536C138.187 174.523 138.148 174.518 138.109 174.522C138.027 174.518 137.946 174.55 137.885 174.61C137.81 174.695 137.764 174.806 137.756 174.924Z" fill="white"/>
<path d="M136.83 186.519L134.451 186.549C134.47 186.301 134.546 186.061 134.672 185.853C134.88 185.554 135.133 185.296 135.42 185.088C135.579 184.97 135.722 184.83 135.847 184.671C135.904 184.596 135.934 184.501 135.935 184.404C135.933 184.359 135.923 184.315 135.905 184.275C135.887 184.235 135.861 184.199 135.83 184.17C135.762 184.106 135.674 184.074 135.585 184.078C135.54 184.076 135.495 184.084 135.452 184.102C135.41 184.12 135.372 184.147 135.34 184.182C135.265 184.281 135.224 184.405 135.224 184.534L134.427 184.476C134.438 184.284 134.489 184.096 134.577 183.929C134.664 183.792 134.785 183.685 134.927 183.623C135.126 183.542 135.338 183.504 135.55 183.512C135.771 183.501 135.992 183.53 136.204 183.6C136.354 183.659 136.485 183.764 136.582 183.902C136.676 184.036 136.729 184.197 136.736 184.365C136.742 184.549 136.695 184.731 136.603 184.885C136.459 185.106 136.277 185.293 136.068 185.436C135.914 185.555 135.809 185.639 135.756 185.685C135.704 185.731 135.644 185.792 135.574 185.869H136.813L136.83 186.519Z" fill="white"/>
<path d="M137.107 185.012C137.051 184.594 137.14 184.169 137.355 183.818C137.471 183.695 137.608 183.6 137.76 183.54C137.911 183.479 138.072 183.454 138.233 183.466C138.394 183.462 138.555 183.485 138.709 183.535C138.821 183.576 138.926 183.64 139.017 183.723C139.093 183.795 139.159 183.879 139.213 183.971C139.265 184.067 139.305 184.17 139.332 184.277C139.395 184.502 139.431 184.735 139.44 184.97C139.487 185.383 139.411 185.801 139.223 186.163C139.113 186.299 138.976 186.405 138.821 186.471C138.667 186.538 138.5 186.563 138.335 186.546C138.134 186.557 137.933 186.519 137.747 186.435C137.596 186.355 137.467 186.235 137.369 186.087C137.285 185.951 137.224 185.799 137.191 185.639C137.143 185.434 137.115 185.223 137.107 185.012ZM137.894 185.012C137.89 185.273 137.933 185.533 138.02 185.777C138.045 185.838 138.085 185.89 138.137 185.926C138.189 185.962 138.249 185.981 138.31 185.98C138.348 185.98 138.386 185.973 138.42 185.957C138.455 185.941 138.487 185.918 138.513 185.888C138.58 185.811 138.623 185.713 138.636 185.608C138.66 185.411 138.666 185.211 138.653 185.012C138.659 184.74 138.615 184.469 138.524 184.216C138.497 184.155 138.455 184.103 138.402 184.067C138.35 184.031 138.288 184.012 138.226 184.013C138.166 184.013 138.107 184.033 138.058 184.072C138.009 184.11 137.972 184.165 137.953 184.228C137.887 184.48 137.867 184.744 137.894 185.004V185.012Z" fill="white"/>
<path d="M137.24 196.927L134.861 196.958C134.879 196.708 134.956 196.468 135.085 196.261C135.294 195.964 135.545 195.706 135.83 195.496C135.988 195.379 136.133 195.24 136.26 195.083C136.315 195.007 136.345 194.913 136.347 194.816C136.346 194.771 136.336 194.727 136.318 194.687C136.299 194.647 136.274 194.611 136.243 194.582C136.174 194.518 136.085 194.485 135.994 194.49C135.949 194.488 135.904 194.496 135.862 194.514C135.82 194.532 135.781 194.559 135.749 194.594C135.677 194.694 135.637 194.818 135.634 194.946L134.84 194.888C134.849 194.696 134.899 194.509 134.987 194.341C135.073 194.203 135.194 194.097 135.336 194.035C135.535 193.952 135.747 193.913 135.959 193.92C136.18 193.91 136.402 193.941 136.613 194.012C136.763 194.071 136.895 194.176 136.991 194.314C137.083 194.447 137.136 194.607 137.142 194.773C137.149 194.959 137.103 195.143 137.009 195.297C136.866 195.517 136.685 195.704 136.477 195.848C136.319 195.967 136.218 196.047 136.166 196.097C136.102 196.155 136.041 196.216 135.984 196.281H137.222L137.24 196.927Z" fill="white"/>
<path d="M137.474 193.94L139.79 193.909L139.811 194.471C139.626 194.652 139.464 194.861 139.332 195.091C139.177 195.372 139.059 195.676 138.982 195.994C138.912 196.291 138.873 196.597 138.866 196.904H138.076C138.105 196.484 138.187 196.071 138.321 195.676C138.471 195.291 138.672 194.932 138.915 194.609H137.516L137.474 193.94Z" fill="white"/>
<path d="M146.847 162.577L149.163 162.547L149.184 163.105C148.999 163.289 148.838 163.499 148.704 163.729C148.549 164.01 148.431 164.314 148.355 164.632C148.286 164.93 148.247 165.235 148.239 165.542H147.448C147.479 165.122 147.561 164.709 147.693 164.314C147.843 163.929 148.044 163.569 148.288 163.247L146.889 163.266L146.847 162.577Z" fill="white"/>
<path d="M148.602 174.004L148.721 177.033H147.92L147.843 175.044C147.729 175.143 147.606 175.229 147.476 175.301C147.331 175.377 147.182 175.441 147.028 175.492L147 174.811C147.222 174.741 147.431 174.627 147.616 174.474C147.759 174.347 147.873 174.185 147.948 174L148.602 174.004Z" fill="white"/>
<path d="M150.473 176.475L149.028 176.494L149 175.813L150.375 174H151.075L151.145 175.832H151.494L151.522 176.475H151.173L151.197 177.033H150.497L150.473 176.475ZM150.448 175.832L150.41 174.895L149.686 175.84L150.448 175.832Z" fill="white"/>
<path d="M149.075 186.354L146.696 186.389C146.718 186.14 146.794 185.901 146.92 185.693C147.128 185.395 147.38 185.136 147.665 184.928C147.826 184.811 147.971 184.671 148.095 184.511C148.151 184.434 148.182 184.34 148.183 184.243C148.181 184.199 148.171 184.155 148.153 184.116C148.135 184.076 148.109 184.041 148.078 184.013C148.01 183.947 147.921 183.913 147.83 183.918C147.74 183.917 147.654 183.954 147.588 184.021C147.514 184.122 147.472 184.247 147.469 184.377L146.675 184.319C146.684 184.126 146.735 183.939 146.825 183.772C146.91 183.633 147.032 183.526 147.175 183.466C147.374 183.383 147.586 183.344 147.798 183.352C148.019 183.339 148.241 183.37 148.452 183.443C148.602 183.502 148.734 183.607 148.83 183.746C148.923 183.877 148.976 184.038 148.981 184.205C148.987 184.39 148.942 184.573 148.851 184.729C148.704 184.945 148.523 185.132 148.316 185.279C148.162 185.398 148.057 185.478 148.005 185.524L147.823 185.708H149.061L149.075 186.354Z" fill="white"/>
<path d="M151.09 183.298L151.209 186.328H150.408L150.331 184.342C150.222 184.437 150.104 184.522 149.981 184.595C149.837 184.671 149.687 184.735 149.534 184.786L149.506 184.105C149.728 184.036 149.936 183.923 150.121 183.772C150.264 183.643 150.378 183.48 150.454 183.294L151.09 183.298Z" fill="white"/>
<path d="M149.219 196.766L146.84 196.801C146.858 196.552 146.933 196.312 147.06 196.105C147.269 195.806 147.522 195.547 147.809 195.34C147.968 195.223 148.111 195.082 148.236 194.923C148.292 194.847 148.323 194.752 148.323 194.655C148.322 194.611 148.312 194.567 148.294 194.528C148.276 194.488 148.25 194.453 148.218 194.425C148.151 194.36 148.063 194.326 147.973 194.33C147.882 194.328 147.795 194.365 147.728 194.433C147.654 194.532 147.613 194.657 147.613 194.785L146.815 194.731C146.828 194.538 146.879 194.35 146.966 194.181C147.051 194.043 147.173 193.938 147.315 193.878C147.514 193.796 147.726 193.757 147.938 193.764C148.161 193.751 148.383 193.782 148.596 193.855C148.745 193.914 148.876 194.017 148.974 194.154C149.065 194.288 149.118 194.449 149.124 194.617C149.13 194.801 149.084 194.983 148.991 195.137C148.847 195.358 148.665 195.546 148.456 195.691C148.302 195.81 148.197 195.89 148.148 195.936C148.083 195.994 148.021 196.055 147.963 196.12H149.201L149.219 196.766Z" fill="white"/>
<path d="M149.971 195.156C149.862 195.103 149.766 195.024 149.688 194.926C149.61 194.816 149.563 194.683 149.555 194.544C149.551 194.42 149.579 194.297 149.634 194.188C149.689 194.08 149.771 193.99 149.87 193.928C150.081 193.791 150.324 193.724 150.569 193.737C150.867 193.709 151.166 193.784 151.423 193.951C151.51 194.014 151.582 194.098 151.633 194.197C151.685 194.296 151.715 194.407 151.72 194.521C151.728 194.656 151.695 194.791 151.626 194.903C151.561 195.006 151.478 195.094 151.381 195.16C151.521 195.224 151.642 195.328 151.731 195.462C151.81 195.586 151.855 195.732 151.86 195.883C151.867 196.022 151.841 196.161 151.787 196.287C151.733 196.413 151.651 196.522 151.549 196.606C151.443 196.684 151.324 196.739 151.199 196.766C151.051 196.802 150.899 196.82 150.748 196.82C150.511 196.834 150.273 196.799 150.048 196.717C149.896 196.654 149.765 196.542 149.674 196.395C149.584 196.252 149.534 196.083 149.53 195.909C149.518 195.754 149.553 195.598 149.628 195.466C149.709 195.324 149.829 195.216 149.971 195.156ZM150.321 195.848C150.324 195.97 150.37 196.085 150.45 196.17C150.484 196.209 150.526 196.24 150.572 196.26C150.617 196.28 150.667 196.29 150.716 196.288C150.764 196.286 150.811 196.274 150.854 196.252C150.898 196.229 150.936 196.197 150.968 196.158C151.004 196.115 151.031 196.064 151.048 196.009C151.065 195.953 151.071 195.895 151.066 195.837C151.067 195.777 151.056 195.717 151.034 195.662C151.012 195.606 150.98 195.556 150.94 195.515C150.906 195.475 150.864 195.443 150.818 195.422C150.771 195.401 150.721 195.391 150.671 195.393C150.623 195.394 150.577 195.405 150.533 195.426C150.49 195.447 150.451 195.477 150.419 195.515C150.381 195.56 150.352 195.613 150.334 195.67C150.315 195.727 150.307 195.788 150.31 195.848H150.321ZM150.321 194.563C150.321 194.61 150.33 194.656 150.348 194.699C150.365 194.742 150.39 194.78 150.422 194.812C150.492 194.877 150.582 194.91 150.674 194.903C150.715 194.905 150.756 194.897 150.793 194.88C150.831 194.864 150.866 194.839 150.895 194.808C150.922 194.775 150.943 194.736 150.957 194.694C150.97 194.652 150.975 194.607 150.972 194.563C150.963 194.495 150.939 194.431 150.9 194.377C150.862 194.323 150.811 194.282 150.753 194.257C150.694 194.232 150.631 194.224 150.569 194.235C150.507 194.246 150.449 194.274 150.401 194.318C150.37 194.349 150.345 194.387 150.328 194.429C150.311 194.471 150.303 194.517 150.303 194.563H150.321Z" fill="white"/>
<path d="M76.9555 163.457L77.0744 166.487H76.2732L76.1963 164.502C76.0866 164.598 75.9695 164.684 75.8464 164.758C75.7018 164.833 75.5521 164.896 75.3986 164.945L75.3706 164.268C75.5929 164.198 75.8016 164.084 75.9864 163.932C76.1365 163.805 76.2565 163.641 76.3362 163.453L76.9555 163.457Z" fill="white"/>
<path d="M75.9163 175.315C75.8072 175.263 75.7103 175.185 75.6329 175.086C75.5549 174.975 75.5087 174.842 75.5 174.703C75.4964 174.579 75.5238 174.456 75.5793 174.347C75.6348 174.239 75.7162 174.149 75.8149 174.087C76.026 173.95 76.2692 173.884 76.5146 173.896C76.8131 173.867 77.1124 173.943 77.3682 174.114C77.4551 174.176 77.5274 174.26 77.5791 174.358C77.6307 174.456 77.6604 174.567 77.6656 174.68C77.6738 174.816 77.6405 174.95 77.5711 175.063C77.505 175.166 77.4205 175.253 77.3227 175.319C77.462 175.383 77.5829 175.488 77.6726 175.621C77.7516 175.745 77.7965 175.891 77.802 176.042C77.8093 176.187 77.7816 176.332 77.7216 176.463C77.6668 176.581 77.5878 176.685 77.4907 176.765C77.3852 176.844 77.2662 176.898 77.1408 176.925C76.9927 176.962 76.8413 176.979 76.6895 176.979C76.4527 176.993 76.2156 176.959 75.9898 176.88C75.8382 176.814 75.7079 176.701 75.6154 176.554C75.5227 176.403 75.4739 176.224 75.4755 176.042C75.4635 175.886 75.4978 175.731 75.5735 175.598C75.6578 175.467 75.7777 175.368 75.9163 175.315ZM76.2662 176.007C76.2691 176.129 76.3155 176.244 76.3956 176.329C76.4662 176.406 76.5616 176.45 76.6615 176.451C76.7091 176.448 76.7556 176.435 76.7983 176.412C76.8411 176.389 76.879 176.357 76.9099 176.317C76.9469 176.275 76.9751 176.224 76.9926 176.169C77.0101 176.113 77.0165 176.054 77.0114 175.996C77.012 175.936 77.0011 175.876 76.9794 175.821C76.9577 175.765 76.9257 175.716 76.8854 175.675C76.8512 175.634 76.8094 175.602 76.763 175.581C76.7165 175.56 76.6663 175.55 76.616 175.552C76.5687 175.553 76.5219 175.564 76.4786 175.585C76.4353 175.606 76.3964 175.637 76.3641 175.675C76.3271 175.719 76.2985 175.771 76.2799 175.827C76.2612 175.884 76.253 175.944 76.2557 176.004L76.2662 176.007ZM76.2662 174.722C76.2663 174.769 76.2754 174.815 76.2929 174.858C76.3104 174.901 76.3358 174.939 76.3676 174.971C76.4373 175.036 76.5278 175.069 76.6195 175.063C76.6602 175.064 76.7008 175.057 76.7386 175.04C76.7763 175.023 76.8104 174.998 76.8386 174.966C76.8667 174.934 76.8882 174.895 76.9017 174.853C76.9152 174.811 76.9204 174.767 76.9169 174.722C76.9088 174.654 76.8842 174.59 76.8457 174.536C76.8071 174.482 76.7561 174.441 76.6979 174.416C76.6396 174.391 76.5763 174.383 76.5146 174.394C76.4528 174.405 76.3948 174.434 76.3466 174.477C76.3151 174.507 76.29 174.544 76.273 174.586C76.2561 174.628 76.2478 174.673 76.2487 174.718L76.2662 174.722Z" fill="white"/>
<path d="M76.1753 184.289L76.2942 187.322H75.4895L75.4126 185.337C75.3037 185.434 75.1865 185.52 75.0627 185.593C74.9183 185.669 74.7686 185.732 74.6149 185.781L74.5869 185.104C74.8092 185.033 75.0179 184.919 75.2027 184.767C75.353 184.642 75.4731 184.48 75.5525 184.293L76.1753 184.289Z" fill="white"/>
<path d="M77.3577 184.327L79.2399 184.3L79.2679 184.962H77.9909L77.942 185.41C78.0253 185.368 78.112 185.335 78.2008 185.31C78.2834 185.288 78.3678 185.275 78.4527 185.272C78.7082 185.259 78.9585 185.354 79.1525 185.536C79.2426 185.619 79.3154 185.723 79.3661 185.84C79.4167 185.956 79.4441 186.084 79.4463 186.213C79.4549 186.414 79.4126 186.614 79.3239 186.79C79.247 186.961 79.1252 187.102 78.974 187.196C78.7744 187.3 78.555 187.351 78.3338 187.345C78.1716 187.35 78.0094 187.334 77.851 187.295C77.726 187.267 77.6073 187.212 77.5011 187.135C77.4089 187.068 77.3283 186.984 77.2632 186.886C77.1944 186.779 77.1402 186.662 77.1023 186.538L77.9 186.435C77.9159 186.552 77.9677 186.66 78.0469 186.741C78.1186 186.808 78.2111 186.844 78.3058 186.84C78.3569 186.841 78.4075 186.829 78.4541 186.806C78.5006 186.783 78.542 186.749 78.5752 186.706C78.6394 186.59 78.6706 186.455 78.665 186.319C78.6594 186.182 78.6172 186.051 78.5437 185.941C78.505 185.9 78.4589 185.868 78.4084 185.847C78.3578 185.826 78.3039 185.816 78.2498 185.819C78.173 185.82 78.0975 185.841 78.0294 185.88C77.9657 185.922 77.9089 185.975 77.8615 186.037L77.1828 185.945L77.3577 184.327Z" fill="white"/>
<path d="M77.3436 197.719L74.9681 197.753C74.986 197.504 75.0619 197.265 75.1885 197.057C75.3968 196.759 75.6485 196.501 75.9337 196.292C76.0944 196.176 76.2392 196.036 76.364 195.875C76.4205 195.8 76.4513 195.705 76.4515 195.607C76.4502 195.563 76.4402 195.52 76.4221 195.48C76.404 195.44 76.3782 195.406 76.3465 195.378C76.2792 195.313 76.1915 195.279 76.1016 195.282C76.0108 195.281 75.923 195.318 75.8567 195.386C75.7824 195.485 75.7416 195.609 75.7413 195.737L74.9436 195.684C74.9546 195.49 75.006 195.302 75.094 195.133C75.1789 194.995 75.3012 194.889 75.4439 194.831C75.6425 194.748 75.8542 194.709 76.0666 194.716C76.288 194.703 76.5096 194.735 76.7209 194.808C76.8709 194.866 77.0022 194.971 77.0987 195.11C77.193 195.242 77.2469 195.402 77.2527 195.569C77.2578 195.754 77.2114 195.937 77.1197 196.093C76.9742 196.312 76.7927 196.498 76.5844 196.644C76.4305 196.763 76.3255 196.843 76.2731 196.889C76.2095 196.946 76.1488 197.008 76.0911 197.072H77.3296L77.3436 197.719Z" fill="white"/>
<path d="M80.0026 197.684L77.627 197.715C77.6455 197.468 77.7214 197.229 77.8474 197.023C78.0557 196.725 78.3075 196.466 78.5926 196.258C78.7533 196.141 78.8982 196.001 79.023 195.841C79.0794 195.765 79.1103 195.671 79.1104 195.573C79.1088 195.528 79.0986 195.484 79.0805 195.444C79.0624 195.404 79.0369 195.368 79.0055 195.34C78.9355 195.277 78.8473 195.245 78.7571 195.248C78.7124 195.245 78.6678 195.253 78.6262 195.271C78.5846 195.289 78.5469 195.316 78.5157 195.351C78.4408 195.45 78.4 195.575 78.4002 195.703L77.6025 195.649C77.6113 195.455 77.6629 195.266 77.753 195.099C77.8386 194.96 77.9606 194.854 78.1028 194.793C78.3022 194.713 78.5135 194.676 78.7256 194.682C78.9469 194.669 79.1686 194.7 79.3798 194.773C79.5296 194.831 79.661 194.934 79.7577 195.072C79.8504 195.205 79.9029 195.367 79.9081 195.535C79.9151 195.719 79.8699 195.9 79.7787 196.055C79.6325 196.274 79.4511 196.462 79.2434 196.61C79.0894 196.724 78.9845 196.808 78.932 196.854C78.8684 196.912 78.8077 196.973 78.7501 197.038H79.9886L80.0026 197.684Z" fill="white"/>
<path d="M77.7531 208.127L75.3741 208.158C75.3926 207.91 75.4684 207.672 75.5945 207.465C75.8033 207.166 76.0563 206.908 76.3432 206.7C76.5022 206.583 76.6458 206.443 76.77 206.283C76.8265 206.208 76.8573 206.113 76.8575 206.015C76.8562 205.971 76.8462 205.928 76.8281 205.888C76.81 205.848 76.7842 205.814 76.7525 205.786C76.6852 205.721 76.5975 205.687 76.5076 205.69C76.4625 205.688 76.4175 205.696 76.3754 205.714C76.3332 205.732 76.2949 205.759 76.2627 205.794C76.1884 205.893 76.1476 206.017 76.1473 206.146L75.3496 206.092C75.3606 205.898 75.4121 205.71 75.5 205.541C75.5865 205.404 75.7082 205.297 75.8499 205.235C76.0493 205.156 76.2605 205.118 76.4727 205.124C76.694 205.112 76.9156 205.143 77.1269 205.216C77.2761 205.274 77.4071 205.378 77.5047 205.514C77.5985 205.648 77.6523 205.809 77.6587 205.977C77.6644 206.161 77.618 206.343 77.5257 206.497C77.3815 206.718 77.1998 206.906 76.9904 207.052C76.8365 207.167 76.7315 207.251 76.6791 207.297C76.6266 207.343 76.5671 207.404 76.4971 207.48H77.7356L77.7531 208.127Z" fill="white"/>
<path d="M78.0993 207.446L78.883 207.331C78.897 207.424 78.9374 207.51 78.9984 207.576C79.0494 207.622 79.1141 207.647 79.1804 207.645C79.2417 207.644 79.3017 207.625 79.3531 207.588C79.4046 207.551 79.4454 207.5 79.4708 207.438C79.5374 207.236 79.5683 207.022 79.5617 206.807C79.4823 206.902 79.3874 206.98 79.2818 207.037C79.1712 207.088 79.0521 207.114 78.932 207.113C78.6857 207.118 78.4477 207.017 78.27 206.83C78.0923 206.644 77.9894 206.388 77.9839 206.119C77.9725 205.93 78.0114 205.741 78.0958 205.576C78.1745 205.412 78.2964 205.279 78.4457 205.193C78.6281 205.099 78.8283 205.053 79.0299 205.059C79.2706 205.044 79.5109 205.094 79.7296 205.205C79.9153 205.314 80.0664 205.482 80.1635 205.686C80.287 205.96 80.3516 206.261 80.3524 206.566C80.4043 206.986 80.3052 207.411 80.076 207.752C79.9616 207.882 79.823 207.983 79.6697 208.049C79.5164 208.115 79.3519 208.144 79.1874 208.135C79.0053 208.146 78.8228 208.121 78.6486 208.062C78.5165 208.014 78.3967 207.933 78.2987 207.825C78.2101 207.714 78.1423 207.585 78.0993 207.446ZM79.4987 206.096C79.5008 206.026 79.4901 205.956 79.4673 205.89C79.4445 205.824 79.41 205.764 79.3658 205.713C79.3307 205.668 79.2865 205.633 79.2368 205.609C79.187 205.586 79.1329 205.576 79.0789 205.579C79.0299 205.578 78.9812 205.589 78.9364 205.61C78.8916 205.632 78.8518 205.665 78.82 205.706C78.7464 205.816 78.7151 205.953 78.7326 206.088C78.7281 206.228 78.7718 206.364 78.855 206.471C78.8889 206.513 78.931 206.547 78.9782 206.569C79.0253 206.591 79.0765 206.602 79.1279 206.601C79.1796 206.602 79.2309 206.59 79.2781 206.567C79.3253 206.544 79.3672 206.51 79.4008 206.467C79.4401 206.417 79.4697 206.36 79.4878 206.297C79.5059 206.235 79.512 206.169 79.5057 206.103L79.4987 206.096Z" fill="white"/>
<path d="M89.4279 166.322L87.0489 166.353C87.0674 166.104 87.1432 165.865 87.2693 165.657C87.4781 165.358 87.7311 165.099 88.018 164.892C88.177 164.775 88.3206 164.634 88.4448 164.475C88.5018 164.399 88.5327 164.305 88.5323 164.207C88.5304 164.163 88.52 164.12 88.502 164.08C88.4839 164.041 88.4585 164.006 88.4273 163.977C88.3594 163.914 88.2718 163.881 88.1824 163.886C88.0921 163.883 88.0044 163.919 87.9375 163.985C87.8632 164.086 87.8225 164.211 87.8221 164.341L87.0244 164.283C87.0364 164.091 87.0878 163.904 87.1749 163.736C87.2603 163.598 87.3824 163.491 87.5247 163.43C87.7234 163.348 87.935 163.309 88.1475 163.316C88.3688 163.303 88.5904 163.334 88.8017 163.408C88.9527 163.464 89.0845 163.569 89.1795 163.71C89.2732 163.842 89.327 164.002 89.3335 164.169C89.339 164.354 89.2926 164.537 89.2005 164.693C89.056 164.912 88.8743 165.099 88.6652 165.244C88.5113 165.362 88.4063 165.442 88.3539 165.492L88.1719 165.672H89.4104L89.4279 166.322Z" fill="white"/>
<path d="M88.1473 184.132L88.2663 187.161H87.4616L87.3847 185.176C87.2694 185.272 87.1464 185.357 87.0173 185.429C86.8738 185.507 86.7238 185.571 86.5695 185.62L86.5415 184.939C86.7635 184.87 86.9722 184.757 87.1573 184.606C87.3066 184.479 87.4265 184.315 87.5071 184.128L88.1473 184.132Z" fill="white"/>
<path d="M91.3312 184.813L90.5475 184.924C90.532 184.831 90.4918 184.746 90.432 184.679C90.3811 184.633 90.3164 184.608 90.2501 184.61C90.1883 184.611 90.1279 184.631 90.0763 184.668C90.0247 184.705 89.9842 184.758 89.9597 184.82C89.8926 185.021 89.8617 185.234 89.8688 185.448C89.9485 185.353 90.0449 185.276 90.1522 185.222C90.2623 185.169 90.3815 185.141 90.502 185.142C90.7463 185.137 90.9825 185.237 91.1598 185.421C91.2497 185.513 91.3218 185.623 91.3717 185.746C91.4216 185.869 91.4483 186.002 91.4501 186.136C91.4603 186.325 91.4215 186.514 91.3382 186.679C91.2606 186.844 91.1384 186.977 90.9883 187.062C90.8045 187.156 90.6033 187.202 90.4006 187.196C90.1603 187.211 89.9202 187.163 89.7008 187.054C89.5165 186.944 89.3666 186.776 89.2705 186.572C89.1466 186.297 89.082 185.995 89.0816 185.689C89.0297 185.269 89.1288 184.844 89.358 184.503C89.4718 184.373 89.6097 184.272 89.7624 184.206C89.9152 184.14 90.0791 184.111 90.2431 184.12C90.4264 184.109 90.61 184.134 90.7854 184.193C90.9172 184.242 91.037 184.323 91.1353 184.43C91.2235 184.542 91.2902 184.672 91.3312 184.813ZM89.9318 186.159C89.929 186.229 89.9391 186.299 89.9613 186.365C89.9835 186.43 90.0175 186.491 90.0612 186.542C90.0983 186.586 90.1439 186.621 90.1946 186.644C90.2454 186.667 90.3001 186.678 90.3551 186.676C90.4036 186.677 90.4517 186.666 90.4958 186.644C90.54 186.622 90.5792 186.59 90.6105 186.549C90.6846 186.439 90.7172 186.302 90.7014 186.167C90.7039 186.027 90.6591 185.891 90.5755 185.784C90.5404 185.743 90.498 185.71 90.4507 185.687C90.4034 185.665 90.3524 185.653 90.3009 185.653C90.2493 185.653 90.1983 185.665 90.151 185.687C90.1037 185.71 90.0613 185.743 90.0262 185.784C89.9867 185.836 89.9572 185.896 89.9398 185.96C89.9223 186.025 89.9172 186.093 89.9248 186.159H89.9318Z" fill="white"/>
<path d="M89.3195 197.562L86.9405 197.593C86.959 197.344 87.0348 197.104 87.1609 196.896C87.3706 196.598 87.6235 196.34 87.9096 196.131C88.0684 196.016 88.212 195.877 88.3364 195.718C88.3929 195.643 88.4238 195.548 88.4239 195.451C88.4222 195.406 88.412 195.362 88.394 195.322C88.3759 195.282 88.3503 195.246 88.3189 195.217C88.2511 195.153 88.1634 195.121 88.074 195.125C88.0289 195.123 87.9839 195.131 87.9418 195.149C87.8996 195.167 87.8613 195.194 87.8291 195.229C87.7543 195.328 87.7135 195.452 87.7137 195.581L86.916 195.523C86.928 195.331 86.9794 195.144 87.0665 194.976C87.1519 194.838 87.274 194.731 87.4163 194.67C87.6148 194.587 87.8267 194.549 88.0391 194.559C88.2602 194.546 88.4818 194.575 88.6933 194.647C88.8444 194.704 88.9761 194.809 89.0711 194.949C89.1642 195.082 89.2179 195.242 89.2251 195.408C89.2306 195.594 89.1842 195.777 89.0921 195.932C88.9485 196.153 88.7666 196.34 88.5568 196.483C88.4029 196.602 88.298 196.686 88.2455 196.732C88.193 196.778 88.1335 196.839 88.0635 196.916L89.302 196.896L89.3195 197.562Z" fill="white"/>
<path d="M90.3411 195.427L89.5889 195.297C89.6341 195.063 89.7592 194.857 89.9387 194.72C90.1626 194.571 90.422 194.498 90.6839 194.509C90.9688 194.482 91.2544 194.554 91.4991 194.716C91.5797 194.778 91.6459 194.86 91.6927 194.955C91.7394 195.05 91.7654 195.155 91.7685 195.263C91.7754 195.386 91.7446 195.509 91.681 195.611C91.6058 195.729 91.5048 195.825 91.3871 195.89C91.4758 195.91 91.5617 195.942 91.6425 195.986C91.736 196.043 91.8153 196.125 91.8734 196.223C91.9311 196.331 91.9635 196.454 91.9679 196.579C91.9742 196.754 91.9354 196.928 91.8559 197.08C91.7784 197.244 91.6561 197.378 91.5061 197.462C91.3047 197.56 91.086 197.607 90.8658 197.6C90.6574 197.611 90.4489 197.581 90.2501 197.512C90.1041 197.456 89.9731 197.362 89.8688 197.237C89.7611 197.103 89.6791 196.947 89.6274 196.778L90.4145 196.659C90.4358 196.788 90.4905 196.908 90.572 197.003C90.6447 197.066 90.735 197.098 90.8274 197.095C90.8768 197.096 90.9257 197.085 90.9709 197.063C91.0162 197.041 91.0567 197.009 91.0898 196.969C91.1242 196.924 91.1501 196.873 91.1657 196.817C91.1813 196.761 91.1864 196.702 91.1807 196.644C91.1823 196.585 91.1729 196.526 91.153 196.47C91.1332 196.415 91.1033 196.365 91.0653 196.323C91.0277 196.285 90.9836 196.256 90.9354 196.237C90.8873 196.219 90.8362 196.212 90.7854 196.215C90.6986 196.219 90.6127 196.236 90.53 196.265V195.672H90.6349C90.7195 195.674 90.802 195.644 90.8693 195.588C90.9008 195.557 90.9255 195.518 90.9419 195.475C90.9582 195.432 90.9657 195.386 90.9638 195.34C90.9633 195.299 90.9553 195.258 90.9403 195.221C90.9252 195.183 90.9035 195.15 90.8763 195.121C90.8158 195.066 90.7381 195.039 90.6594 195.045C90.6184 195.043 90.5773 195.05 90.5388 195.066C90.5003 195.081 90.4651 195.106 90.4355 195.137C90.3779 195.221 90.3449 195.322 90.3411 195.427Z" fill="white"/>
<path d="M88.0704 205.87L87.3147 205.74C87.3609 205.506 87.4858 205.3 87.6646 205.162C87.9058 205.027 88.1733 204.956 88.4447 204.956C88.7161 204.956 88.9836 205.027 89.2249 205.162C89.3055 205.224 89.372 205.305 89.4193 205.399C89.4667 205.493 89.4935 205.598 89.4978 205.706C89.5029 205.829 89.4723 205.951 89.4103 206.054C89.3329 206.171 89.2309 206.267 89.113 206.333C89.2027 206.352 89.2897 206.384 89.3719 206.429C89.4656 206.487 89.5448 206.57 89.6028 206.67C89.6623 206.777 89.6938 206.9 89.6937 207.025C89.7006 207.205 89.6597 207.383 89.5759 207.538C89.492 207.693 89.3689 207.818 89.2214 207.897C89.0214 207.995 88.8037 208.042 88.5847 208.035C88.3751 208.046 88.1654 208.016 87.9654 207.947C87.8194 207.891 87.6884 207.797 87.5841 207.672C87.475 207.539 87.3928 207.383 87.3427 207.213L88.1299 207.094C88.1508 207.224 88.2068 207.344 88.2908 207.438C88.3605 207.504 88.451 207.537 88.5427 207.53C88.5923 207.532 88.6417 207.522 88.6871 207.5C88.7326 207.478 88.7729 207.445 88.8051 207.404C88.8743 207.313 88.9082 207.197 88.8996 207.079C88.8993 206.96 88.8581 206.845 88.7841 206.758C88.7458 206.72 88.701 206.691 88.6523 206.673C88.6037 206.654 88.5521 206.647 88.5007 206.65C88.4139 206.654 88.328 206.671 88.2453 206.7V206.111H88.3503C88.4448 206.112 88.5361 206.074 88.6057 206.004C88.6373 205.973 88.6622 205.934 88.6785 205.891C88.6949 205.848 88.7023 205.802 88.7001 205.755C88.7004 205.715 88.6927 205.675 88.6777 205.638C88.6626 205.601 88.6404 205.568 88.6127 205.541C88.5503 205.486 88.4725 205.456 88.3923 205.456C88.312 205.456 88.2342 205.486 88.1718 205.541C88.1038 205.634 88.0679 205.751 88.0704 205.87Z" fill="white"/>
<path d="M89.9913 206.463C89.9335 206.046 90.0209 205.62 90.2362 205.269C90.3516 205.147 90.4895 205.052 90.6408 204.991C90.7922 204.93 90.9535 204.905 91.1143 204.918C91.2754 204.909 91.4366 204.932 91.5901 204.986C91.7041 205.026 91.8099 205.09 91.9015 205.174C91.9761 205.246 92.0409 205.33 92.0939 205.422C92.1458 205.518 92.1858 205.621 92.2129 205.729C92.2758 205.953 92.3123 206.186 92.3213 206.421C92.369 206.833 92.2929 207.25 92.1044 207.61C91.9945 207.747 91.8567 207.852 91.7022 207.919C91.5477 207.985 91.381 208.011 91.2158 207.993C91.0144 208.005 90.8131 207.966 90.628 207.878C90.4769 207.801 90.3467 207.683 90.2502 207.534C90.1664 207.398 90.1059 207.246 90.0717 207.086C90.0242 206.882 89.9972 206.673 89.9913 206.463ZM90.7785 206.463C90.7731 206.725 90.8159 206.985 90.9044 207.228C90.9286 207.289 90.9687 207.341 91.0198 207.377C91.0708 207.413 91.1305 207.432 91.1913 207.431C91.2296 207.431 91.2676 207.424 91.3031 207.408C91.3386 207.392 91.3707 207.369 91.3977 207.339C91.4619 207.261 91.5033 207.164 91.5166 207.06C91.5407 206.862 91.5466 206.662 91.5341 206.463C91.5427 206.191 91.4999 205.92 91.4082 205.667C91.3815 205.606 91.3393 205.554 91.2866 205.518C91.2339 205.483 91.1729 205.464 91.1108 205.465C91.0498 205.463 90.9899 205.483 90.9401 205.522C90.8903 205.56 90.8532 205.615 90.8344 205.679C90.7699 205.931 90.7509 206.195 90.7785 206.455V206.463Z" fill="white"/>
<path d="M99.7486 164.065L98.9929 163.935C99.0374 163.701 99.1627 163.494 99.3428 163.358C99.5653 163.205 99.8257 163.132 100.088 163.147C100.373 163.12 100.658 163.192 100.903 163.354C100.984 163.416 101.05 163.497 101.097 163.591C101.145 163.685 101.171 163.79 101.176 163.897C101.181 164.022 101.151 164.145 101.089 164.249C101.01 164.366 100.908 164.461 100.791 164.528C100.881 164.546 100.969 164.578 101.05 164.624C101.144 164.68 101.224 164.762 101.281 164.861C101.34 164.969 101.371 165.091 101.372 165.217C101.38 165.392 101.341 165.566 101.26 165.718C101.183 165.882 101.06 166.016 100.91 166.1C100.711 166.201 100.493 166.249 100.273 166.238C100.05 166.249 99.827 166.214 99.6157 166.135C99.4703 166.078 99.3395 165.983 99.2343 165.859C99.1267 165.726 99.0446 165.569 98.9929 165.4L99.7801 165.278C99.7993 165.408 99.8556 165.529 99.941 165.622C100.01 165.689 100.101 165.724 100.193 165.718C100.242 165.718 100.291 165.707 100.336 165.686C100.382 165.664 100.422 165.632 100.455 165.592C100.52 165.498 100.554 165.382 100.55 165.264C100.546 165.147 100.505 165.034 100.434 164.945C100.396 164.907 100.352 164.877 100.303 164.858C100.254 164.839 100.203 164.831 100.151 164.834C100.064 164.84 99.9782 164.858 99.8956 164.888V164.295C99.9305 164.298 99.9656 164.298 100.001 164.295C100.047 164.297 100.094 164.288 100.138 164.27C100.182 164.251 100.222 164.224 100.256 164.188C100.287 164.157 100.312 164.119 100.328 164.077C100.345 164.035 100.352 163.989 100.35 163.943C100.351 163.902 100.343 163.861 100.328 163.824C100.313 163.786 100.291 163.753 100.263 163.725C100.203 163.669 100.125 163.64 100.046 163.645C99.9638 163.646 99.8845 163.678 99.8221 163.736C99.764 163.834 99.738 163.95 99.7486 164.065Z" fill="white"/>
<path d="M99.6023 174L99.7213 177.033H98.9201L98.8432 175.044C98.7287 175.143 98.6057 175.229 98.4758 175.301C98.3308 175.378 98.1798 175.441 98.0245 175.488L98 174.811C98.2223 174.741 98.431 174.627 98.6157 174.474C98.7586 174.346 98.8724 174.184 98.9481 174H99.6023Z" fill="white"/>
<path d="M100.017 175.548C99.9596 175.131 100.047 174.705 100.262 174.355C100.378 174.232 100.516 174.137 100.667 174.076C100.818 174.016 100.98 173.991 101.14 174.003C101.301 173.998 101.462 174.022 101.616 174.072C101.73 174.114 101.836 174.178 101.928 174.263C102.002 174.334 102.067 174.417 102.12 174.508C102.171 174.604 102.211 174.707 102.239 174.814C102.302 175.039 102.338 175.271 102.347 175.506C102.394 175.919 102.318 176.338 102.131 176.7C102.021 176.836 101.883 176.941 101.728 177.008C101.574 177.074 101.407 177.1 101.242 177.082C101.041 177.094 100.84 177.056 100.654 176.971C100.504 176.892 100.374 176.772 100.276 176.623C100.191 176.488 100.131 176.336 100.098 176.176C100.05 175.97 100.023 175.76 100.017 175.548ZM100.801 175.548C100.798 175.81 100.842 176.07 100.931 176.313C100.955 176.374 100.995 176.426 101.046 176.462C101.097 176.498 101.157 176.517 101.217 176.516C101.294 176.517 101.368 176.485 101.424 176.428C101.487 176.348 101.528 176.25 101.543 176.145C101.567 175.947 101.573 175.747 101.56 175.548C101.567 175.277 101.524 175.006 101.434 174.753C101.405 174.693 101.363 174.643 101.311 174.608C101.258 174.572 101.198 174.552 101.137 174.55C101.076 174.548 101.016 174.568 100.966 174.607C100.916 174.646 100.879 174.701 100.861 174.764C100.791 175.016 100.767 175.279 100.787 175.541L100.801 175.548Z" fill="white"/>
<path d="M105 175C105 177.209 102.985 179 100.5 179C98.0147 179 96 177.209 96 175C96 172.791 98.0147 171 100.5 171C102.985 171 105 172.791 105 175ZM96.5276 175C96.5276 176.95 98.3061 178.531 100.5 178.531C102.694 178.531 104.472 176.95 104.472 175C104.472 173.05 102.694 171.469 100.5 171.469C98.3061 171.469 96.5276 173.05 96.5276 175Z" fill="#4E4DA2"/>
<path d="M104.754 175C104.89 175 105.001 175.11 104.992 175.245C104.937 176.037 104.618 176.798 104.074 177.431C103.473 178.129 102.63 178.631 101.676 178.861C100.722 179.091 99.7091 179.035 98.7943 178.702C97.8795 178.368 97.1135 177.777 96.6148 177.018C96.116 176.259 95.9121 175.376 96.0347 174.504C96.1573 173.632 96.5995 172.82 97.293 172.194C97.9865 171.568 98.8927 171.162 99.8716 171.039C100.767 170.927 101.677 171.057 102.485 171.41C102.606 171.463 102.647 171.612 102.576 171.724V171.724C102.515 171.821 102.39 171.856 102.285 171.809C101.561 171.489 100.744 171.371 99.9402 171.471C99.0682 171.581 98.2609 171.942 97.6431 172.5C97.0252 173.058 96.6313 173.781 96.5221 174.558C96.4129 175.335 96.5944 176.122 97.0388 176.798C97.4831 177.474 98.1655 178.001 98.9805 178.298C99.7954 178.594 100.698 178.644 101.548 178.44C102.398 178.235 103.148 177.787 103.684 177.166C104.163 176.609 104.445 175.941 104.499 175.245C104.51 175.11 104.619 175 104.754 175V175Z" fill="url(#paint2_linear_101_534)"/>
<path d="M96.0024 175.147C95.93 172.94 97.8849 171.084 100.369 171.002C102.853 170.921 104.925 172.645 104.998 174.852C105.07 177.06 103.115 178.916 100.631 178.998C98.1471 179.079 96.0748 177.355 96.0024 175.147ZM104.47 174.87C104.406 172.921 102.577 171.399 100.384 171.471C98.1916 171.543 96.4658 173.181 96.5298 175.13C96.5937 177.079 98.423 178.601 100.616 178.529C102.808 178.457 104.534 176.819 104.47 174.87Z" fill="#4E4DA2"/>
<path d="M96.2478 175.139C96.1123 175.144 95.9979 175.037 96.0028 174.902C96.0316 174.109 96.3249 173.338 96.8485 172.688C97.4261 171.97 98.2518 171.44 99.198 171.18C100.144 170.919 101.158 170.942 102.083 171.245C103.009 171.547 103.794 172.114 104.317 172.856C104.84 173.597 105.073 174.474 104.979 175.349C104.885 176.225 104.47 177.051 103.797 177.699C103.125 178.348 102.232 178.783 101.258 178.938C100.367 179.08 99.453 178.979 98.6341 178.653C98.5109 178.604 98.4649 178.456 98.5322 178.342V178.342C98.5905 178.243 98.7142 178.205 98.8209 178.248C99.5547 178.544 100.375 178.635 101.175 178.508C102.043 178.37 102.838 177.983 103.437 177.405C104.037 176.827 104.407 176.091 104.49 175.311C104.574 174.531 104.367 173.751 103.9 173.09C103.434 172.429 102.735 171.924 101.911 171.654C101.086 171.385 100.183 171.364 99.3401 171.597C98.4972 171.829 97.7616 172.301 97.2471 172.94C96.7865 173.512 96.5259 174.189 96.4947 174.886C96.4887 175.021 96.3834 175.135 96.2478 175.139V175.139Z" fill="url(#paint3_linear_101_534)"/>
<path d="M142 175C142 177.209 139.985 179 137.5 179C135.015 179 133 177.209 133 175C133 172.791 135.015 171 137.5 171C139.985 171 142 172.791 142 175ZM133.528 175C133.528 176.95 135.306 178.531 137.5 178.531C139.694 178.531 141.472 176.95 141.472 175C141.472 173.05 139.694 171.469 137.5 171.469C135.306 171.469 133.528 173.05 133.528 175Z" fill="#4E4DA2"/>
<path d="M141.754 175C141.89 175 142.001 175.11 141.992 175.245C141.937 176.037 141.618 176.798 141.074 177.431C140.473 178.129 139.63 178.631 138.676 178.861C137.722 179.091 136.709 179.035 135.794 178.702C134.88 178.368 134.114 177.777 133.615 177.018C133.116 176.259 132.912 175.376 133.035 174.504C133.157 173.632 133.6 172.82 134.293 172.194C134.987 171.568 135.893 171.162 136.872 171.039C137.767 170.927 138.677 171.057 139.485 171.41C139.606 171.463 139.647 171.612 139.576 171.724V171.724C139.515 171.821 139.39 171.856 139.285 171.809C138.561 171.489 137.744 171.371 136.94 171.471C136.068 171.581 135.261 171.942 134.643 172.5C134.025 173.058 133.631 173.781 133.522 174.558C133.413 175.335 133.594 176.122 134.039 176.798C134.483 177.474 135.166 178.001 135.98 178.298C136.795 178.594 137.698 178.644 138.548 178.44C139.398 178.235 140.148 177.787 140.684 177.166C141.163 176.609 141.445 175.941 141.499 175.245C141.51 175.11 141.619 175 141.754 175V175Z" fill="url(#paint4_linear_101_534)"/>
<path d="M154 175C154 177.209 151.985 179 149.5 179C147.015 179 145 177.209 145 175C145 172.791 147.015 171 149.5 171C151.985 171 154 172.791 154 175ZM145.528 175C145.528 176.95 147.306 178.531 149.5 178.531C151.694 178.531 153.472 176.95 153.472 175C153.472 173.05 151.694 171.469 149.5 171.469C147.306 171.469 145.528 173.05 145.528 175Z" fill="#4E4DA2"/>
<path d="M153.754 175C153.89 175 154.001 175.11 153.992 175.245C153.937 176.037 153.618 176.798 153.074 177.431C152.473 178.129 151.63 178.631 150.676 178.861C149.722 179.091 148.709 179.035 147.794 178.702C146.88 178.368 146.114 177.777 145.615 177.018C145.116 176.259 144.912 175.376 145.035 174.504C145.157 173.632 145.6 172.82 146.293 172.194C146.987 171.568 147.893 171.162 148.872 171.039C149.767 170.927 150.677 171.057 151.485 171.41C151.606 171.463 151.647 171.612 151.576 171.724V171.724C151.515 171.821 151.39 171.856 151.285 171.809C150.561 171.489 149.744 171.371 148.94 171.471C148.068 171.581 147.261 171.942 146.643 172.5C146.025 173.058 145.631 173.781 145.522 174.558C145.413 175.335 145.594 176.122 146.039 176.798C146.483 177.474 147.166 178.001 147.98 178.298C148.795 178.594 149.698 178.644 150.548 178.44C151.398 178.235 152.148 177.787 152.684 177.166C153.163 176.609 153.445 175.941 153.499 175.245C153.51 175.11 153.619 175 153.754 175V175Z" fill="url(#paint5_linear_101_534)"/>
<path d="M130 175C130 177.209 127.985 179 125.5 179C123.015 179 121 177.209 121 175C121 172.791 123.015 171 125.5 171C127.985 171 130 172.791 130 175ZM121.528 175C121.528 176.95 123.306 178.531 125.5 178.531C127.694 178.531 129.472 176.95 129.472 175C129.472 173.05 127.694 171.469 125.5 171.469C123.306 171.469 121.528 173.05 121.528 175Z" fill="#4E4DA2"/>
<path d="M129.754 175C129.89 175 130.001 175.11 129.992 175.245C129.937 176.037 129.618 176.798 129.074 177.431C128.473 178.129 127.63 178.631 126.676 178.861C125.722 179.091 124.709 179.035 123.794 178.702C122.88 178.368 122.114 177.777 121.615 177.018C121.116 176.259 120.912 175.376 121.035 174.504C121.157 173.632 121.6 172.82 122.293 172.194C122.987 171.568 123.893 171.162 124.872 171.039C125.767 170.927 126.677 171.057 127.485 171.41C127.606 171.463 127.647 171.612 127.576 171.724V171.724C127.515 171.821 127.39 171.856 127.285 171.809C126.561 171.489 125.744 171.371 124.94 171.471C124.068 171.581 123.261 171.942 122.643 172.5C122.025 173.058 121.631 173.781 121.522 174.558C121.413 175.335 121.594 176.122 122.039 176.798C122.483 177.474 123.166 178.001 123.98 178.298C124.795 178.594 125.698 178.644 126.548 178.44C127.398 178.235 128.148 177.787 128.684 177.166C129.163 176.609 129.445 175.941 129.499 175.245C129.51 175.11 129.619 175 129.754 175V175Z" fill="url(#paint6_linear_101_534)"/>
<path d="M118 175C118 177.209 115.985 179 113.5 179C111.015 179 109 177.209 109 175C109 172.791 111.015 171 113.5 171C115.985 171 118 172.791 118 175ZM109.528 175C109.528 176.95 111.306 178.531 113.5 178.531C115.694 178.531 117.472 176.95 117.472 175C117.472 173.05 115.694 171.469 113.5 171.469C111.306 171.469 109.528 173.05 109.528 175Z" fill="#4E4DA2"/>
<path d="M117.754 175C117.89 175 118.001 175.11 117.992 175.245C117.937 176.037 117.618 176.798 117.074 177.431C116.473 178.129 115.63 178.631 114.676 178.861C113.722 179.091 112.709 179.035 111.794 178.702C110.88 178.368 110.114 177.777 109.615 177.018C109.116 176.259 108.912 175.376 109.035 174.504C109.157 173.632 109.6 172.82 110.293 172.194C110.987 171.568 111.893 171.162 112.872 171.039C113.767 170.927 114.677 171.057 115.485 171.41C115.606 171.463 115.647 171.612 115.576 171.724V171.724C115.515 171.821 115.39 171.856 115.285 171.809C114.561 171.489 113.744 171.371 112.94 171.471C112.068 171.581 111.261 171.942 110.643 172.5C110.025 173.058 109.631 173.781 109.522 174.558C109.413 175.335 109.594 176.122 110.039 176.798C110.483 177.474 111.166 178.001 111.98 178.298C112.795 178.594 113.698 178.644 114.548 178.44C115.398 178.235 116.148 177.787 116.684 177.166C117.163 176.609 117.445 175.941 117.499 175.245C117.51 175.11 117.619 175 117.754 175V175Z" fill="url(#paint7_linear_101_534)"/>
<path d="M100.141 183.971L100.26 187.005H99.4549L99.3779 185.019C99.269 185.117 99.1519 185.203 99.0281 185.276C98.8837 185.351 98.7339 185.414 98.5802 185.463L98.5522 184.786C98.7745 184.716 98.9832 184.602 99.168 184.449C99.3183 184.325 99.4384 184.162 99.5178 183.975L100.141 183.971Z" fill="white"/>
<path d="M101 184.031L103.316 184L103.337 184.558C103.152 184.74 102.99 184.948 102.858 185.178C102.703 185.459 102.585 185.763 102.508 186.081C102.44 186.379 102.401 186.684 102.392 186.991H101.602C101.633 186.571 101.716 186.158 101.85 185.763C102 185.379 102.199 185.019 102.441 184.696L101.042 184.715L101 184.031Z" fill="white"/>
<path d="M101.26 197.401L98.8812 197.436C98.8991 197.187 98.9749 196.947 99.1016 196.74C99.3104 196.441 99.5634 196.182 99.8503 195.975C100.009 195.858 100.153 195.717 100.277 195.558C100.334 195.482 100.365 195.388 100.365 195.29C100.363 195.246 100.353 195.202 100.335 195.163C100.316 195.123 100.291 195.088 100.26 195.06C100.192 194.995 100.105 194.961 100.015 194.965C99.9239 194.963 99.8361 195 99.7698 195.068C99.6955 195.169 99.6548 195.294 99.6544 195.424L98.8567 195.366C98.8687 195.174 98.9201 194.987 99.0071 194.819C99.0916 194.68 99.2139 194.573 99.357 194.513C99.5557 194.431 99.7673 194.392 99.9797 194.399C100.201 194.386 100.423 194.417 100.634 194.49C100.786 194.548 100.918 194.653 101.015 194.793C101.107 194.925 101.16 195.085 101.166 195.252C101.171 195.437 101.125 195.62 101.033 195.776C100.887 195.994 100.706 196.181 100.498 196.326C100.344 196.445 100.239 196.525 100.19 196.571L100.004 196.755H101.243L101.26 197.401Z" fill="white"/>
<path d="M102.939 196.824H101.495L101.467 196.143L102.841 194.33H103.541L103.615 196.162H103.965L103.989 196.805H103.639L103.66 197.359H102.96L102.939 196.824ZM102.911 196.181L102.876 195.244L102.149 196.193L102.911 196.181Z" fill="white"/>
<path d="M100.315 205.709L99.5632 205.579C99.6078 205.345 99.733 205.138 99.9131 205.002C100.136 204.849 100.396 204.775 100.658 204.791C100.943 204.764 101.229 204.836 101.473 204.998C101.554 205.059 101.62 205.141 101.667 205.235C101.713 205.329 101.739 205.434 101.743 205.541C101.75 205.666 101.719 205.789 101.655 205.893C101.58 206.011 101.479 206.107 101.361 206.172C101.451 206.19 101.537 206.222 101.617 206.268C101.711 206.324 101.791 206.406 101.848 206.505C101.905 206.613 101.938 206.735 101.942 206.861C101.949 207.036 101.91 207.21 101.83 207.362C101.753 207.526 101.63 207.66 101.48 207.744C101.279 207.842 101.06 207.889 100.84 207.882C100.632 207.891 100.424 207.861 100.224 207.794C100.078 207.738 99.9474 207.644 99.8431 207.519C99.7355 207.385 99.6534 207.229 99.6017 207.06L100.389 206.937C100.409 207.067 100.463 207.187 100.546 207.281C100.618 207.347 100.709 207.381 100.802 207.377C100.851 207.378 100.9 207.366 100.945 207.345C100.991 207.323 101.031 207.291 101.064 207.251C101.127 207.156 101.159 207.04 101.155 206.923C101.151 206.806 101.11 206.693 101.04 206.604C101.002 206.566 100.958 206.537 100.91 206.518C100.862 206.498 100.811 206.49 100.76 206.494C100.673 206.499 100.587 206.517 100.504 206.547V205.954C100.539 205.957 100.574 205.957 100.609 205.954C100.656 205.956 100.703 205.947 100.747 205.929C100.791 205.911 100.831 205.883 100.865 205.847C100.894 205.817 100.917 205.782 100.932 205.742C100.948 205.702 100.956 205.659 100.956 205.616C100.956 205.572 100.948 205.529 100.932 205.49C100.917 205.45 100.894 205.414 100.865 205.384C100.835 205.356 100.801 205.335 100.763 205.322C100.726 205.309 100.687 205.304 100.648 205.308C100.607 205.305 100.566 205.312 100.527 205.328C100.489 205.344 100.453 205.368 100.424 205.4C100.357 205.487 100.319 205.596 100.315 205.709Z" fill="white"/>
<path d="M103.975 204.768L104.094 207.798H103.293L103.212 205.813C103.097 205.909 102.974 205.993 102.845 206.065C102.701 206.142 102.551 206.206 102.397 206.256L102.369 205.576C102.591 205.505 102.8 205.391 102.985 205.239C103.136 205.115 103.256 204.952 103.335 204.765L103.975 204.768Z" fill="white"/>
<path d="M111.553 158.471L110.354 159.426C110.286 159.482 110.205 159.513 110.122 159.513C110.039 159.514 109.957 159.484 109.89 159.428C109.822 159.372 109.772 159.293 109.746 159.202C109.72 159.111 109.72 159.014 109.746 158.923L110.168 157.323C110.193 157.234 110.193 157.138 110.168 157.049C110.142 156.96 110.093 156.882 110.027 156.827L108.867 155.814C108.803 155.757 108.755 155.677 108.731 155.588C108.707 155.498 108.707 155.402 108.732 155.312C108.758 155.223 108.806 155.144 108.872 155.088C108.937 155.031 109.016 154.999 109.098 154.995H110.556C110.637 154.996 110.717 154.966 110.782 154.912C110.848 154.857 110.897 154.78 110.922 154.692L111.401 153.112C111.428 153.022 111.479 152.945 111.547 152.89C111.614 152.835 111.695 152.806 111.778 152.806C111.861 152.806 111.942 152.835 112.009 152.89C112.077 152.945 112.128 153.022 112.155 153.112L112.634 154.692C112.66 154.779 112.709 154.855 112.775 154.91C112.84 154.964 112.919 154.994 112.999 154.995H114.463C114.545 154.999 114.624 155.031 114.69 155.088C114.755 155.144 114.804 155.223 114.829 155.312C114.854 155.402 114.855 155.498 114.831 155.588C114.806 155.677 114.759 155.757 114.694 155.814L113.529 156.827C113.465 156.884 113.418 156.962 113.393 157.051C113.368 157.139 113.366 157.234 113.388 157.323L113.81 158.923C113.836 159.014 113.836 159.111 113.81 159.202C113.784 159.293 113.734 159.372 113.666 159.428C113.598 159.484 113.517 159.514 113.434 159.513C113.35 159.513 113.269 159.482 113.202 159.426L112.009 158.471C111.942 158.418 111.862 158.39 111.781 158.39C111.699 158.39 111.62 158.418 111.553 158.471Z" fill="#4E4DA2"/>
<path d="M99.7415 158.681L98.9963 159.247C98.9546 159.281 98.9042 159.299 98.8524 159.299C98.8006 159.299 98.7501 159.282 98.7081 159.249C98.6661 159.215 98.6348 159.169 98.6187 159.115C98.6026 159.061 98.6025 159.003 98.6185 158.949L98.8809 158C98.8965 157.948 98.8965 157.891 98.8808 157.838C98.8651 157.785 98.8345 157.739 98.7934 157.706L98.0727 157.105C98.0325 157.071 98.0028 157.024 97.9878 156.971C97.9728 156.918 97.9732 156.861 97.9888 156.808C98.0045 156.754 98.0347 156.708 98.0754 156.674C98.116 156.641 98.1652 156.622 98.2162 156.62H99.1223C99.1727 156.62 99.2219 156.603 99.2628 156.57C99.3037 156.538 99.3341 156.492 99.3497 156.44L99.6471 155.503C99.6641 155.45 99.6958 155.404 99.7378 155.371C99.7798 155.338 99.83 155.321 99.8815 155.321C99.933 155.321 99.9832 155.338 100.025 155.371C100.067 155.404 100.099 155.45 100.116 155.503L100.413 156.44C100.43 156.492 100.46 156.537 100.501 156.569C100.542 156.601 100.59 156.619 100.641 156.62H101.55C101.601 156.622 101.65 156.641 101.691 156.674C101.732 156.708 101.762 156.754 101.778 156.808C101.793 156.861 101.794 156.918 101.779 156.971C101.764 157.024 101.734 157.071 101.694 157.105L100.97 157.706C100.93 157.74 100.901 157.786 100.885 157.839C100.869 157.891 100.868 157.947 100.882 158L101.144 158.949C101.16 159.003 101.16 159.061 101.144 159.115C101.128 159.169 101.097 159.215 101.055 159.249C101.013 159.282 100.962 159.299 100.911 159.299C100.859 159.299 100.808 159.281 100.767 159.247L100.025 158.681C99.9833 158.65 99.9339 158.633 99.8832 158.633C99.8326 158.633 99.7831 158.65 99.7415 158.681Z" fill="#4E4DA2"/>
<path d="M123.515 158.681L122.77 159.247C122.728 159.281 122.678 159.299 122.626 159.299C122.574 159.299 122.524 159.282 122.482 159.249C122.44 159.215 122.409 159.169 122.392 159.115C122.376 159.061 122.376 159.003 122.392 158.949L122.655 158C122.67 157.948 122.67 157.891 122.654 157.838C122.639 157.785 122.608 157.739 122.567 157.706L121.846 157.105C121.806 157.071 121.777 157.024 121.761 156.971C121.746 156.918 121.747 156.861 121.762 156.808C121.778 156.754 121.808 156.708 121.849 156.674C121.89 156.641 121.939 156.622 121.99 156.62H122.896C122.946 156.62 122.996 156.603 123.036 156.57C123.077 156.538 123.108 156.492 123.123 156.44L123.421 155.503C123.438 155.45 123.469 155.404 123.511 155.371C123.553 155.338 123.604 155.321 123.655 155.321C123.707 155.321 123.757 155.338 123.799 155.371C123.841 155.404 123.873 155.45 123.89 155.503L124.187 156.44C124.203 156.492 124.234 156.537 124.275 156.569C124.315 156.601 124.364 156.619 124.414 156.62H125.324C125.375 156.622 125.424 156.641 125.465 156.674C125.505 156.708 125.536 156.754 125.551 156.808C125.567 156.861 125.567 156.918 125.552 156.971C125.537 157.024 125.508 157.071 125.467 157.105L124.743 157.706C124.704 157.74 124.674 157.786 124.659 157.839C124.643 157.891 124.642 157.947 124.656 158L124.918 158.949C124.934 159.003 124.934 159.061 124.918 159.115C124.902 159.169 124.871 159.215 124.829 159.249C124.787 159.282 124.736 159.299 124.684 159.299C124.632 159.299 124.582 159.281 124.54 159.247L123.799 158.681C123.757 158.65 123.708 158.633 123.657 158.633C123.606 158.633 123.557 158.65 123.515 158.681Z" fill="#4E4DA2"/>
<path d="M87.1237 175.386L87.9073 175.271C87.9208 175.362 87.96 175.446 88.0193 175.512C88.072 175.558 88.1375 175.582 88.2047 175.581C88.2658 175.581 88.3257 175.562 88.3772 175.526C88.4287 175.49 88.4696 175.439 88.4951 175.378C88.5582 175.175 88.589 174.962 88.5861 174.747C88.5063 174.842 88.41 174.919 88.3027 174.973C88.1927 175.026 88.0732 175.052 87.9528 175.049C87.7066 175.055 87.4682 174.955 87.2898 174.769C87.1114 174.583 87.0076 174.328 87.0012 174.059C86.9923 173.869 87.0323 173.681 87.1167 173.515C87.1942 173.351 87.3165 173.218 87.4665 173.133C87.6506 173.04 87.8518 172.996 88.0543 173.003C88.2946 172.987 88.5347 173.036 88.754 173.144C88.9396 173.254 89.0908 173.422 89.1878 173.626C89.3118 173.901 89.3764 174.203 89.3768 174.51C89.4273 174.93 89.327 175.355 89.0969 175.696C88.9832 175.825 88.8453 175.927 88.6925 175.993C88.5398 176.059 88.3758 176.088 88.2117 176.078C88.0282 176.088 87.8446 176.062 87.6694 176.002C87.537 175.957 87.4168 175.877 87.3196 175.768C87.2324 175.656 87.1659 175.526 87.1237 175.386ZM88.5231 174.036C88.524 173.894 88.4765 173.758 88.3902 173.653C88.3526 173.61 88.3075 173.576 88.2576 173.553C88.2076 173.53 88.154 173.519 88.0998 173.519C88.0513 173.52 88.0035 173.532 87.9596 173.555C87.9156 173.577 87.8764 173.609 87.8444 173.649C87.8068 173.703 87.7794 173.765 87.7638 173.831C87.7482 173.896 87.7447 173.965 87.7534 174.032C87.751 174.172 87.7958 174.308 87.8794 174.414C87.9133 174.457 87.9554 174.49 88.0025 174.513C88.0497 174.535 88.1008 174.546 88.1523 174.544C88.204 174.545 88.2553 174.534 88.3024 174.511C88.3496 174.488 88.3915 174.453 88.4251 174.41C88.4636 174.36 88.4927 174.303 88.5107 174.24C88.5287 174.178 88.5353 174.112 88.5301 174.047L88.5231 174.036Z" fill="white"/>
<defs>
<linearGradient id="paint0_linear_101_534" x1="91.3" y1="188.56" x2="86.6047" y2="186.185" gradientUnits="userSpaceOnUse">
<stop stop-color="#CDCCEB" stop-opacity="0"/>
<stop offset="1" stop-color="#F5D6D7"/>
</linearGradient>
<linearGradient id="paint1_linear_101_534" x1="79.3" y1="188.56" x2="74.6047" y2="186.185" gradientUnits="userSpaceOnUse">
<stop stop-color="#CDCCEB" stop-opacity="0"/>
<stop offset="1" stop-color="#F5D6D7"/>
</linearGradient>
<linearGradient id="paint2_linear_101_534" x1="102.3" y1="177.56" x2="97.6047" y2="175.185" gradientUnits="userSpaceOnUse">
<stop stop-color="#CDCCEB" stop-opacity="0"/>
<stop offset="1" stop-color="#F5D6D7"/>
</linearGradient>
<linearGradient id="paint3_linear_101_534" x1="98.617" y1="172.5" x2="103.388" y2="174.72" gradientUnits="userSpaceOnUse">
<stop stop-color="#CDCCEB" stop-opacity="0"/>
<stop offset="1" stop-color="#F5D6D7"/>
</linearGradient>
<linearGradient id="paint4_linear_101_534" x1="139.3" y1="177.56" x2="134.605" y2="175.185" gradientUnits="userSpaceOnUse">
<stop stop-color="#CDCCEB" stop-opacity="0"/>
<stop offset="1" stop-color="#F5D6D7"/>
</linearGradient>
<linearGradient id="paint5_linear_101_534" x1="151.3" y1="177.56" x2="146.605" y2="175.185" gradientUnits="userSpaceOnUse">
<stop stop-color="#CDCCEB" stop-opacity="0"/>
<stop offset="1" stop-color="#F5D6D7"/>
</linearGradient>
<linearGradient id="paint6_linear_101_534" x1="127.3" y1="177.56" x2="122.605" y2="175.185" gradientUnits="userSpaceOnUse">
<stop stop-color="#CDCCEB" stop-opacity="0"/>
<stop offset="1" stop-color="#F5D6D7"/>
</linearGradient>
<linearGradient id="paint7_linear_101_534" x1="115.3" y1="177.56" x2="110.605" y2="175.185" gradientUnits="userSpaceOnUse">
<stop stop-color="#CDCCEB" stop-opacity="0"/>
<stop offset="1" stop-color="#F5D6D7"/>
</linearGradient>
</defs>
</svg>
