<svg width="96" height="61" viewBox="0 0 96 61" fill="none" xmlns="http://www.w3.org/2000/svg">
<path d="M17.8636 44.4886V48.1609H21.8668V49.343H17.8636V53.1256H22.3396V54.3076H16.4293V43.3065H22.3396V44.4886H17.8636ZM27.993 54.4179C27.268 54.4179 26.6165 54.2919 26.0386 54.0397C25.4713 53.777 25.0247 53.4198 24.699 52.9679C24.3732 52.5056 24.2051 51.975 24.1946 51.3761H25.7234C25.776 51.891 25.9861 52.327 26.3539 52.6842C26.7321 53.031 27.2785 53.2044 27.993 53.2044C28.676 53.2044 29.2118 53.0362 29.6006 52.7C29.9999 52.3533 30.1995 51.912 30.1995 51.3761C30.1995 50.9558 30.0839 50.6143 29.8528 50.3516C29.6216 50.089 29.3327 49.8893 28.9859 49.7527C28.6392 49.6161 28.1716 49.469 27.5832 49.3114C26.8582 49.1223 26.2751 48.9332 25.8338 48.744C25.403 48.5549 25.0299 48.2607 24.7147 47.8614C24.41 47.4516 24.2577 46.9053 24.2577 46.2223C24.2577 45.6234 24.41 45.0928 24.7147 44.6305C25.0194 44.1681 25.445 43.8109 25.9914 43.5587C26.5482 43.3065 27.1839 43.1805 27.8984 43.1805C28.9281 43.1805 29.7687 43.4379 30.4202 43.9527C31.0821 44.4676 31.4551 45.1506 31.5392 46.0017H29.9631C29.9106 45.5814 29.6899 45.2136 29.3011 44.8984C28.9124 44.5727 28.3975 44.4098 27.7566 44.4098C27.1577 44.4098 26.6691 44.5674 26.2908 44.8826C25.9126 45.1873 25.7234 45.6181 25.7234 46.175C25.7234 46.5743 25.8338 46.9 26.0544 47.1522C26.2856 47.4044 26.564 47.5988 26.8897 47.7353C27.226 47.8614 27.6935 48.0085 28.2924 48.1766C29.0174 48.3763 29.6006 48.5759 30.0419 48.7756C30.4832 48.9647 30.8615 49.2641 31.1767 49.6739C31.4919 50.0732 31.6495 50.6196 31.6495 51.3131C31.6495 51.8489 31.5077 52.3533 31.224 52.8261C30.9403 53.2989 30.52 53.6824 29.9631 53.9766C29.4062 54.2708 28.7495 54.4179 27.993 54.4179ZM40.5215 43.3223V44.4886H37.5269V54.3076H36.0927V44.4886H33.0824V43.3223H40.5215ZM48.7804 51.8647H43.9891L43.1065 54.3076H41.5935L45.5652 43.3854H47.2201L51.1761 54.3076H49.663L48.7804 51.8647ZM48.3707 50.6984L46.3848 45.1506L44.3989 50.6984H48.3707ZM64.05 43.4011V54.3076H62.6157V46.175L58.9908 54.3076H57.9821L54.3413 46.1593V54.3076H52.9071V43.4011H54.4516L58.4864 52.4163L62.5212 43.4011H64.05ZM67.9166 44.4886V48.1609H71.9198V49.343H67.9166V53.1256H72.3926V54.3076H66.4823V43.3065H72.3926V44.4886H67.9166ZM80.3471 54.3076L77.7308 49.8158H75.9971V54.3076H74.5628V43.3223H78.109C78.9391 43.3223 79.6378 43.4642 80.2052 43.7479C80.7831 44.0315 81.2139 44.4151 81.4976 44.8984C81.7813 45.3817 81.9232 45.9334 81.9232 46.5533C81.9232 47.3098 81.7025 47.977 81.2612 48.5549C80.8304 49.1328 80.179 49.5163 79.3069 49.7054L82.065 54.3076H80.3471ZM75.9971 48.6652H78.109C78.8866 48.6652 79.4697 48.4761 79.8585 48.0978C80.2473 47.7091 80.4416 47.1942 80.4416 46.5533C80.4416 45.9018 80.2473 45.3975 79.8585 45.0402C79.4802 44.683 78.8971 44.5044 78.109 44.5044H75.9971V48.6652Z" fill="#FD1E39"/>
<path d="M2.16066 45.2411L0.995874 42.1886C2.95057 41.546 4.57056 40.8096 5.85584 39.9795C7.1679 39.1494 8.19881 38.2658 8.94855 37.3286C9.72508 36.3914 10.274 35.4409 10.5953 34.4769C10.9166 33.4862 11.0773 32.5356 11.0773 31.6252C11.0773 30.3131 10.7828 28.9877 10.1937 27.6489C9.63136 26.2832 9.00211 24.998 8.30591 23.793L11.238 22.3069C11.7467 23.2441 12.1885 24.1679 12.5634 25.0783C12.9651 25.9887 13.3132 26.8456 13.6077 27.6489C13.929 28.4522 14.1834 29.1885 14.3708 29.8579C14.7457 31.0093 15.2277 31.7992 15.8168 32.2277C16.4326 32.6293 17.2627 32.8301 18.307 32.8301C18.8693 32.8301 19.271 32.9908 19.512 33.3121C19.7797 33.6067 19.9136 33.9682 19.9136 34.3966C19.9136 34.825 19.7262 35.2267 19.3513 35.6015C18.9764 35.9496 18.4944 36.1237 17.9054 36.1237C16.7272 36.1237 15.7632 35.9229 15.0135 35.5212C14.2905 35.0928 13.7416 34.5439 13.3667 33.8744C12.9918 33.1782 12.7375 32.4553 12.6036 31.7055L13.8889 32.4285C13.8889 34.1958 13.4872 35.8024 12.6839 37.2483C11.9074 38.721 10.9033 39.9929 9.67152 41.064C8.4398 42.1618 7.15451 43.0588 5.81568 43.755C4.47684 44.4512 3.2585 44.9466 2.16066 45.2411ZM17.9248 36.1237L18.3265 32.8301C19.0762 32.8301 19.6653 32.6695 20.0937 32.3482C20.5489 32.0268 20.9774 31.4913 21.379 30.7416C21.8074 29.9918 22.343 28.9877 22.9856 27.7292C23.6283 26.4439 24.2709 25.3996 24.9135 24.5963C25.5829 23.7662 26.2256 23.1236 26.8415 22.6684C27.4841 22.1864 28.0866 21.8517 28.6489 21.6643C29.2112 21.4768 29.7333 21.3831 30.2153 21.3831C31.0989 21.3831 31.8889 21.5839 32.5851 21.9856C33.2813 22.3605 33.9373 23.0165 34.5531 23.9537C35.169 24.8641 35.7983 26.1226 36.4409 27.7292C37.0568 29.2019 37.6057 30.3131 38.0877 31.0629C38.5964 31.7859 39.1186 32.2678 39.6541 32.5088C40.2164 32.723 40.8457 32.8301 41.5419 32.8301C42.1042 32.8301 42.5058 32.9908 42.7468 33.3121C43.0146 33.6067 43.1485 33.9682 43.1485 34.3966C43.1485 34.825 42.961 35.2267 42.5862 35.6015C42.2113 35.9496 41.7293 36.1237 41.1402 36.1237C40.0959 36.1237 39.132 35.9496 38.2483 35.6015C37.3915 35.2534 36.6685 34.7045 36.0794 33.9548L36.6417 33.1113C36.3472 33.9414 35.9455 34.6242 35.4368 35.1597C34.9548 35.6685 34.4059 36.0433 33.79 36.2843C33.1741 36.5521 32.5181 36.686 31.8219 36.686C30.9383 36.686 30.0279 36.4986 29.0907 36.1237C28.1803 35.7488 27.2967 35.2133 26.4398 34.5171C25.5829 33.8209 24.8332 33.0042 24.1906 32.067C23.4944 33.2987 22.8249 34.2091 22.1823 34.7982C21.5664 35.3605 20.9238 35.722 20.2544 35.8827C19.585 36.0433 18.8084 36.1237 17.9248 36.1237ZM25.7168 29.0145C26.172 29.7642 26.654 30.4202 27.1628 30.9826C27.6983 31.5449 28.2338 32.0135 28.7694 32.3883C29.3049 32.7364 29.8271 33.0042 30.3358 33.1916C30.8713 33.3523 31.3533 33.4326 31.7818 33.4326C32.7189 33.4326 33.4017 33.0979 33.8302 32.4285C34.2854 31.7591 34.272 30.8219 33.79 29.6169C33.549 29.0011 33.2946 28.3986 33.0269 27.8095C32.7859 27.2204 32.5181 26.6849 32.2236 26.2029C31.929 25.6942 31.5943 25.3059 31.2194 25.0381C30.8446 24.7436 30.4295 24.5963 29.9743 24.5963C29.5727 24.5963 29.1443 24.7302 28.689 24.998C28.2606 25.2657 27.792 25.7209 27.2833 26.3636C26.8013 27.0062 26.2791 27.8898 25.7168 29.0145ZM41.1452 36.1237L41.5469 32.8301C42.6715 32.8301 43.5551 32.7364 44.1978 32.549C44.8404 32.3348 45.3224 31.9465 45.6437 31.3842C45.9918 30.7951 46.2864 29.9516 46.5273 28.8538C46.7683 27.756 47.0629 26.3234 47.411 24.5561L50.5439 25.1586C50.4367 25.6406 50.3162 26.1761 50.1824 26.7652C50.0485 27.3543 49.928 27.9434 49.8209 28.5325C49.7405 29.0948 49.7004 29.5902 49.7004 30.0186C49.7004 30.5541 49.8209 31.0361 50.0619 31.4645C50.3029 31.893 50.825 32.2277 51.6283 32.4687C52.4316 32.7096 53.6633 32.8301 55.3235 32.8301C55.8858 32.8301 56.2875 32.9908 56.5284 33.3121C56.7962 33.6067 56.9301 33.9682 56.9301 34.3966C56.9301 34.825 56.7427 35.2267 56.3678 35.6015C55.9929 35.9496 55.5109 36.1237 54.9218 36.1237C53.1814 36.1237 51.8157 35.9764 50.825 35.6819C49.8343 35.3605 49.1113 34.8919 48.6561 34.2761C48.2009 33.6334 47.893 32.8569 47.7323 31.9465L48.9372 32.0268C48.5088 32.8837 48.0402 33.5799 47.5315 34.1154C47.0495 34.651 46.514 35.066 45.9249 35.3605C45.3358 35.6551 44.653 35.8559 43.8765 35.963C43.0999 36.0701 42.1895 36.1237 41.1452 36.1237ZM54.9127 36.1237L55.3144 32.8301C56.1712 32.8301 56.8674 32.7766 57.403 32.6695C57.9385 32.5356 58.3803 32.2277 58.7284 31.7457C59.1033 31.2369 59.4514 30.447 59.7727 29.3759C60.094 28.3049 60.4689 26.8054 60.8973 24.8775L63.9097 25.7209C63.8026 26.1761 63.6821 26.6983 63.5482 27.2874C63.4143 27.8497 63.2938 28.4388 63.1867 29.0546C63.0796 29.6437 63.0261 30.1926 63.0261 30.7014C63.0261 31.3708 63.2805 31.893 63.7892 32.2678C64.298 32.6427 65.2218 32.8301 66.5606 32.8301C67.3639 32.8301 68.0199 32.7632 68.5287 32.6293C69.0375 32.4954 69.4525 32.1741 69.7738 31.6654C70.1219 31.1566 70.4298 30.3399 70.6976 29.2153C70.9654 28.0907 71.2465 26.551 71.5411 24.5963L74.5936 25.1586C74.5133 25.6406 74.4196 26.2297 74.3125 26.9259C74.2054 27.6221 74.0982 28.3183 73.9911 29.0145C73.9108 29.6839 73.8706 30.2462 73.8706 30.7014C73.8706 31.0763 73.951 31.4378 74.1116 31.7859C74.2991 32.1072 74.6472 32.3616 75.1559 32.549C75.6915 32.7364 76.4814 32.8301 77.5257 32.8301C78.3022 32.8301 78.9716 32.7364 79.5339 32.549C80.123 32.3616 80.5648 32.0135 80.8594 31.5047C81.1807 30.9959 81.3413 30.2864 81.3413 29.3759C81.3413 28.3584 81.1004 27.0865 80.6184 25.5603C80.1632 24.0072 79.641 22.4676 79.0519 20.9413L82.3053 19.7363C82.6534 20.5932 82.9747 21.5705 83.2693 22.6684C83.5906 23.7662 83.8584 24.8507 84.0726 25.9218C84.2868 26.9928 84.3939 27.93 84.3939 28.7333C84.3939 29.965 84.2332 31.0495 83.9119 31.9867C83.5906 32.9239 83.1354 33.7004 82.5463 34.3162C81.9572 34.9053 81.2342 35.3605 80.3774 35.6819C79.5205 35.9764 78.5566 36.1237 77.4855 36.1237C76.227 36.1237 75.1961 35.9764 74.3928 35.6819C73.5895 35.3873 72.9736 34.9455 72.5452 34.3564C72.1168 33.7406 71.8356 32.964 71.7017 32.0268H73.0673C72.5586 33.1782 72.0231 34.0485 71.4607 34.6376C70.8984 35.2267 70.2022 35.6283 69.3722 35.8425C68.5421 36.03 67.4442 36.1237 66.0786 36.1237C65.4092 36.1237 64.6862 36.0166 63.9097 35.8024C63.16 35.5881 62.5039 35.1731 61.9416 34.5572C61.3793 33.9146 61.0446 32.964 60.9375 31.7055L62.1425 31.4645C61.6872 32.8301 61.1249 33.8477 60.4555 34.5171C59.8129 35.1597 59.0364 35.5881 58.1259 35.8024C57.2155 36.0166 56.1445 36.1237 54.9127 36.1237ZM90.1045 35.9229L89.3012 7.24501H92.5546L93.3579 35.9229H90.1045Z" fill="#4E4DA2"/>
<path d="M45.749 19.9224C44.5174 21.6531 42.1159 22.0576 40.3853 20.8259C38.6546 19.5943 38.2501 17.1929 39.4818 15.4622C40.7134 13.7316 43.1148 13.3271 44.8455 14.5587C46.5761 15.7904 46.9806 18.1918 45.749 19.9224Z" stroke="#FD1E39" stroke-opacity="0.4" stroke-width="0.795756"/>
<path d="M40.401 20.8164C38.6703 19.5847 38.2278 17.2377 39.4594 15.5071C40.6911 13.7764 43.1132 13.3426 44.8439 14.5743" stroke="#FD1E39" stroke-width="0.795756"/>
<path d="M55.6081 19.4427C54.3866 21.1805 51.9876 21.599 50.2498 20.3775C48.512 19.1559 48.0935 16.7569 49.315 15.0191C50.5365 13.2813 52.9356 12.8628 54.6734 14.0844C56.4112 15.3059 56.8297 17.7049 55.6081 19.4427Z" stroke="#FD1E39" stroke-opacity="0.4" stroke-width="0.795756"/>
<path d="M50.2654 20.3678C48.5276 19.1463 48.0714 16.8019 49.293 15.0641C50.5145 13.3263 52.9341 12.8784 54.6719 14.0999" stroke="#FD1E39" stroke-width="0.795756"/>
</svg>
