<svg width="221" height="333" viewBox="0 0 221 333" fill="none" xmlns="http://www.w3.org/2000/svg">
<path d="M56.7151 29.504L57.3391 26.144C58.8591 26.16 60.0831 26.12 61.0111 26.024C61.9551 25.912 62.6671 25.712 63.1471 25.424C63.6431 25.12 63.9631 24.696 64.1071 24.152C64.2671 23.592 64.3231 22.88 64.2751 22.016L63.7471 11.432H67.1071L67.6351 22.184C67.7151 23.64 67.6111 24.848 67.3231 25.808C67.0351 26.752 66.4911 27.496 65.6911 28.04C64.8911 28.568 63.7631 28.944 62.3071 29.168C60.8511 29.392 58.9871 29.504 56.7151 29.504ZM55.5631 23.816L54.9391 21.44C55.4991 21.296 55.9551 21.168 56.3071 21.056C56.6751 20.944 56.9471 20.832 57.1231 20.72C57.2991 20.608 57.3871 20.496 57.3871 20.384C57.3871 20.24 57.3151 20.088 57.1711 19.928C57.0271 19.768 56.8671 19.584 56.6911 19.376C56.5151 19.168 56.3551 18.936 56.2111 18.68C56.0671 18.424 55.9951 18.128 55.9951 17.792C55.9951 17.392 56.1071 17.016 56.3311 16.664C56.5551 16.296 56.9151 15.944 57.4111 15.608C57.9231 15.256 58.5951 14.912 59.4271 14.576L60.4591 16.712C59.7871 16.984 59.3311 17.224 59.0911 17.432C58.8671 17.624 58.7551 17.808 58.7551 17.984C58.7551 18.128 58.8271 18.296 58.9711 18.488C59.1151 18.68 59.2751 18.896 59.4511 19.136C59.6431 19.36 59.8111 19.616 59.9551 19.904C60.0991 20.176 60.1711 20.472 60.1711 20.792C60.1711 21.048 60.1151 21.312 60.0031 21.584C59.9071 21.856 59.6991 22.12 59.3791 22.376C59.0751 22.632 58.6191 22.88 58.0111 23.12C57.4031 23.36 56.5871 23.592 55.5631 23.816ZM56.7151 29.504C54.9871 29.504 53.5231 29.368 52.3231 29.096C51.1391 28.84 50.1711 28.472 49.4191 27.992C48.6831 27.496 48.1471 26.92 47.8111 26.264C47.4751 25.608 47.3071 24.888 47.3071 24.104C47.3071 23.592 47.3471 23.08 47.4271 22.568C47.5231 22.04 47.6351 21.528 47.7631 21.032C47.9071 20.536 48.0351 20.088 48.1471 19.688L51.1471 20.384C51.0831 20.672 51.0111 20.984 50.9311 21.32C50.8511 21.656 50.7871 21.984 50.7391 22.304C50.6911 22.608 50.6671 22.888 50.6671 23.144C50.6671 23.736 50.8751 24.264 51.2911 24.728C51.7231 25.176 52.4271 25.528 53.4031 25.784C54.3791 26.024 55.6911 26.144 57.3391 26.144L57.8191 28.736L56.7151 29.504ZM68.6496 34.52L67.4256 31.448C68.8016 30.968 69.9136 30.44 70.7616 29.864C71.6256 29.288 72.2576 28.672 72.6576 28.016C73.0736 27.36 73.2816 26.68 73.2816 25.976C73.2816 25.528 73.2176 25.064 73.0896 24.584C72.9616 24.088 72.7776 23.568 72.5376 23.024C72.3136 22.48 72.0416 21.912 71.7216 21.32L74.8656 19.808C75.4256 20.88 75.8576 21.904 76.1616 22.88C76.4816 23.856 76.6416 24.768 76.6416 25.616C76.6416 26.4 76.5376 27.152 76.3296 27.872C76.1376 28.592 75.8336 29.264 75.4176 29.888C75.0176 30.528 74.4976 31.128 73.8576 31.688C73.2176 32.248 72.4656 32.76 71.6016 33.224C70.7376 33.704 69.7536 34.136 68.6496 34.52ZM73.9536 17.36C73.4576 17.36 73.0336 17.192 72.6816 16.856C72.3456 16.52 72.1776 16.104 72.1776 15.608C72.1776 15.112 72.3456 14.688 72.6816 14.336C73.0336 13.984 73.4576 13.808 73.9536 13.808C74.4336 13.808 74.8416 13.984 75.1776 14.336C75.5296 14.688 75.7056 15.112 75.7056 15.608C75.7056 16.104 75.5296 16.52 75.1776 16.856C74.8416 17.192 74.4336 17.36 73.9536 17.36ZM85.6939 29.12C84.2059 29.12 83.0539 28.968 82.2379 28.664C81.4379 28.36 80.8779 27.888 80.5579 27.248C80.2379 26.592 80.0539 25.768 80.0059 24.776L79.5019 11.432H82.8619L83.3659 23.168C83.3979 23.904 83.4779 24.456 83.6059 24.824C83.7339 25.192 83.9739 25.44 84.3259 25.568C84.6939 25.696 85.2299 25.76 85.9339 25.76C86.5419 25.76 86.9739 25.92 87.2299 26.24C87.5019 26.544 87.6379 26.928 87.6379 27.392C87.6379 27.888 87.4699 28.304 87.1339 28.64C86.7979 28.96 86.3179 29.12 85.6939 29.12ZM101.423 29.12C100.687 29.12 99.9986 29.064 99.3586 28.952C98.7346 28.84 98.1586 28.648 97.6306 28.376C97.1026 28.088 96.6306 27.696 96.2146 27.2C95.8146 26.704 95.4786 26.08 95.2066 25.328L97.1026 23.816C97.3906 24.328 97.7426 24.728 98.1586 25.016C98.5746 25.288 99.0706 25.48 99.6466 25.592C100.223 25.704 100.895 25.76 101.663 25.76C102.271 25.76 102.703 25.92 102.959 26.24C103.215 26.544 103.343 26.928 103.343 27.392C103.343 27.888 103.175 28.304 102.839 28.64C102.519 28.96 102.047 29.12 101.423 29.12ZM85.7266 29.12L85.9666 25.76C86.8306 25.76 87.6866 25.712 88.5346 25.616C89.3826 25.52 90.2066 25.376 91.0066 25.184C91.8066 24.992 92.5666 24.744 93.2866 24.44C94.0226 24.136 94.7106 23.768 95.3506 23.336C94.8706 23.048 94.3506 22.8 93.7906 22.592C93.2306 22.384 92.6306 22.232 91.9906 22.136C91.3666 22.024 90.7026 21.968 89.9986 21.968C89.7426 21.968 89.4706 21.976 89.1826 21.992C88.9106 22.008 88.6306 22.04 88.3426 22.088C88.0546 22.12 87.7666 22.168 87.4786 22.232L86.9986 18.944C87.4626 18.816 87.9506 18.728 88.4626 18.68C88.9906 18.616 89.4546 18.584 89.8546 18.584C90.7186 18.584 91.5106 18.68 92.2306 18.872C92.9666 19.064 93.6386 19.304 94.2466 19.592C94.8706 19.88 95.4466 20.168 95.9746 20.456C96.5186 20.744 97.0306 20.984 97.5106 21.176C98.0066 21.368 98.4866 21.464 98.9506 21.464H99.8386L100.223 24.656C99.5346 24.688 98.8866 24.824 98.2786 25.064C97.6866 25.288 97.0946 25.576 96.5026 25.928C95.9266 26.264 95.3026 26.616 94.6306 26.984C93.9746 27.352 93.2306 27.696 92.3986 28.016C91.5666 28.336 90.6066 28.6 89.5186 28.808C88.4306 29.016 87.1666 29.12 85.7266 29.12ZM92.5186 34.52C92.0546 34.52 91.6546 34.36 91.3186 34.04C90.9986 33.72 90.8386 33.328 90.8386 32.864C90.8386 32.4 90.9986 31.992 91.3186 31.64C91.6546 31.304 92.0546 31.136 92.5186 31.136C92.9826 31.136 93.3746 31.304 93.6946 31.64C94.0306 31.992 94.1986 32.4 94.1986 32.864C94.1986 33.328 94.0306 33.72 93.6946 34.04C93.3746 34.36 92.9826 34.52 92.5186 34.52ZM101.43 29.12L101.67 25.76C102.374 25.76 102.926 25.712 103.326 25.616C103.742 25.52 104.038 25.344 104.214 25.088C104.39 24.816 104.478 24.432 104.478 23.936C104.478 23.488 104.414 22.952 104.286 22.328C104.174 21.704 104.022 21.056 103.83 20.384C103.638 19.712 103.446 19.096 103.254 18.536L106.566 17.624C106.758 18.168 106.95 18.8 107.142 19.52C107.334 20.24 107.494 20.984 107.622 21.752C107.766 22.504 107.838 23.232 107.838 23.936C107.838 24.816 107.726 25.56 107.502 26.168C107.278 26.76 106.966 27.256 106.566 27.656C106.182 28.04 105.718 28.344 105.174 28.568C104.646 28.776 104.062 28.92 103.422 29C102.782 29.08 102.118 29.12 101.43 29.12ZM104.886 15.632C104.39 15.632 103.966 15.464 103.614 15.128C103.278 14.792 103.11 14.376 103.11 13.88C103.11 13.384 103.278 12.96 103.614 12.608C103.966 12.256 104.39 12.08 104.886 12.08C105.366 12.08 105.774 12.256 106.11 12.608C106.462 12.96 106.638 13.384 106.638 13.88C106.638 14.376 106.462 14.792 106.11 15.128C105.774 15.464 105.366 15.632 104.886 15.632ZM110.967 29L110.463 11.432H113.823L114.327 29H110.967ZM128.988 38.456C127.932 38.456 126.94 38.344 126.012 38.12C125.084 37.896 124.268 37.552 123.564 37.088C122.876 36.624 122.332 36.024 121.932 35.288C121.548 34.552 121.356 33.68 121.356 32.672C121.356 31.632 121.572 30.712 122.004 29.912C122.436 29.128 122.988 28.44 123.66 27.848C124.332 27.24 125.044 26.696 125.796 26.216C126.564 25.72 127.284 25.248 127.956 24.8C128.628 24.352 129.18 23.896 129.612 23.432C130.044 22.952 130.26 22.424 130.26 21.848C130.26 21.64 130.204 21.448 130.092 21.272C129.996 21.08 129.828 20.928 129.588 20.816C129.364 20.688 129.044 20.624 128.628 20.624C128.356 20.624 128.076 20.656 127.788 20.72C127.5 20.768 127.22 20.84 126.948 20.936C126.676 21.016 126.42 21.12 126.18 21.248C126.596 21.584 127.004 21.96 127.404 22.376C127.82 22.776 128.196 23.168 128.532 23.552C128.884 23.92 129.156 24.24 129.348 24.512C129.716 24.704 130.116 24.88 130.548 25.04C130.98 25.184 131.436 25.312 131.916 25.424C132.412 25.536 132.924 25.624 133.452 25.688C133.98 25.736 134.524 25.76 135.084 25.76C135.692 25.76 136.124 25.92 136.38 26.24C136.636 26.544 136.764 26.928 136.764 27.392C136.764 27.888 136.596 28.304 136.26 28.64C135.924 28.96 135.452 29.12 134.844 29.12C133.516 29.12 132.38 29.024 131.436 28.832C130.508 28.64 129.668 28.352 128.916 27.968C128.18 27.568 127.42 27.08 126.636 26.504C126.444 26.168 126.164 25.8 125.796 25.4C125.428 24.984 125.052 24.592 124.668 24.224C124.3 23.856 123.988 23.568 123.732 23.36C123.684 23.312 123.604 23.152 123.492 22.88C123.38 22.592 123.276 22.288 123.18 21.968C123.1 21.648 123.06 21.424 123.06 21.296C123.06 20.976 123.212 20.616 123.516 20.216C123.82 19.8 124.244 19.408 124.788 19.04C125.348 18.656 125.996 18.344 126.732 18.104C127.468 17.848 128.268 17.72 129.132 17.72C130.7 17.72 131.828 18.056 132.516 18.728C133.22 19.384 133.572 20.232 133.572 21.272C133.572 22.232 133.356 23.088 132.924 23.84C132.508 24.592 131.964 25.28 131.292 25.904C130.62 26.528 129.908 27.104 129.156 27.632C128.42 28.16 127.716 28.672 127.044 29.168C126.372 29.68 125.82 30.192 125.388 30.704C124.972 31.232 124.764 31.8 124.764 32.408C124.764 32.92 124.892 33.344 125.148 33.68C125.42 34.032 125.764 34.312 126.18 34.52C126.596 34.728 127.052 34.872 127.548 34.952C128.06 35.048 128.556 35.096 129.036 35.096C129.532 35.096 130.044 35.056 130.572 34.976C131.116 34.896 131.676 34.768 132.252 34.592C132.844 34.432 133.452 34.224 134.076 33.968L135.084 36.848C134.476 37.168 133.828 37.448 133.14 37.688C132.452 37.944 131.756 38.136 131.052 38.264C130.348 38.392 129.66 38.456 128.988 38.456ZM134.852 29.12L135.092 25.76C135.7 25.76 136.18 25.704 136.532 25.592C136.9 25.48 137.188 25.256 137.396 24.92C137.62 24.568 137.804 24.056 137.948 23.384C138.108 22.712 138.268 21.816 138.428 20.696L141.572 21.224C141.54 21.464 141.492 21.744 141.428 22.064C141.38 22.384 141.332 22.712 141.284 23.048C141.252 23.368 141.236 23.672 141.236 23.96C141.236 24.344 141.316 24.672 141.476 24.944C141.652 25.2 141.956 25.4 142.388 25.544C142.836 25.688 143.476 25.76 144.308 25.76C144.916 25.76 145.348 25.92 145.604 26.24C145.86 26.544 145.988 26.928 145.988 27.392C145.988 27.888 145.82 28.304 145.484 28.64C145.164 28.96 144.692 29.12 144.068 29.12C142.964 29.12 142.068 29.016 141.38 28.808C140.692 28.6 140.18 28.248 139.844 27.752C139.508 27.256 139.292 26.576 139.196 25.712H140.348C140.06 26.48 139.724 27.096 139.34 27.56C138.956 28.008 138.524 28.344 138.044 28.568C137.564 28.792 137.052 28.936 136.508 29C135.98 29.08 135.428 29.12 134.852 29.12ZM139.124 34.64C138.66 34.64 138.26 34.48 137.924 34.16C137.604 33.84 137.444 33.448 137.444 32.984C137.444 32.52 137.604 32.112 137.924 31.76C138.26 31.424 138.66 31.256 139.124 31.256C139.588 31.256 139.98 31.424 140.3 31.76C140.636 32.112 140.804 32.52 140.804 32.984C140.804 33.448 140.636 33.84 140.3 34.16C139.98 34.48 139.588 34.64 139.124 34.64ZM144.062 29.12L144.303 25.76C144.879 25.76 145.375 25.704 145.791 25.592C146.207 25.48 146.559 25.256 146.847 24.92C147.135 24.568 147.375 24.056 147.567 23.384C147.775 22.712 147.959 21.816 148.119 20.696L151.263 21.224C151.231 21.464 151.183 21.744 151.118 22.064C151.071 22.384 151.023 22.712 150.975 23.048C150.943 23.368 150.927 23.672 150.927 23.96C150.927 24.248 150.983 24.504 151.095 24.728C151.207 24.952 151.383 25.144 151.623 25.304C151.879 25.448 152.207 25.56 152.607 25.64C153.023 25.72 153.527 25.76 154.119 25.76C154.727 25.76 155.159 25.92 155.415 26.24C155.671 26.544 155.799 26.928 155.799 27.392C155.799 27.888 155.631 28.304 155.295 28.64C154.975 28.96 154.503 29.12 153.879 29.12C153.159 29.12 152.503 29.064 151.911 28.952C151.335 28.84 150.831 28.656 150.398 28.4C149.983 28.128 149.639 27.776 149.367 27.344C149.111 26.896 148.951 26.352 148.887 25.712H150.039C149.751 26.48 149.383 27.096 148.935 27.56C148.503 28.008 148.015 28.344 147.471 28.568C146.927 28.792 146.359 28.936 145.767 29C145.191 29.08 144.623 29.12 144.062 29.12ZM151.767 18.536C151.303 18.536 150.903 18.376 150.567 18.056C150.247 17.72 150.087 17.328 150.087 16.88C150.087 16.416 150.247 16.016 150.567 15.68C150.903 15.344 151.303 15.176 151.767 15.176C152.215 15.176 152.599 15.344 152.919 15.68C153.239 16.016 153.399 16.416 153.399 16.88C153.399 17.328 153.239 17.72 152.919 18.056C152.599 18.376 152.215 18.536 151.767 18.536ZM147.615 18.512C147.151 18.512 146.751 18.352 146.415 18.032C146.095 17.696 145.935 17.304 145.935 16.856C145.935 16.392 146.095 15.992 146.415 15.656C146.751 15.32 147.151 15.152 147.615 15.152C148.063 15.152 148.447 15.32 148.767 15.656C149.087 15.992 149.247 16.392 149.247 16.856C149.247 17.304 149.087 17.696 148.767 18.032C148.447 18.352 148.063 18.512 147.615 18.512ZM153.883 29.12L154.123 25.76C155.083 25.76 155.819 25.712 156.331 25.616C156.843 25.52 157.195 25.344 157.387 25.088C157.595 24.816 157.699 24.432 157.699 23.936C157.699 23.488 157.635 22.952 157.507 22.328C157.395 21.704 157.243 21.056 157.051 20.384C156.875 19.712 156.683 19.096 156.475 18.536L159.787 17.624C159.995 18.168 160.195 18.8 160.387 19.52C160.579 20.24 160.739 20.984 160.867 21.752C160.995 22.504 161.059 23.232 161.059 23.936C161.059 25.024 160.883 25.912 160.531 26.6C160.179 27.272 159.683 27.792 159.043 28.16C158.419 28.528 157.667 28.784 156.787 28.928C155.907 29.056 154.939 29.12 153.883 29.12ZM160.387 15.68C159.923 15.68 159.523 15.52 159.187 15.2C158.867 14.864 158.707 14.472 158.707 14.024C158.707 13.56 158.867 13.16 159.187 12.824C159.523 12.488 159.923 12.32 160.387 12.32C160.835 12.32 161.219 12.488 161.539 12.824C161.859 13.16 162.019 13.56 162.019 14.024C162.019 14.472 161.859 14.864 161.539 15.2C161.219 15.52 160.835 15.68 160.387 15.68ZM156.235 15.656C155.771 15.656 155.371 15.496 155.035 15.176C154.715 14.84 154.555 14.448 154.555 14C154.555 13.536 154.715 13.136 155.035 12.8C155.371 12.464 155.771 12.296 156.235 12.296C156.683 12.296 157.067 12.464 157.387 12.8C157.707 13.136 157.867 13.536 157.867 14C157.867 14.448 157.707 14.84 157.387 15.176C157.067 15.496 156.683 15.656 156.235 15.656ZM163.876 34.52L163.18 31.16C164.316 31.016 165.308 30.84 166.156 30.632C167.004 30.44 167.716 30.168 168.292 29.816C168.868 29.464 169.3 28.984 169.588 28.376C169.876 27.752 170.02 26.952 170.02 25.976C170.02 25.624 169.988 25.272 169.924 24.92C169.86 24.552 169.764 24.216 169.636 23.912C169.508 23.608 169.34 23.36 169.132 23.168C168.94 22.976 168.708 22.88 168.436 22.88C168.148 22.88 167.892 22.984 167.668 23.192C167.444 23.384 167.268 23.632 167.14 23.936C167.012 24.224 166.948 24.52 166.948 24.824C166.948 25.048 167.004 25.24 167.116 25.4C167.228 25.544 167.396 25.656 167.62 25.736C167.844 25.8 168.124 25.832 168.46 25.832C168.844 25.832 169.236 25.792 169.636 25.712C170.052 25.616 170.428 25.488 170.764 25.328L170.86 27.944C170.476 28.248 170.036 28.52 169.54 28.76C169.044 28.984 168.444 29.096 167.74 29.096C167.164 29.096 166.628 29.032 166.132 28.904C165.636 28.76 165.196 28.544 164.812 28.256C164.444 27.968 164.156 27.6 163.948 27.152C163.74 26.688 163.636 26.136 163.636 25.496C163.636 24.712 163.764 23.952 164.02 23.216C164.276 22.48 164.628 21.824 165.076 21.248C165.54 20.656 166.068 20.192 166.66 19.856C167.268 19.504 167.908 19.328 168.58 19.328C169.38 19.328 170.076 19.528 170.668 19.928C171.276 20.328 171.78 20.856 172.18 21.512C172.58 22.152 172.884 22.848 173.092 23.6C173.3 24.352 173.404 25.072 173.404 25.76C173.404 27.568 173.02 29.104 172.252 30.368C171.484 31.632 170.388 32.608 168.964 33.296C167.54 34 165.844 34.408 163.876 34.52Z" fill="#4E4DA2"/>
<path d="M154.833 332.794L67.0989 332.741C56.5448 332.741 47.9932 323.928 48 313.067L48.0406 86.6668C48.0406 75.7997 56.6057 66.9934 67.1666 67L154.901 67.053C165.455 67.053 174.007 75.866 174 86.7265L173.959 313.14C173.959 323.994 165.394 332.8 154.833 332.794Z" fill="#4E4DA2"/>
<path d="M154.807 75.0576H137.798C135.518 75.0576 133.665 77.0455 133.665 79.4972V82.6712C133.665 85.1295 131.818 87.1174 129.538 87.1174H96.3869C94.1002 87.1174 92.2532 85.1295 92.2532 82.6712V79.4906C92.2532 77.0388 90.4062 75.0443 88.1263 75.0443H82.1388H67.2548C59.8602 75.0443 53.8592 81.2068 53.8592 88.8204L53.8186 309.807C53.8186 317.414 59.806 323.583 67.1939 323.583L154.759 323.636C162.154 323.636 168.148 317.474 168.148 309.86L168.196 88.8402C168.196 81.22 162.201 75.0642 154.807 75.0576Z" fill="white"/>
<g opacity="0.5">
<path d="M127.088 183.576C127.088 184.756 126.731 185.909 126.062 186.89C125.393 187.87 124.442 188.635 123.329 189.086C122.217 189.538 120.993 189.656 119.811 189.426C118.63 189.195 117.545 188.627 116.694 187.793C115.842 186.959 115.262 185.897 115.027 184.74C114.792 183.583 114.913 182.384 115.374 181.294C115.835 180.205 116.615 179.273 117.616 178.618C118.618 177.963 119.795 177.613 120.999 177.613C122.614 177.613 124.163 178.241 125.305 179.36C126.447 180.478 127.088 181.995 127.088 183.576Z" fill="white"/>
</g>
<g opacity="0.6">
<path d="M140.335 172.159C140.332 173.3 139.984 174.415 139.335 175.362C138.686 176.309 137.765 177.047 136.688 177.482C135.611 177.917 134.427 178.029 133.284 177.805C132.142 177.581 131.093 177.03 130.271 176.222C129.448 175.414 128.888 174.386 128.662 173.267C128.436 172.148 128.553 170.988 128.999 169.934C129.446 168.88 130.201 167.98 131.17 167.346C132.139 166.712 133.277 166.374 134.442 166.374C135.217 166.375 135.984 166.525 136.699 166.817C137.415 167.108 138.065 167.534 138.612 168.071C139.159 168.608 139.593 169.246 139.889 169.947C140.184 170.649 140.336 171.4 140.335 172.159Z" fill="white"/>
</g>
<g opacity="0.7">
<path d="M137.595 160.126C140.614 160.126 143.061 157.723 143.061 154.759C143.061 151.794 140.614 149.391 137.595 149.391C134.576 149.391 132.128 151.794 132.128 154.759C132.128 157.723 134.576 160.126 137.595 160.126Z" fill="white"/>
</g>
<g opacity="0.2">
<path d="M100.845 214.428L94.668 230.338H99.2076L104.958 214.428H100.845Z" fill="white"/>
</g>
<g opacity="0.2">
<path d="M111.751 215.628L106 230.437H108.707C109.423 230.287 110.121 230.065 110.79 229.775L114.748 218.802C114.041 217.511 113.009 216.419 111.751 215.628Z" fill="white"/>
</g>
<g opacity="0.2">
<path d="M78.8911 214.409L73.2148 229.039C74.4274 229.812 75.8289 230.254 77.2741 230.318L83.0315 214.415L78.8911 214.409Z" fill="white"/>
</g>
<path d="M155.276 151.527C148.635 133.768 132.692 127.081 120.114 139.005C115.202 143.657 112.137 151.061 106.123 154.032C100.48 156.818 93.3307 155.998 87.2282 157.507C74.2331 160.7 56.7373 172.815 58.072 191.482C58.6566 199.659 63.3603 208.74 65.6854 216.391C68.3549 225.194 69.9566 236.207 77.0227 241.469C89.1369 250.504 103.75 243.119 114.663 235.834C120.535 231.918 123.768 229.511 130.092 230.854C135.946 232.106 141.219 236.489 146.939 231.289C151.235 227.385 151.59 219.474 155.196 214.829C159.259 209.595 163.378 209.216 165.49 201.349C168.05 191.804 164.278 185.841 161.728 177.313C159.179 168.786 158.405 159.883 155.276 151.527Z" fill="#F5D8DA"/>
<g opacity="0.7">
<path d="M155.276 151.527C148.635 133.768 132.692 127.081 120.114 139.005C115.202 143.657 112.137 151.061 106.123 154.032C100.48 156.818 93.3307 155.998 87.2282 157.507C74.2331 160.7 56.7373 172.815 58.072 191.482C58.6566 199.659 63.3603 208.74 65.6854 216.391C68.3549 225.194 69.9566 236.207 77.0227 241.469C89.1369 250.504 103.75 243.119 114.663 235.834C120.535 231.918 123.768 229.511 130.092 230.854C135.946 232.106 141.219 236.489 146.939 231.289C151.235 227.385 151.59 219.474 155.196 214.829C159.259 209.595 163.378 209.216 165.49 201.349C168.05 191.804 164.278 185.841 161.728 177.313C159.179 168.786 158.405 159.883 155.276 151.527Z" fill="white"/>
</g>
<path d="M154.998 225.47C151.186 226.752 104.871 226.275 75.9569 226.53C75.0486 226.551 74.1671 226.192 73.4936 225.525C72.8201 224.859 72.4058 223.935 72.3358 222.945C71.0437 202.192 69.5869 176.697 70.1134 166.363C70.103 165.88 70.1818 165.399 70.3452 164.949C70.5086 164.5 70.7532 164.091 71.0645 163.748C71.3757 163.404 71.7471 163.133 72.1565 162.95C72.5659 162.767 73.0048 162.676 73.447 162.683C81.6551 161.623 122.027 161.825 152.488 161.623C153.397 161.601 154.28 161.96 154.954 162.628C155.628 163.295 156.043 164.22 156.112 165.212C156.971 174.306 157.727 201.143 158.334 221.793C158.344 222.277 158.264 222.757 158.101 223.206C157.937 223.655 157.692 224.063 157.38 224.406C157.069 224.75 156.697 225.021 156.288 225.203C155.879 225.386 155.44 225.477 154.998 225.47Z" fill="#D75B61"/>
<path opacity="0.6" d="M154.998 225.47C151.186 226.752 104.871 226.275 75.9569 226.53C75.0486 226.551 74.1671 226.192 73.4936 225.525C72.8201 224.859 72.4058 223.935 72.3358 222.945C71.0437 202.192 69.5869 176.697 70.1134 166.363C70.103 165.88 70.1818 165.399 70.3452 164.949C70.5086 164.5 70.7532 164.091 71.0645 163.748C71.3757 163.404 71.7471 163.133 72.1565 162.95C72.5659 162.767 73.0048 162.676 73.447 162.683C81.6551 161.623 122.027 161.825 152.488 161.623C153.397 161.601 154.28 161.96 154.954 162.628C155.628 163.295 156.043 164.22 156.112 165.212C156.971 174.306 157.727 201.143 158.334 221.793C158.344 222.277 158.264 222.757 158.101 223.206C157.937 223.655 157.692 224.063 157.38 224.406C157.069 224.75 156.697 225.021 156.288 225.203C155.879 225.386 155.44 225.477 154.998 225.47Z" fill="white"/>
<path d="M96.7787 199.478C96.7787 201.517 94.9185 203.171 92.6239 203.171C90.3292 203.171 88.469 201.517 88.469 199.478C88.469 197.438 90.3292 195.785 92.6239 195.785C94.9185 195.785 96.7787 197.438 96.7787 199.478ZM88.9562 199.478C88.9562 201.278 90.5982 202.738 92.6239 202.738C94.6495 202.738 96.2915 201.278 96.2915 199.478C96.2915 197.677 94.6495 196.218 92.6239 196.218C90.5982 196.218 88.9562 197.677 88.9562 199.478Z" fill="#4E4DA2"/>
<path d="M96.552 199.478C96.6772 199.478 96.7795 199.579 96.7709 199.704C96.7204 200.435 96.4264 201.138 95.9234 201.722C95.3687 202.367 94.5908 202.831 93.7097 203.043C92.8287 203.255 91.8936 203.203 91.049 202.895C90.2043 202.588 89.4971 202.042 89.0366 201.341C88.5761 200.641 88.3879 199.825 88.5011 199.02C88.6143 198.215 89.0226 197.465 89.6629 196.887C90.3032 196.309 91.1399 195.934 92.0437 195.821C92.87 195.717 93.7104 195.837 94.4562 196.163C94.5684 196.212 94.6064 196.35 94.5409 196.453V196.453C94.484 196.543 94.3687 196.575 94.2716 196.532C93.6034 196.236 92.8489 196.127 92.107 196.22C91.3018 196.321 90.5565 196.655 89.986 197.17C89.4156 197.685 89.0519 198.353 88.951 199.07C88.8502 199.787 89.0179 200.514 89.4281 201.138C89.8384 201.762 90.4684 202.248 91.2209 202.522C91.9733 202.796 92.8064 202.842 93.5912 202.654C94.3761 202.465 95.0692 202.051 95.5633 201.477C96.0057 200.963 96.2666 200.346 96.3165 199.704C96.3262 199.579 96.4268 199.478 96.552 199.478V199.478Z" fill="url(#paint0_linear_123_787)"/>
<path d="M85.6991 199.478C85.6991 201.517 83.8389 203.171 81.5443 203.171C79.2496 203.171 77.3894 201.517 77.3894 199.478C77.3894 197.438 79.2496 195.785 81.5443 195.785C83.8389 195.785 85.6991 197.438 85.6991 199.478ZM77.8766 199.478C77.8766 201.278 79.5187 202.738 81.5443 202.738C83.5699 202.738 85.212 201.278 85.212 199.478C85.212 197.677 83.5699 196.218 81.5443 196.218C79.5187 196.218 77.8766 197.677 77.8766 199.478Z" fill="#4E4DA2"/>
<path d="M85.4724 199.478C85.5976 199.478 85.6999 199.579 85.6913 199.704C85.6408 200.435 85.3468 201.138 84.8439 201.722C84.2892 202.367 83.5112 202.831 82.6302 203.043C81.7491 203.255 80.8141 203.203 79.9694 202.895C79.1248 202.588 78.4175 202.042 77.957 201.341C77.4965 200.641 77.3083 199.825 77.4215 199.02C77.5347 198.215 77.943 197.465 78.5833 196.887C79.2236 196.309 80.0603 195.934 80.9641 195.821C81.7904 195.717 82.6309 195.837 83.3766 196.163C83.4888 196.212 83.5269 196.35 83.4613 196.453V196.453C83.4044 196.543 83.2891 196.575 83.192 196.532C82.5238 196.236 81.7693 196.127 81.0274 196.22C80.2222 196.321 79.4769 196.655 78.9064 197.17C78.336 197.685 77.9723 198.353 77.8714 199.07C77.7706 199.787 77.9383 200.514 78.3485 201.138C78.7588 201.762 79.3888 202.248 80.1413 202.522C80.8937 202.796 81.7268 202.842 82.5116 202.654C83.2965 202.465 83.9896 202.051 84.4837 201.477C84.9261 200.963 85.187 200.346 85.2369 199.704C85.2466 199.579 85.3472 199.478 85.4724 199.478V199.478Z" fill="url(#paint1_linear_123_787)"/>
<path d="M88.839 225.403C82.7661 225.403 78.5636 225.29 77.5073 224.997H77.4912C75.6338 224.997 74.0703 223.531 73.9993 221.716L73.8927 219.597C72.9882 201.419 71.8609 178.795 72.0191 171.028C72.0065 170.623 72.0689 170.219 72.2027 169.841C72.3365 169.463 72.5388 169.118 72.7976 168.828C73.1226 168.467 73.5105 168.181 73.9382 167.987C74.366 167.793 74.825 167.695 75.2881 167.698C82.1169 167.599 89.5916 167.468 96.8209 167.345C120.285 166.939 144.551 166.518 150.585 167.108H150.614C152.462 167.108 154.025 168.574 154.096 170.389C155.301 179.24 155.773 200.981 156.076 221.08C156.089 221.486 156.027 221.891 155.893 222.271C155.759 222.65 155.557 222.996 155.298 223.287C154.972 223.647 154.585 223.933 154.157 224.127C153.729 224.321 153.27 224.42 152.807 224.418C144.813 224.516 135.264 224.7 126.032 224.88C112.3 225.131 98.3004 225.403 88.839 225.403ZM77.517 224.82H77.5396C80.169 225.569 103.482 225.12 126.029 224.689C135.261 224.509 144.809 224.336 152.807 224.227C153.248 224.231 153.684 224.14 154.092 223.958C154.499 223.776 154.87 223.507 155.182 223.167C155.426 222.892 155.616 222.566 155.742 222.209C155.868 221.852 155.927 221.47 155.915 221.087C155.611 200.992 155.14 179.257 153.938 170.403C153.867 168.676 152.378 167.285 150.604 167.285H150.579C144.544 166.695 120.285 167.115 96.8209 167.521C89.5949 167.645 82.1201 167.776 75.2914 167.875C74.8506 167.87 74.4135 167.961 74.0053 168.143C73.5971 168.325 73.2262 168.594 72.9139 168.934C72.67 169.209 72.4793 169.535 72.3533 169.892C72.2273 170.25 72.1686 170.631 72.1806 171.014C72.0224 178.784 73.1497 201.387 74.0542 219.572L74.1608 221.691C74.2286 223.411 75.7178 224.803 77.4912 224.803L77.517 224.82Z" fill="#D75B61"/>
<path d="M113.741 180.511L112.41 180.529L112.385 179.9L113.651 178.23H114.297L114.365 179.921H114.688L114.71 180.515H114.387L114.407 181.03H113.761L113.741 180.511ZM113.719 179.921L113.686 179.053L113.014 179.928L113.719 179.921Z" fill="white"/>
<path d="M113.958 188.402L114.067 191.199H113.328L113.253 189.366C113.147 189.456 113.033 189.535 112.914 189.602C112.781 189.672 112.643 189.73 112.501 189.775L112.475 189.15C112.68 189.086 112.873 188.981 113.043 188.84C113.176 188.721 113.282 188.57 113.35 188.398L113.958 188.402Z" fill="white"/>
<path d="M115.804 188.402L115.914 191.199H115.171L115.1 189.366C114.994 189.454 114.88 189.532 114.761 189.599C114.628 189.67 114.489 189.729 114.347 189.775L114.322 189.147C114.527 189.083 114.719 188.979 114.89 188.84C115.028 188.722 115.139 188.571 115.213 188.398L115.804 188.402Z" fill="white"/>
<path d="M113.506 197.46L113.615 200.257H112.876L112.805 198.424C112.698 198.513 112.585 198.591 112.465 198.657C112.332 198.728 112.194 198.787 112.052 198.834L112.026 198.205C112.231 198.141 112.424 198.037 112.595 197.898C112.733 197.78 112.843 197.629 112.918 197.456L113.506 197.46Z" fill="white"/>
<path d="M114.794 198.763C114.694 198.713 114.605 198.641 114.533 198.551C114.457 198.445 114.415 198.315 114.413 198.18C114.409 198.066 114.434 197.953 114.484 197.852C114.535 197.752 114.61 197.669 114.701 197.612C114.896 197.485 115.12 197.424 115.347 197.435C115.623 197.409 115.9 197.479 116.138 197.636C116.218 197.694 116.284 197.771 116.331 197.862C116.378 197.953 116.405 198.055 116.409 198.159C116.417 198.284 116.386 198.408 116.322 198.512C116.262 198.607 116.185 198.688 116.096 198.749C116.225 198.808 116.337 198.904 116.419 199.028C116.492 199.142 116.533 199.277 116.539 199.416C116.545 199.551 116.52 199.685 116.464 199.805C116.416 199.916 116.343 200.012 116.251 200.084C116.154 200.157 116.044 200.207 115.928 200.232C115.791 200.266 115.652 200.282 115.511 200.282C115.293 200.295 115.074 200.264 114.865 200.19C114.724 200.131 114.602 200.026 114.516 199.89C114.434 199.757 114.388 199.601 114.384 199.441C114.373 199.298 114.405 199.154 114.474 199.032C114.552 198.907 114.664 198.813 114.794 198.763ZM115.117 199.402C115.12 199.515 115.163 199.621 115.237 199.699C115.302 199.77 115.39 199.811 115.482 199.812C115.527 199.81 115.57 199.798 115.61 199.777C115.65 199.755 115.686 199.725 115.715 199.688C115.748 199.649 115.773 199.602 115.789 199.55C115.804 199.499 115.81 199.445 115.805 199.392C115.806 199.336 115.796 199.281 115.776 199.23C115.756 199.179 115.726 199.133 115.689 199.095C115.657 199.058 115.619 199.028 115.576 199.009C115.533 198.989 115.487 198.98 115.44 198.982C115.397 198.983 115.353 198.993 115.313 199.012C115.273 199.032 115.237 199.06 115.208 199.095C115.173 199.136 115.146 199.185 115.129 199.238C115.112 199.29 115.105 199.346 115.108 199.402H115.117ZM115.117 198.216C115.117 198.259 115.126 198.302 115.142 198.341C115.158 198.381 115.182 198.416 115.211 198.445C115.276 198.504 115.359 198.534 115.444 198.53C115.481 198.531 115.519 198.524 115.554 198.509C115.589 198.494 115.62 198.471 115.647 198.442C115.673 198.411 115.692 198.376 115.704 198.337C115.717 198.298 115.721 198.257 115.718 198.216C115.711 198.153 115.688 198.094 115.652 198.044C115.617 197.994 115.57 197.956 115.516 197.933C115.462 197.91 115.404 197.903 115.347 197.913C115.29 197.923 115.236 197.949 115.192 197.99C115.163 198.018 115.139 198.053 115.124 198.092C115.108 198.131 115.1 198.173 115.101 198.216H115.117Z" fill="white"/>
<path d="M114.562 209.86L112.365 209.888C112.382 209.658 112.453 209.436 112.572 209.245C112.765 208.971 112.997 208.732 113.26 208.539C113.406 208.431 113.54 208.302 113.657 208.157C113.708 208.087 113.736 208 113.738 207.91C113.736 207.869 113.727 207.828 113.71 207.791C113.694 207.754 113.67 207.721 113.641 207.695C113.578 207.635 113.495 207.605 113.412 207.61C113.37 207.608 113.328 207.616 113.29 207.632C113.251 207.648 113.215 207.673 113.186 207.705C113.119 207.798 113.082 207.912 113.079 208.03L112.346 207.977C112.354 207.799 112.401 207.626 112.485 207.472C112.563 207.344 112.676 207.245 112.808 207.19C112.991 207.113 113.187 207.078 113.383 207.087C113.587 207.075 113.791 207.103 113.987 207.169C114.125 207.223 114.246 207.32 114.336 207.448C114.421 207.57 114.469 207.718 114.474 207.871C114.481 208.043 114.438 208.212 114.352 208.355C114.22 208.558 114.053 208.731 113.861 208.864C113.715 208.973 113.622 209.047 113.573 209.093C113.514 209.147 113.458 209.203 113.405 209.263L114.549 209.245L114.562 209.86Z" fill="white"/>
<path d="M115.075 207.098L116.813 207.077L116.839 207.688H115.66L115.615 208.101C115.691 208.062 115.77 208.032 115.851 208.009C115.928 207.989 116.007 207.977 116.087 207.974C116.322 207.962 116.553 208.049 116.733 208.217C116.816 208.295 116.883 208.39 116.93 208.498C116.977 208.606 117.002 208.723 117.004 208.843C117.01 209.021 116.974 209.197 116.897 209.355C116.821 209.518 116.701 209.652 116.552 209.736C116.367 209.832 116.165 209.88 115.961 209.874C115.81 209.879 115.659 209.863 115.512 209.828C115.295 209.777 115.103 209.643 114.969 209.45C114.907 209.351 114.858 209.243 114.823 209.129L115.56 209.033C115.575 209.141 115.623 209.241 115.696 209.316C115.762 209.377 115.847 209.41 115.935 209.408C115.982 209.408 116.029 209.397 116.072 209.376C116.115 209.355 116.153 209.323 116.183 209.284C116.241 209.175 116.268 209.051 116.263 208.926C116.258 208.801 116.22 208.68 116.154 208.578C116.119 208.54 116.076 208.51 116.029 208.49C115.983 208.471 115.933 208.462 115.883 208.465C115.812 208.466 115.742 208.485 115.68 208.521C115.621 208.559 115.568 208.608 115.524 208.666L114.895 208.581L115.075 207.098Z" fill="white"/>
<path d="M123.765 178.141L125.503 178.12L125.525 178.727H124.349L124.301 179.141C124.377 179.1 124.457 179.068 124.54 179.045C124.617 179.025 124.696 179.014 124.776 179.014C125.011 179.002 125.242 179.088 125.422 179.254C125.503 179.332 125.569 179.428 125.616 179.536C125.662 179.643 125.687 179.76 125.69 179.879C125.699 180.058 125.663 180.237 125.583 180.394C125.509 180.558 125.389 180.691 125.241 180.776C125.057 180.872 124.854 180.919 124.65 180.91C124.499 180.916 124.348 180.902 124.201 180.868C124.086 180.838 123.977 180.787 123.878 180.716C123.793 180.653 123.719 180.576 123.658 180.486C123.594 180.389 123.545 180.28 123.513 180.165L124.252 180.077C124.267 180.184 124.315 180.282 124.388 180.356C124.454 180.418 124.539 180.452 124.627 180.451C124.675 180.451 124.721 180.44 124.764 180.418C124.807 180.396 124.845 180.364 124.876 180.324C124.942 180.221 124.972 180.096 124.96 179.971C124.963 179.842 124.923 179.716 124.847 179.617C124.81 179.58 124.767 179.55 124.72 179.531C124.673 179.513 124.622 179.505 124.572 179.508C124.502 179.508 124.433 179.527 124.372 179.564C124.312 179.602 124.258 179.651 124.214 179.709L123.587 179.625L123.765 178.141Z" fill="white"/>
<path d="M125.034 188.398L125.144 191.199H124.404L124.333 189.362C124.227 189.453 124.114 189.532 123.994 189.599C123.86 189.67 123.72 189.728 123.577 189.772L123.554 189.147C123.76 189.082 123.952 188.977 124.123 188.836C124.255 188.718 124.36 188.568 124.43 188.398H125.034Z" fill="white"/>
<path d="M127.62 191.177L125.424 191.205C125.441 190.975 125.511 190.754 125.627 190.562C125.821 190.287 126.054 190.048 126.319 189.856C126.464 189.748 126.597 189.619 126.713 189.474C126.765 189.404 126.793 189.317 126.793 189.227C126.792 189.186 126.782 189.145 126.766 189.108C126.749 189.071 126.725 189.038 126.696 189.012C126.634 188.953 126.553 188.922 126.47 188.927C126.429 188.925 126.387 188.932 126.348 188.948C126.309 188.965 126.274 188.99 126.244 189.022C126.175 189.114 126.137 189.229 126.138 189.347L125.401 189.294C125.411 189.116 125.458 188.943 125.54 188.789C125.619 188.661 125.732 188.563 125.863 188.507C126.046 188.43 126.242 188.394 126.438 188.401C126.642 188.389 126.847 188.418 127.042 188.485C127.181 188.539 127.302 188.636 127.391 188.764C127.477 188.886 127.527 189.034 127.533 189.188C127.538 189.359 127.495 189.528 127.41 189.672C127.278 189.875 127.11 190.048 126.916 190.181C126.774 190.29 126.677 190.364 126.629 190.41C126.58 190.456 126.525 190.509 126.461 190.58L127.604 190.562L127.62 191.177Z" fill="white"/>
<path d="M124.576 197.312L124.685 200.112H123.946L123.875 198.279C123.769 198.37 123.655 198.449 123.535 198.516C123.402 198.585 123.264 198.643 123.122 198.689L123.09 198.089C123.295 198.024 123.488 197.918 123.658 197.778C123.796 197.662 123.907 197.512 123.981 197.34L124.576 197.312Z" fill="white"/>
<path d="M125.483 199.501L126.207 199.395C126.219 199.48 126.256 199.558 126.314 199.618C126.362 199.66 126.423 199.683 126.485 199.681C126.541 199.682 126.596 199.664 126.643 199.631C126.69 199.598 126.727 199.55 126.75 199.494C126.811 199.307 126.841 199.11 126.837 198.911C126.763 198.999 126.674 199.07 126.575 199.12C126.474 199.169 126.363 199.193 126.252 199.19C126.14 199.194 126.028 199.174 125.924 199.13C125.819 199.086 125.723 199.02 125.642 198.936C125.559 198.851 125.492 198.749 125.446 198.636C125.4 198.522 125.375 198.4 125.374 198.276C125.364 198.101 125.4 197.927 125.477 197.774C125.55 197.624 125.662 197.501 125.8 197.421C125.969 197.336 126.153 197.295 126.339 197.301C126.561 197.287 126.783 197.332 126.985 197.432C127.155 197.534 127.293 197.689 127.383 197.877C127.497 198.13 127.557 198.409 127.557 198.692C127.605 199.08 127.513 199.472 127.302 199.787C127.196 199.907 127.069 200.001 126.927 200.062C126.785 200.123 126.633 200.149 126.482 200.14C126.313 200.149 126.145 200.125 125.984 200.07C125.862 200.028 125.751 199.954 125.661 199.854C125.582 199.75 125.521 199.63 125.483 199.501ZM126.775 198.254C126.779 198.124 126.736 197.998 126.656 197.901C126.621 197.862 126.579 197.831 126.533 197.81C126.487 197.789 126.438 197.778 126.388 197.778C126.343 197.777 126.298 197.788 126.258 197.809C126.217 197.829 126.181 197.86 126.152 197.898C126.117 197.948 126.092 198.004 126.078 198.065C126.063 198.126 126.06 198.189 126.068 198.251C126.066 198.38 126.106 198.505 126.181 198.604C126.213 198.644 126.252 198.675 126.296 198.696C126.34 198.716 126.388 198.726 126.436 198.724C126.484 198.725 126.531 198.715 126.575 198.693C126.619 198.672 126.657 198.64 126.688 198.601C126.727 198.551 126.755 198.493 126.772 198.43C126.788 198.367 126.791 198.301 126.782 198.237L126.775 198.254Z" fill="white"/>
<path d="M125.629 209.712L123.432 209.743C123.448 209.514 123.519 209.292 123.635 209.101C123.83 208.826 124.063 208.588 124.327 208.394C124.474 208.285 124.607 208.156 124.724 208.009C124.775 207.938 124.803 207.852 124.805 207.762C124.804 207.721 124.794 207.681 124.778 207.644C124.761 207.608 124.737 207.576 124.708 207.55C124.645 207.489 124.563 207.457 124.479 207.462C124.395 207.46 124.314 207.494 124.252 207.557C124.187 207.652 124.149 207.767 124.146 207.886L123.413 207.833C123.422 207.654 123.468 207.48 123.548 207.324C123.628 207.198 123.741 207.101 123.871 207.045C124.056 206.969 124.252 206.933 124.45 206.939C124.654 206.928 124.858 206.956 125.054 207.024C125.192 207.078 125.313 207.175 125.402 207.303C125.489 207.425 125.537 207.573 125.541 207.727C125.548 207.898 125.505 208.067 125.419 208.211C125.285 208.411 125.118 208.584 124.928 208.719C124.782 208.829 124.689 208.903 124.64 208.945C124.581 208.998 124.525 209.055 124.472 209.115H125.612L125.629 209.712Z" fill="white"/>
<path d="M127.977 207.55L127.253 207.652C127.238 207.568 127.201 207.49 127.147 207.426C127.1 207.384 127.04 207.361 126.979 207.363C126.921 207.363 126.865 207.382 126.817 207.417C126.769 207.451 126.731 207.5 126.707 207.557C126.649 207.743 126.621 207.939 126.627 208.136C126.701 208.049 126.79 207.977 126.888 207.924C127.042 207.855 127.211 207.836 127.374 207.87C127.537 207.903 127.688 207.987 127.809 208.112C127.893 208.196 127.96 208.297 128.007 208.411C128.054 208.525 128.079 208.648 128.08 208.772C128.088 208.946 128.052 209.12 127.977 209.274C127.904 209.424 127.792 209.547 127.654 209.627C127.484 209.713 127.298 209.756 127.111 209.75C126.889 209.765 126.668 209.72 126.465 209.62C126.295 209.518 126.157 209.363 126.068 209.175C125.952 208.921 125.891 208.642 125.89 208.359C125.843 207.971 125.936 207.578 126.149 207.264C126.254 207.144 126.381 207.051 126.522 206.99C126.663 206.929 126.814 206.902 126.966 206.911C127.135 206.901 127.305 206.923 127.466 206.978C127.588 207.022 127.699 207.097 127.79 207.197C127.874 207.299 127.938 207.419 127.977 207.55ZM126.685 208.793C126.683 208.924 126.727 209.05 126.808 209.146C126.841 209.187 126.883 209.219 126.929 209.241C126.975 209.262 127.025 209.272 127.076 209.27C127.121 209.27 127.165 209.259 127.206 209.239C127.248 209.219 127.284 209.19 127.315 209.153C127.349 209.103 127.373 209.046 127.387 208.986C127.401 208.925 127.404 208.862 127.395 208.8C127.399 208.671 127.358 208.546 127.282 208.447C127.25 208.409 127.211 208.378 127.167 208.358C127.124 208.337 127.076 208.326 127.029 208.326C126.981 208.326 126.934 208.337 126.89 208.358C126.847 208.378 126.808 208.409 126.775 208.447C126.738 208.495 126.711 208.55 126.693 208.609C126.676 208.669 126.67 208.731 126.675 208.793H126.685Z" fill="white"/>
<path d="M136.647 178.59L135.923 178.692C135.911 178.608 135.875 178.53 135.82 178.47C135.772 178.427 135.711 178.404 135.649 178.406C135.592 178.408 135.537 178.426 135.49 178.46C135.442 178.493 135.405 178.541 135.381 178.597C135.321 178.783 135.292 178.979 135.297 179.176C135.372 179.09 135.461 179.02 135.558 178.968C135.66 178.92 135.77 178.896 135.881 178.897C135.994 178.894 136.106 178.916 136.211 178.96C136.316 179.005 136.412 179.072 136.493 179.157C136.575 179.243 136.64 179.345 136.685 179.458C136.73 179.571 136.755 179.692 136.757 179.815C136.767 179.989 136.731 180.162 136.653 180.313C136.583 180.465 136.469 180.589 136.33 180.666C136.16 180.751 135.975 180.794 135.788 180.79C135.565 180.804 135.344 180.758 135.142 180.656C134.97 180.555 134.831 180.4 134.741 180.211C134.627 179.958 134.567 179.68 134.567 179.399C134.519 179.01 134.61 178.617 134.822 178.3C134.928 178.181 135.056 178.088 135.197 178.027C135.339 177.967 135.49 177.939 135.642 177.947C135.812 177.938 135.981 177.962 136.143 178.018C136.265 178.06 136.376 178.136 136.466 178.237C136.547 178.34 136.609 178.46 136.647 178.59ZM135.355 179.833C135.352 179.964 135.396 180.09 135.478 180.186C135.512 180.226 135.553 180.258 135.599 180.279C135.646 180.301 135.695 180.311 135.746 180.31C135.79 180.309 135.834 180.298 135.875 180.278C135.915 180.258 135.952 180.229 135.981 180.193C136.051 180.092 136.081 179.965 136.065 179.84C136.068 179.711 136.026 179.585 135.949 179.487C135.917 179.45 135.877 179.42 135.834 179.4C135.791 179.38 135.744 179.369 135.697 179.369C135.65 179.369 135.603 179.38 135.56 179.4C135.517 179.42 135.478 179.45 135.445 179.487C135.408 179.534 135.38 179.589 135.363 179.649C135.347 179.708 135.342 179.771 135.348 179.833H135.355Z" fill="white"/>
<path d="M136.113 188.402L136.223 191.199H135.484L135.413 189.366C135.305 189.454 135.192 189.533 135.073 189.602C134.94 189.672 134.802 189.729 134.66 189.775L134.634 189.147C134.84 189.084 135.032 188.98 135.203 188.84C135.335 188.72 135.44 188.569 135.509 188.398L136.113 188.402Z" fill="white"/>
<path d="M137.178 189.251L136.481 189.131C136.522 188.914 136.637 188.724 136.804 188.598C137.009 188.457 137.25 188.389 137.492 188.403C137.755 188.378 138.019 188.445 138.244 188.594C138.319 188.651 138.38 188.726 138.423 188.813C138.466 188.9 138.49 188.997 138.493 189.096C138.501 189.211 138.473 189.326 138.412 189.421C138.342 189.529 138.249 189.617 138.141 189.678C138.224 189.695 138.305 189.724 138.38 189.767C138.469 189.821 138.544 189.9 138.596 189.997C138.649 190.093 138.676 190.202 138.677 190.314C138.683 190.476 138.647 190.636 138.574 190.777C138.501 190.928 138.389 191.051 138.251 191.13C138.065 191.22 137.863 191.262 137.66 191.254C137.468 191.265 137.275 191.239 137.091 191.176C136.956 191.124 136.835 191.037 136.739 190.922C136.64 190.798 136.564 190.654 136.516 190.498L137.243 190.385C137.261 190.505 137.313 190.616 137.392 190.703C137.455 190.764 137.539 190.796 137.624 190.791C137.67 190.791 137.715 190.781 137.757 190.761C137.799 190.741 137.836 190.711 137.866 190.674C137.898 190.633 137.922 190.585 137.936 190.534C137.951 190.482 137.956 190.428 137.95 190.374C137.952 190.32 137.944 190.265 137.926 190.215C137.908 190.164 137.881 190.117 137.847 190.077C137.812 190.042 137.771 190.015 137.726 189.998C137.681 189.98 137.633 189.972 137.585 189.975C137.505 189.98 137.426 189.997 137.35 190.024L137.366 189.477C137.398 189.48 137.43 189.48 137.463 189.477C137.506 189.479 137.549 189.471 137.59 189.454C137.63 189.437 137.667 189.411 137.699 189.378C137.727 189.35 137.75 189.315 137.765 189.276C137.78 189.237 137.787 189.195 137.786 189.152C137.786 189.114 137.779 189.077 137.765 189.042C137.751 189.007 137.731 188.976 137.705 188.951C137.678 188.925 137.646 188.905 137.611 188.893C137.577 188.881 137.541 188.877 137.505 188.88C137.429 188.877 137.355 188.906 137.298 188.961C137.229 189.04 137.186 189.142 137.178 189.251Z" fill="white"/>
<path d="M136.324 199.957L134.127 199.985C134.144 199.755 134.214 199.534 134.331 199.342C134.524 199.066 134.757 198.827 135.022 198.636C135.168 198.527 135.301 198.397 135.416 198.251C135.468 198.181 135.497 198.094 135.497 198.004C135.495 197.962 135.486 197.922 135.469 197.885C135.453 197.848 135.429 197.815 135.4 197.788C135.337 197.729 135.256 197.699 135.174 197.703C135.132 197.702 135.091 197.709 135.052 197.725C135.013 197.742 134.978 197.767 134.948 197.799C134.879 197.89 134.841 198.005 134.841 198.124L134.105 198.071C134.115 197.893 134.162 197.72 134.244 197.566C134.323 197.439 134.436 197.34 134.567 197.283C134.75 197.208 134.946 197.173 135.142 197.181C135.346 197.17 135.55 197.197 135.746 197.262C135.884 197.316 136.005 197.413 136.095 197.541C136.181 197.664 136.231 197.813 136.237 197.968C136.242 198.138 136.199 198.306 136.114 198.449C135.981 198.652 135.813 198.825 135.62 198.957C135.478 199.067 135.381 199.144 135.332 199.187C135.284 199.229 135.229 199.286 135.164 199.356H136.308L136.324 199.957Z" fill="white"/>
<path d="M136.579 198.565C136.528 198.18 136.61 197.787 136.808 197.463C136.915 197.35 137.042 197.262 137.182 197.206C137.322 197.15 137.471 197.127 137.619 197.138C137.768 197.134 137.916 197.156 138.059 197.202C138.162 197.24 138.259 197.299 138.343 197.375C138.413 197.442 138.474 197.519 138.524 197.605C138.572 197.693 138.609 197.788 138.634 197.887C138.692 198.095 138.725 198.31 138.734 198.526C138.777 198.908 138.706 199.294 138.533 199.628C138.432 199.754 138.305 199.851 138.162 199.913C138.019 199.974 137.865 199.998 137.713 199.981C137.527 199.992 137.342 199.957 137.17 199.879C137.031 199.805 136.911 199.695 136.821 199.558C136.743 199.432 136.688 199.292 136.657 199.144C136.613 198.955 136.587 198.761 136.579 198.565ZM137.306 198.565C137.303 198.807 137.342 199.047 137.422 199.272C137.445 199.328 137.483 199.376 137.53 199.409C137.578 199.443 137.634 199.46 137.69 199.459C137.725 199.46 137.76 199.453 137.792 199.438C137.824 199.423 137.853 199.402 137.878 199.374C137.939 199.303 137.979 199.213 137.991 199.116C138.013 198.934 138.019 198.749 138.007 198.565C138.012 198.314 137.972 198.064 137.887 197.831C137.863 197.774 137.824 197.726 137.775 197.693C137.727 197.659 137.67 197.642 137.613 197.643C137.557 197.643 137.502 197.662 137.457 197.697C137.412 197.733 137.378 197.783 137.361 197.841C137.3 198.074 137.281 198.318 137.306 198.558V198.565Z" fill="white"/>
<path d="M136.702 209.567L134.505 209.595C134.522 209.365 134.593 209.143 134.712 208.952C134.905 208.678 135.138 208.439 135.4 208.246C135.547 208.137 135.68 208.009 135.798 207.864C135.848 207.794 135.876 207.707 135.878 207.617C135.877 207.576 135.867 207.535 135.851 207.498C135.834 207.461 135.81 207.428 135.781 207.402C135.718 207.342 135.636 207.312 135.552 207.317C135.51 207.315 135.469 207.322 135.43 207.339C135.391 207.355 135.356 207.38 135.326 207.412C135.259 207.505 135.222 207.619 135.219 207.737L134.486 207.684C134.495 207.507 134.541 207.334 134.622 207.179C134.701 207.052 134.814 206.953 134.945 206.897C135.128 206.82 135.324 206.784 135.52 206.791C135.724 206.781 135.928 206.81 136.124 206.875C136.262 206.929 136.384 207.026 136.473 207.154C136.558 207.277 136.606 207.425 136.612 207.578C136.618 207.75 136.575 207.919 136.489 208.062C136.357 208.265 136.19 208.437 135.998 208.571C135.852 208.68 135.759 208.754 135.71 208.8C135.652 208.853 135.596 208.91 135.542 208.97H136.686L136.702 209.567Z" fill="white"/>
<path d="M136.918 206.808L139.057 206.78L139.076 207.299C138.905 207.467 138.756 207.659 138.633 207.871C138.49 208.131 138.382 208.412 138.31 208.705C138.246 208.98 138.21 209.262 138.204 209.545H137.474C137.501 209.158 137.577 208.776 137.7 208.412C137.839 208.056 138.024 207.725 138.249 207.426H136.957L136.918 206.808Z" fill="white"/>
<path d="M145.572 177.852L147.71 177.823L147.73 178.339C147.56 178.508 147.411 178.702 147.287 178.915C147.144 179.174 147.035 179.455 146.964 179.748C146.901 180.023 146.865 180.305 146.858 180.589H146.128C146.156 180.201 146.232 179.82 146.354 179.455C146.492 179.099 146.677 178.767 146.903 178.47L145.611 178.487L145.572 177.852Z" fill="white"/>
<path d="M147.193 188.402L147.303 191.199H146.563L146.492 189.362C146.386 189.453 146.273 189.532 146.153 189.599C146.02 189.669 145.881 189.728 145.739 189.775L145.714 189.147C145.919 189.082 146.112 188.977 146.282 188.836C146.415 188.719 146.52 188.569 146.589 188.398L147.193 188.402Z" fill="white"/>
<path d="M148.92 190.683L147.586 190.701L147.56 190.072L148.83 188.398H149.476L149.54 190.09H149.863L149.889 190.683H149.566L149.589 191.199H148.943L148.92 190.683ZM148.898 190.09L148.862 189.224L148.193 190.097L148.898 190.09Z" fill="white"/>
<path d="M147.63 199.805L145.433 199.837C145.453 199.607 145.524 199.386 145.64 199.194C145.832 198.919 146.064 198.68 146.328 198.488C146.476 198.38 146.61 198.251 146.725 198.103C146.776 198.032 146.805 197.945 146.806 197.855C146.804 197.815 146.795 197.775 146.778 197.738C146.761 197.702 146.738 197.669 146.709 197.643C146.646 197.582 146.564 197.551 146.48 197.555C146.397 197.555 146.317 197.589 146.257 197.65C146.188 197.744 146.15 197.859 146.147 197.979L145.414 197.926C145.422 197.748 145.469 197.574 145.552 197.421C145.631 197.292 145.744 197.194 145.875 197.138C146.059 197.062 146.254 197.026 146.45 197.032C146.655 197.021 146.859 197.049 147.055 197.117C147.193 197.171 147.314 197.268 147.403 197.396C147.49 197.518 147.538 197.666 147.542 197.82C147.549 197.991 147.507 198.16 147.423 198.304C147.287 198.504 147.119 198.676 146.929 198.812C146.786 198.922 146.69 198.996 146.641 199.038L146.473 199.208H147.617L147.63 199.805Z" fill="white"/>
<path d="M149.49 196.983L149.6 199.78H148.86L148.789 197.947C148.688 198.035 148.58 198.113 148.466 198.18C148.333 198.251 148.195 198.31 148.053 198.357L148.027 197.728C148.232 197.664 148.425 197.56 148.596 197.421C148.728 197.302 148.833 197.151 148.902 196.979L149.49 196.983Z" fill="white"/>
<path d="M147.762 209.418L145.566 209.45C145.582 209.22 145.652 208.999 145.769 208.807C145.962 208.531 146.195 208.293 146.46 208.101C146.607 207.993 146.74 207.863 146.854 207.716C146.907 207.646 146.935 207.559 146.935 207.469C146.934 207.428 146.925 207.388 146.908 207.351C146.891 207.315 146.868 207.282 146.838 207.257C146.776 207.197 146.695 207.165 146.612 207.169C146.528 207.167 146.447 207.201 146.386 207.264C146.317 207.356 146.28 207.47 146.279 207.589L145.543 207.539C145.555 207.361 145.602 207.187 145.682 207.031C145.761 206.904 145.874 206.807 146.005 206.752C146.188 206.676 146.384 206.64 146.58 206.646C146.785 206.634 146.991 206.663 147.187 206.731C147.325 206.785 147.446 206.88 147.536 207.006C147.62 207.13 147.669 207.279 147.675 207.433C147.68 207.604 147.637 207.771 147.552 207.914C147.419 208.118 147.251 208.291 147.058 208.426C146.916 208.535 146.819 208.61 146.774 208.652C146.714 208.705 146.657 208.762 146.602 208.821H147.746L147.762 209.418Z" fill="white"/>
<path d="M148.457 207.931C148.357 207.882 148.267 207.81 148.195 207.719C148.123 207.618 148.08 207.495 148.072 207.366C148.069 207.252 148.094 207.138 148.146 207.038C148.197 206.938 148.272 206.855 148.363 206.798C148.558 206.671 148.783 206.61 149.009 206.621C149.284 206.595 149.56 206.664 149.797 206.819C149.877 206.877 149.944 206.955 149.992 207.046C150.039 207.138 150.067 207.24 150.072 207.345C150.079 207.47 150.048 207.594 149.985 207.698C149.925 207.793 149.848 207.874 149.759 207.935C149.888 207.994 149.999 208.09 150.082 208.214C150.154 208.328 150.196 208.463 150.201 208.602C150.207 208.731 150.184 208.859 150.134 208.975C150.084 209.092 150.008 209.193 149.914 209.27C149.816 209.343 149.706 209.393 149.591 209.418C149.454 209.451 149.314 209.468 149.174 209.468C148.955 209.481 148.736 209.449 148.528 209.372C148.388 209.315 148.267 209.211 148.182 209.076C148.1 208.943 148.054 208.787 148.05 208.627C148.039 208.483 148.07 208.34 148.14 208.217C148.214 208.087 148.326 207.987 148.457 207.931ZM148.78 208.571C148.782 208.683 148.825 208.789 148.899 208.867C148.931 208.903 148.969 208.932 149.011 208.951C149.054 208.97 149.099 208.979 149.145 208.977C149.189 208.975 149.233 208.964 149.273 208.943C149.313 208.922 149.348 208.893 149.377 208.857C149.41 208.817 149.436 208.77 149.451 208.719C149.467 208.668 149.472 208.614 149.468 208.56C149.468 208.504 149.458 208.449 149.438 208.398C149.418 208.347 149.389 208.301 149.352 208.263C149.32 208.226 149.281 208.197 149.238 208.177C149.196 208.158 149.149 208.148 149.103 208.15C149.059 208.151 149.016 208.161 148.976 208.181C148.936 208.2 148.9 208.228 148.87 208.263C148.836 208.305 148.809 208.353 148.792 208.406C148.775 208.459 148.767 208.515 148.77 208.571H148.78ZM148.78 207.384C148.78 207.427 148.788 207.47 148.804 207.51C148.821 207.549 148.844 207.584 148.873 207.613C148.938 207.674 149.021 207.705 149.106 207.698C149.144 207.699 149.181 207.692 149.216 207.677C149.251 207.662 149.283 207.639 149.31 207.61C149.335 207.58 149.355 207.544 149.367 207.505C149.379 207.466 149.384 207.425 149.381 207.384C149.373 207.321 149.35 207.262 149.315 207.212C149.279 207.162 149.232 207.124 149.178 207.101C149.125 207.078 149.066 207.071 149.009 207.081C148.952 207.091 148.899 207.118 148.854 207.158C148.825 207.186 148.802 207.221 148.786 207.26C148.771 207.299 148.763 207.341 148.764 207.384H148.78Z" fill="white"/>
<path d="M81.0414 178.664L81.1513 181.461H80.4115L80.3405 179.628C80.2392 179.717 80.1311 179.796 80.0174 179.865C79.8839 179.934 79.7457 179.992 79.604 180.038L79.5781 179.413C79.7834 179.348 79.976 179.243 80.1466 179.102C80.2853 178.985 80.3961 178.834 80.4697 178.661L81.0414 178.664Z" fill="white"/>
<path d="M80.082 189.612C79.9813 189.564 79.8918 189.492 79.8204 189.4C79.7484 189.299 79.7057 189.176 79.6976 189.047C79.6943 188.932 79.7196 188.819 79.7709 188.719C79.8221 188.619 79.8973 188.536 79.9884 188.479C80.1833 188.352 80.4079 188.291 80.6344 188.302C80.9101 188.275 81.1864 188.346 81.4226 188.503C81.5028 188.561 81.5695 188.638 81.6172 188.729C81.665 188.819 81.6923 188.921 81.6972 189.026C81.7047 189.151 81.674 189.275 81.6099 189.379C81.5489 189.474 81.4709 189.555 81.3806 189.616C81.5092 189.675 81.6208 189.772 81.7036 189.895C81.7765 190.009 81.818 190.144 81.8231 190.283C81.8298 190.418 81.8042 190.552 81.7488 190.672C81.6982 190.781 81.6253 190.877 81.5356 190.951C81.4383 191.024 81.3284 191.074 81.2126 191.099C81.0758 191.132 80.9361 191.149 80.7959 191.149C80.5773 191.161 80.3583 191.13 80.1499 191.057C80.0099 190.997 79.8896 190.892 79.8042 190.757C79.7186 190.617 79.6736 190.452 79.675 190.283C79.6639 190.14 79.6956 189.996 79.7655 189.874C79.8433 189.752 79.9541 189.661 80.082 189.612ZM80.4051 190.252C80.4077 190.364 80.4506 190.47 80.5246 190.548C80.5897 190.62 80.6779 190.66 80.7701 190.661C80.814 190.659 80.857 190.647 80.8964 190.625C80.9358 190.604 80.9709 190.574 80.9994 190.538C81.0336 190.498 81.0596 190.452 81.0758 190.4C81.0919 190.349 81.0978 190.295 81.0931 190.241C81.0937 190.185 81.0836 190.13 81.0636 190.079C81.0436 190.028 81.014 189.982 80.9768 189.944C80.9452 189.907 80.9067 189.878 80.8637 189.858C80.8208 189.839 80.7745 189.829 80.7281 189.831C80.6843 189.832 80.6412 189.842 80.6012 189.862C80.5612 189.881 80.5252 189.909 80.4955 189.944C80.4613 189.985 80.4349 190.033 80.4177 190.085C80.4005 190.137 80.3929 190.193 80.3954 190.248L80.4051 190.252ZM80.4051 189.065C80.4052 189.108 80.4136 189.151 80.4297 189.19C80.4459 189.23 80.4694 189.265 80.4987 189.294C80.5631 189.355 80.6466 189.385 80.7313 189.379C80.7689 189.381 80.8064 189.374 80.8412 189.358C80.8761 189.343 80.9076 189.32 80.9335 189.29C80.9595 189.26 80.9794 189.225 80.9919 189.186C81.0043 189.147 81.0091 189.106 81.0059 189.065C80.9984 189.002 80.9757 188.943 80.9401 188.893C80.9045 188.843 80.8574 188.805 80.8036 188.782C80.7499 188.759 80.6914 188.752 80.6344 188.762C80.5773 188.772 80.5238 188.798 80.4794 188.839C80.4502 188.866 80.427 188.901 80.4114 188.939C80.3958 188.977 80.3881 189.019 80.3889 189.061L80.4051 189.065Z" fill="white"/>
<path d="M80.321 197.898L80.4308 200.698H79.6879L79.6168 198.866C79.5163 198.955 79.4081 199.035 79.2938 199.102C79.1605 199.172 79.0222 199.23 78.8803 199.275L78.8545 198.65C79.0597 198.585 79.2524 198.48 79.423 198.339C79.5618 198.224 79.6727 198.074 79.746 197.901L80.321 197.898Z" fill="white"/>
<path d="M81.4128 197.933L83.1507 197.908L83.1765 198.519H81.9975L81.9523 198.933C82.0292 198.894 82.1093 198.863 82.1913 198.841C82.2675 198.82 82.3455 198.808 82.4239 198.805C82.6597 198.794 82.8908 198.881 83.0699 199.049C83.1531 199.126 83.2204 199.222 83.2672 199.33C83.3139 199.437 83.3392 199.555 83.3413 199.674C83.3492 199.86 83.3101 200.044 83.2282 200.207C83.1572 200.365 83.0447 200.495 82.9052 200.582C82.7209 200.678 82.5183 200.725 82.314 200.72C82.1643 200.724 82.0146 200.709 81.8683 200.674C81.7529 200.647 81.6432 200.597 81.5452 200.525C81.4601 200.464 81.3857 200.386 81.3256 200.296C81.262 200.197 81.212 200.089 81.177 199.974L81.9135 199.879C81.9282 199.987 81.976 200.087 82.0492 200.162C82.1153 200.224 82.2008 200.257 82.2882 200.253C82.3354 200.254 82.3821 200.243 82.4251 200.222C82.4681 200.2 82.5063 200.169 82.5369 200.13C82.5962 200.022 82.625 199.897 82.6198 199.772C82.6147 199.646 82.5757 199.525 82.5079 199.423C82.4721 199.385 82.4296 199.356 82.3829 199.336C82.3362 199.317 82.2864 199.308 82.2365 199.31C82.1656 199.312 82.0959 199.331 82.033 199.367C81.9742 199.405 81.9218 199.454 81.878 199.512L81.2513 199.427L81.4128 197.933Z" fill="white"/>
<path d="M81.3998 210.298L79.2064 210.33C79.223 210.1 79.293 209.879 79.41 209.687C79.6022 209.412 79.8347 209.173 80.098 208.98C80.2463 208.873 80.3801 208.744 80.4953 208.595C80.5474 208.526 80.5759 208.438 80.5761 208.348C80.5749 208.307 80.5656 208.267 80.5489 208.231C80.5322 208.194 80.5084 208.162 80.4792 208.136C80.417 208.076 80.336 208.045 80.253 208.048C80.1692 208.047 80.0881 208.081 80.0269 208.143C79.9583 208.235 79.9207 208.35 79.9203 208.468L79.1838 208.419C79.194 208.24 79.2415 208.066 79.3227 207.91C79.4011 207.783 79.514 207.685 79.6458 207.631C79.8292 207.555 80.0246 207.519 80.2207 207.525C80.4251 207.514 80.6297 207.542 80.8248 207.61C80.9634 207.664 81.0846 207.761 81.1737 207.889C81.2607 208.01 81.3105 208.159 81.3158 208.313C81.3205 208.484 81.2777 208.653 81.193 208.797C81.0587 208.998 80.8911 209.171 80.6988 209.305C80.5567 209.415 80.4598 209.489 80.4113 209.531C80.3526 209.585 80.2966 209.641 80.2434 209.701H81.3869L81.3998 210.298Z" fill="white"/>
<path d="M83.8549 210.266L81.6615 210.294C81.6786 210.066 81.7486 209.846 81.865 209.655C82.0573 209.38 82.2898 209.141 82.5531 208.949C82.7014 208.841 82.8352 208.712 82.9504 208.564C83.0025 208.494 83.031 208.406 83.0311 208.316C83.0296 208.275 83.0202 208.235 83.0035 208.197C82.9868 208.16 82.9632 208.128 82.9342 208.101C82.8696 208.043 82.7882 208.013 82.7049 208.016C82.6637 208.014 82.6225 208.021 82.5841 208.038C82.5456 208.054 82.5108 208.079 82.482 208.112C82.4129 208.203 82.3752 208.318 82.3754 208.436L81.6389 208.387C81.647 208.208 81.6947 208.033 81.7778 207.878C81.8569 207.751 81.9695 207.652 82.1008 207.596C82.2849 207.523 82.48 207.488 82.6758 207.494C82.8802 207.482 83.0848 207.511 83.2799 207.578C83.4182 207.631 83.5395 207.727 83.6287 207.854C83.7143 207.977 83.7629 208.126 83.7676 208.281C83.7741 208.451 83.7324 208.619 83.6481 208.761C83.5132 208.964 83.3457 209.137 83.1539 209.273C83.0118 209.379 82.9149 209.457 82.8664 209.5C82.8077 209.553 82.7516 209.609 82.6984 209.669H83.8419L83.8549 210.266Z" fill="white"/>
<path d="M81.778 219.908L79.5814 219.936C79.5985 219.707 79.6685 219.487 79.785 219.297C79.9777 219.021 80.2114 218.782 80.4762 218.59C80.623 218.482 80.7556 218.353 80.8703 218.205C80.9224 218.135 80.9509 218.048 80.9511 217.958C80.9499 217.917 80.9406 217.877 80.9239 217.84C80.9072 217.804 80.8834 217.772 80.8542 217.746C80.792 217.686 80.711 217.654 80.628 217.658C80.5864 217.656 80.5448 217.663 80.5059 217.68C80.467 217.696 80.4316 217.721 80.4019 217.753C80.3333 217.845 80.2957 217.96 80.2953 218.078L79.5588 218.029C79.569 217.85 79.6165 217.676 79.6977 217.52C79.7775 217.393 79.8899 217.295 80.0208 217.238C80.2049 217.164 80.3999 217.13 80.5957 217.135C80.8001 217.123 81.0047 217.152 81.1998 217.22C81.3375 217.274 81.4585 217.369 81.5487 217.495C81.6352 217.618 81.6849 217.768 81.6908 217.923C81.6961 218.093 81.6532 218.261 81.568 218.403C81.4349 218.607 81.2671 218.781 81.0738 218.915C80.9317 219.021 80.8348 219.099 80.7863 219.141C80.7379 219.184 80.683 219.24 80.6184 219.311H81.7619L81.778 219.908Z" fill="white"/>
<path d="M82.0976 219.279L82.8212 219.173C82.8341 219.259 82.8714 219.338 82.9278 219.399C82.9749 219.442 83.0346 219.464 83.0958 219.463C83.1524 219.462 83.2078 219.444 83.2553 219.41C83.3028 219.376 83.3405 219.328 83.3639 219.272C83.4254 219.085 83.4539 218.887 83.4479 218.689C83.3746 218.777 83.2869 218.849 83.1895 218.901C83.0873 218.948 82.9774 218.972 82.8664 218.972C82.6391 218.976 82.4193 218.882 82.2552 218.71C82.0911 218.538 81.9961 218.302 81.991 218.053C81.9806 217.879 82.0165 217.705 82.0944 217.552C82.167 217.401 82.2796 217.278 82.4174 217.199C82.5858 217.112 82.7707 217.069 82.9569 217.075C83.179 217.061 83.4009 217.107 83.6029 217.209C83.7743 217.31 83.9139 217.465 84.0035 217.654C84.1175 217.907 84.1772 218.185 84.1779 218.467C84.2258 218.854 84.1343 219.246 83.9227 219.561C83.817 219.681 83.6891 219.775 83.5476 219.835C83.406 219.896 83.2542 219.923 83.1022 219.915C82.9341 219.925 82.7656 219.902 82.6048 219.847C82.4829 219.803 82.3722 219.728 82.2818 219.629C82.1999 219.526 82.1374 219.408 82.0976 219.279ZM83.3897 218.032C83.3916 217.967 83.3817 217.903 83.3607 217.842C83.3396 217.782 83.3078 217.726 83.267 217.679C83.2346 217.637 83.1938 217.605 83.1478 217.583C83.1019 217.562 83.052 217.552 83.0021 217.555C82.9568 217.554 82.9119 217.564 82.8705 217.584C82.8291 217.604 82.7924 217.634 82.7631 217.672C82.6951 217.774 82.6661 217.9 82.6823 218.025C82.6782 218.154 82.7186 218.28 82.7954 218.378C82.8267 218.417 82.8655 218.448 82.9091 218.469C82.9526 218.49 82.9998 218.5 83.0473 218.498C83.0951 218.499 83.1424 218.489 83.186 218.467C83.2296 218.446 83.2683 218.414 83.2993 218.375C83.3356 218.329 83.363 218.276 83.3796 218.218C83.3963 218.16 83.4019 218.099 83.3962 218.039L83.3897 218.032Z" fill="white"/>
<path d="M92.5573 181.309L90.3607 181.337C90.3778 181.108 90.4478 180.887 90.5643 180.695C90.757 180.419 90.9907 180.18 91.2555 179.988C91.4023 179.88 91.5349 179.751 91.6496 179.603C91.7022 179.534 91.7308 179.446 91.7304 179.356C91.7286 179.315 91.7191 179.276 91.7024 179.239C91.6857 179.203 91.6622 179.17 91.6335 179.144C91.5708 179.085 91.4899 179.055 91.4073 179.06C91.324 179.057 91.2429 179.09 91.1812 179.151C91.1126 179.244 91.075 179.36 91.0746 179.48L90.3381 179.427C90.3492 179.249 90.3967 179.077 90.477 178.922C90.556 178.794 90.6686 178.695 90.8001 178.639C90.9835 178.563 91.1789 178.527 91.375 178.533C91.5794 178.522 91.784 178.55 91.9791 178.618C92.1186 178.67 92.2402 178.768 92.328 178.897C92.4145 179.019 92.4641 179.167 92.4701 179.321C92.4752 179.492 92.4324 179.661 92.3473 179.805C92.2139 180.007 92.0461 180.18 91.8531 180.313C91.711 180.423 91.6141 180.497 91.5656 180.543L91.3977 180.709H92.5412L92.5573 181.309Z" fill="white"/>
<path d="M91.375 197.753L91.4848 200.55H90.7419L90.6708 198.717C90.5644 198.806 90.4508 198.884 90.3316 198.95C90.1991 199.023 90.0607 199.082 89.9182 199.127L89.8923 198.498C90.0973 198.434 90.29 198.33 90.4609 198.191C90.5988 198.074 90.7095 197.922 90.7839 197.75L91.375 197.753Z" fill="white"/>
<path d="M94.3146 198.382L93.591 198.484C93.5767 198.399 93.5396 198.32 93.4844 198.258C93.4374 198.215 93.3776 198.193 93.3164 198.194C93.2593 198.195 93.2036 198.213 93.1559 198.248C93.1083 198.282 93.0709 198.331 93.0483 198.389C92.9863 198.574 92.9578 198.771 92.9644 198.968C93.038 198.88 93.1269 198.809 93.226 198.759C93.3277 198.71 93.4378 198.685 93.549 198.685C93.7746 198.681 93.9927 198.773 94.1563 198.943C94.2394 199.028 94.3059 199.13 94.352 199.243C94.3981 199.357 94.4227 199.479 94.4244 199.604C94.4338 199.778 94.398 199.952 94.3211 200.105C94.2494 200.257 94.1366 200.38 93.998 200.458C93.8283 200.545 93.6426 200.587 93.4553 200.582C93.2335 200.596 93.0118 200.551 92.8093 200.451C92.6391 200.35 92.5007 200.195 92.412 200.006C92.2976 199.752 92.2379 199.473 92.2375 199.19C92.1896 198.803 92.2811 198.411 92.4927 198.096C92.5978 197.976 92.7252 197.883 92.8662 197.822C93.0072 197.761 93.1586 197.734 93.31 197.742C93.4792 197.732 93.6487 197.755 93.8107 197.809C93.9324 197.854 94.043 197.929 94.1337 198.028C94.2152 198.132 94.2767 198.252 94.3146 198.382ZM93.0225 199.625C93.02 199.689 93.0293 199.754 93.0498 199.814C93.0703 199.875 93.1017 199.931 93.142 199.978C93.1763 200.019 93.2183 200.051 93.2652 200.073C93.3121 200.094 93.3626 200.104 93.4134 200.102C93.4581 200.103 93.5025 200.093 93.5433 200.072C93.5841 200.052 93.6203 200.022 93.6492 199.985C93.7176 199.883 93.7477 199.757 93.7331 199.632C93.7354 199.502 93.694 199.377 93.6169 199.279C93.5845 199.24 93.5453 199.21 93.5016 199.189C93.458 199.168 93.4109 199.158 93.3633 199.158C93.3157 199.158 93.2686 199.168 93.2249 199.189C93.1813 199.21 93.1421 199.24 93.1097 199.279C93.0732 199.326 93.046 199.381 93.0299 199.441C93.0138 199.501 93.0091 199.563 93.016 199.625H93.0225Z" fill="white"/>
<path d="M92.4572 210.153L90.2606 210.181C90.2777 209.952 90.3477 209.73 90.4642 209.538C90.6578 209.263 90.8913 209.025 91.1554 208.832C91.302 208.725 91.4346 208.597 91.5495 208.451C91.6016 208.381 91.6301 208.294 91.6303 208.203C91.6287 208.162 91.6193 208.122 91.6026 208.085C91.586 208.047 91.5624 208.015 91.5334 207.988C91.4707 207.929 91.3898 207.899 91.3072 207.903C91.2656 207.901 91.224 207.909 91.1851 207.925C91.1462 207.942 91.1108 207.967 91.0811 207.999C91.012 208.09 90.9743 208.205 90.9745 208.324L90.238 208.271C90.2491 208.093 90.2966 207.92 90.3769 207.765C90.4559 207.638 90.5685 207.539 90.7 207.483C90.8832 207.406 91.0789 207.371 91.2749 207.381C91.4791 207.368 91.6837 207.395 91.879 207.462C92.0185 207.514 92.1401 207.611 92.2279 207.741C92.3138 207.863 92.3634 208.011 92.37 208.165C92.3751 208.336 92.3323 208.505 92.2472 208.648C92.1147 208.852 91.9467 209.025 91.753 209.157C91.6109 209.266 91.514 209.344 91.4655 209.387C91.4171 209.429 91.3622 209.485 91.2976 209.556L92.4411 209.538L92.4572 210.153Z" fill="white"/>
<path d="M93.4003 208.182L92.7058 208.062C92.7475 207.846 92.863 207.655 93.0288 207.529C93.2356 207.391 93.475 207.324 93.7169 207.335C93.9799 207.309 94.2436 207.376 94.4695 207.525C94.5439 207.583 94.6051 207.658 94.6483 207.746C94.6914 207.833 94.7154 207.931 94.7183 208.03C94.7246 208.144 94.6962 208.257 94.6375 208.352C94.568 208.461 94.4748 208.55 94.3662 208.61C94.448 208.627 94.5273 208.657 94.602 208.698C94.6883 208.751 94.7615 208.826 94.8152 208.917C94.8684 209.017 94.8983 209.13 94.9024 209.245C94.9082 209.407 94.8724 209.567 94.799 209.708C94.7274 209.859 94.6145 209.983 94.476 210.061C94.29 210.151 94.0881 210.194 93.8849 210.188C93.6924 210.198 93.4999 210.171 93.3163 210.107C93.1815 210.055 93.0605 209.968 92.9642 209.853C92.8649 209.729 92.7891 209.585 92.7413 209.429L93.4681 209.319C93.4878 209.438 93.5383 209.549 93.6135 209.637C93.6806 209.695 93.7641 209.725 93.8493 209.722C93.8949 209.722 93.9401 209.712 93.9819 209.692C94.0236 209.672 94.061 209.643 94.0916 209.605C94.1234 209.564 94.1473 209.516 94.1617 209.465C94.1761 209.413 94.1809 209.359 94.1756 209.305C94.177 209.251 94.1683 209.196 94.15 209.145C94.1317 209.094 94.1041 209.048 94.069 209.009C94.0343 208.974 93.9935 208.947 93.9491 208.93C93.9047 208.913 93.8575 208.906 93.8106 208.91C93.7304 208.913 93.6511 208.929 93.5747 208.956V208.408H93.6717C93.7497 208.41 93.8259 208.382 93.8881 208.331C93.9171 208.302 93.94 208.266 93.955 208.226C93.9701 208.187 93.977 208.144 93.9753 208.101C93.9748 208.063 93.9674 208.026 93.9536 207.991C93.9397 207.957 93.9196 207.926 93.8945 207.9C93.8387 207.849 93.7669 207.823 93.6943 207.829C93.6563 207.827 93.6184 207.833 93.5829 207.848C93.5473 207.863 93.5149 207.885 93.4875 207.914C93.4343 207.992 93.4039 208.085 93.4003 208.182Z" fill="white"/>
<path d="M91.3039 217.824L90.6062 217.704C90.6488 217.488 90.7641 217.298 90.9292 217.17C91.152 217.045 91.399 216.979 91.6496 216.979C91.9002 216.979 92.1471 217.045 92.3699 217.17C92.4443 217.227 92.5057 217.302 92.5494 217.389C92.5931 217.476 92.6179 217.573 92.6219 217.672C92.6266 217.786 92.5983 217.898 92.5411 217.993C92.4696 218.102 92.3755 218.19 92.2665 218.251C92.3494 218.269 92.4298 218.299 92.5056 218.339C92.5921 218.394 92.6653 218.47 92.7188 218.562C92.7738 218.661 92.8028 218.775 92.8028 218.89C92.8091 219.056 92.7713 219.221 92.6939 219.364C92.6165 219.507 92.5028 219.622 92.3667 219.696C92.182 219.786 91.981 219.829 91.7788 219.823C91.5853 219.833 91.3917 219.805 91.207 219.742C91.0722 219.69 90.9512 219.603 90.8549 219.487C90.7542 219.365 90.6783 219.22 90.632 219.063L91.3588 218.954C91.3781 219.074 91.4299 219.184 91.5074 219.272C91.5718 219.332 91.6553 219.363 91.74 219.357C91.7858 219.358 91.8314 219.349 91.8734 219.329C91.9153 219.308 91.9526 219.278 91.9823 219.24C92.0462 219.156 92.0775 219.048 92.0695 218.94C92.0693 218.83 92.0313 218.724 91.9629 218.643C91.9276 218.608 91.8862 218.582 91.8412 218.565C91.7963 218.548 91.7487 218.541 91.7013 218.544C91.6211 218.548 91.5418 218.563 91.4654 218.59V218.046H91.5624C91.6496 218.047 91.734 218.012 91.7982 217.947C91.8274 217.919 91.8504 217.883 91.8654 217.843C91.8805 217.804 91.8873 217.761 91.8854 217.718C91.8856 217.68 91.8786 217.643 91.8646 217.609C91.8507 217.575 91.8302 217.545 91.8046 217.52C91.7471 217.469 91.6752 217.441 91.6011 217.441C91.527 217.441 91.4552 217.469 91.3976 217.52C91.3348 217.606 91.3016 217.714 91.3039 217.824Z" fill="white"/>
<path d="M93.0773 218.371C93.024 217.986 93.1047 217.593 93.3035 217.269C93.41 217.156 93.5374 217.068 93.6771 217.012C93.8168 216.956 93.9658 216.933 94.1142 216.944C94.263 216.936 94.4119 216.958 94.5536 217.008C94.6588 217.044 94.7565 217.103 94.841 217.181C94.9099 217.248 94.9698 217.325 95.0187 217.411C95.0667 217.499 95.1036 217.594 95.1285 217.693C95.1867 217.901 95.2203 218.115 95.2287 218.332C95.2727 218.712 95.2024 219.098 95.0284 219.431C94.9269 219.556 94.7997 219.654 94.657 219.715C94.5144 219.777 94.3605 219.8 94.2079 219.784C94.022 219.795 93.8362 219.759 93.6652 219.678C93.5257 219.607 93.4055 219.497 93.3164 219.36C93.239 219.234 93.1832 219.094 93.1516 218.947C93.1078 218.758 93.0828 218.565 93.0773 218.371ZM93.8041 218.371C93.7992 218.613 93.8387 218.853 93.9204 219.077C93.9427 219.134 93.9798 219.182 94.0269 219.215C94.0741 219.248 94.1292 219.266 94.1853 219.265C94.2207 219.265 94.2558 219.258 94.2885 219.244C94.3213 219.229 94.351 219.207 94.3759 219.18C94.4351 219.108 94.4734 219.018 94.4857 218.922C94.508 218.74 94.5134 218.555 94.5019 218.371C94.5098 218.12 94.4702 217.87 94.3856 217.637C94.3609 217.58 94.322 217.532 94.2733 217.499C94.2247 217.466 94.1683 217.449 94.111 217.449C94.0547 217.448 93.9994 217.466 93.9534 217.502C93.9074 217.538 93.8732 217.589 93.8558 217.647C93.7963 217.88 93.7787 218.124 93.8041 218.364V218.371Z" fill="white"/>
<path d="M102.086 179.226L101.389 179.105C101.43 178.889 101.545 178.698 101.712 178.572C101.917 178.431 102.158 178.363 102.4 178.378C102.663 178.352 102.926 178.419 103.152 178.569C103.227 178.626 103.288 178.701 103.332 178.787C103.375 178.874 103.4 178.971 103.404 179.07C103.409 179.185 103.381 179.299 103.324 179.395C103.251 179.503 103.157 179.591 103.049 179.653C103.132 179.669 103.213 179.699 103.288 179.741C103.375 179.793 103.449 179.868 103.501 179.96C103.555 180.059 103.584 180.173 103.585 180.289C103.592 180.45 103.556 180.611 103.482 180.751C103.411 180.903 103.298 181.027 103.159 181.104C102.975 181.198 102.773 181.241 102.571 181.232C102.365 181.242 102.159 181.209 101.964 181.136C101.829 181.083 101.709 180.996 101.612 180.882C101.512 180.758 101.436 180.614 101.389 180.458L102.115 180.345C102.133 180.466 102.185 180.577 102.264 180.663C102.328 180.725 102.411 180.757 102.497 180.751C102.542 180.752 102.587 180.741 102.629 180.721C102.671 180.701 102.708 180.672 102.739 180.635C102.799 180.548 102.83 180.441 102.826 180.332C102.823 180.224 102.785 180.12 102.72 180.038C102.684 180.002 102.643 179.975 102.598 179.957C102.553 179.94 102.506 179.932 102.458 179.935C102.378 179.94 102.298 179.957 102.222 179.985V179.437C102.254 179.44 102.287 179.44 102.319 179.437C102.362 179.439 102.406 179.431 102.446 179.414C102.487 179.397 102.524 179.372 102.555 179.339C102.584 179.31 102.607 179.275 102.622 179.236C102.637 179.197 102.644 179.155 102.642 179.113C102.642 179.075 102.635 179.037 102.621 179.002C102.607 178.968 102.587 178.937 102.561 178.911C102.506 178.859 102.434 178.833 102.361 178.837C102.285 178.838 102.212 178.868 102.154 178.922C102.101 179.012 102.077 179.119 102.086 179.226Z" fill="white"/>
<path d="M101.951 188.398L102.061 191.199H101.321L101.25 189.362C101.145 189.453 101.031 189.532 100.911 189.599C100.777 189.67 100.638 189.728 100.495 189.772L100.472 189.147C100.677 189.082 100.87 188.977 101.04 188.836C101.172 188.718 101.277 188.568 101.347 188.398H101.951Z" fill="white"/>
<path d="M102.335 189.828C102.281 189.442 102.362 189.049 102.561 188.726C102.667 188.612 102.795 188.525 102.934 188.469C103.074 188.413 103.223 188.39 103.372 188.401C103.52 188.397 103.668 188.418 103.811 188.464C103.916 188.503 104.014 188.563 104.098 188.641C104.167 188.707 104.227 188.783 104.276 188.867C104.323 188.956 104.36 189.051 104.386 189.15C104.444 189.357 104.478 189.572 104.486 189.789C104.529 190.17 104.459 190.556 104.286 190.891C104.184 191.016 104.057 191.114 103.914 191.175C103.772 191.237 103.618 191.26 103.465 191.244C103.28 191.254 103.094 191.219 102.923 191.142C102.784 191.068 102.664 190.957 102.574 190.82C102.495 190.695 102.439 190.555 102.409 190.407C102.365 190.217 102.34 190.023 102.335 189.828ZM103.058 189.828C103.056 190.069 103.096 190.309 103.178 190.534C103.2 190.59 103.237 190.638 103.284 190.671C103.331 190.705 103.387 190.722 103.443 190.721C103.513 190.722 103.581 190.693 103.633 190.64C103.692 190.566 103.73 190.475 103.743 190.379C103.765 190.196 103.771 190.011 103.759 189.828C103.765 189.577 103.726 189.327 103.643 189.093C103.616 189.038 103.577 188.992 103.529 188.959C103.48 188.926 103.425 188.908 103.368 188.906C103.312 188.904 103.257 188.923 103.211 188.959C103.165 188.994 103.131 189.045 103.113 189.104C103.049 189.336 103.026 189.579 103.045 189.821L103.058 189.828Z" fill="white"/>
<path d="M106.935 189.321C106.935 191.361 105.075 193.015 102.78 193.015C100.485 193.015 98.6252 191.361 98.6252 189.321C98.6252 187.282 100.485 185.628 102.78 185.628C105.075 185.628 106.935 187.282 106.935 189.321ZM99.1124 189.321C99.1124 191.122 100.754 192.582 102.78 192.582C104.806 192.582 106.448 191.122 106.448 189.321C106.448 187.521 104.806 186.061 102.78 186.061C100.754 186.061 99.1124 187.521 99.1124 189.321Z" fill="#4E4DA2"/>
<path d="M106.708 189.321C106.833 189.321 106.936 189.423 106.927 189.548C106.877 190.279 106.583 190.982 106.08 191.566C105.525 192.21 104.747 192.674 103.866 192.886C102.985 193.098 102.05 193.047 101.205 192.739C100.361 192.431 99.6534 191.885 99.1929 191.185C98.7323 190.484 98.5441 189.668 98.6573 188.863C98.7705 188.058 99.1788 187.309 99.8191 186.731C100.459 186.152 101.296 185.778 102.2 185.664C103.026 185.561 103.867 185.681 104.612 186.007C104.725 186.056 104.763 186.194 104.697 186.297V186.297C104.64 186.387 104.525 186.418 104.428 186.375C103.76 186.08 103.005 185.97 102.263 186.063C101.458 186.164 100.713 186.498 100.142 187.013C99.5718 187.528 99.2081 188.196 99.1073 188.913C99.0064 189.631 99.1741 190.357 99.5844 190.981C99.9946 191.605 100.625 192.092 101.377 192.366C102.13 192.64 102.963 192.686 103.747 192.497C104.532 192.308 105.225 191.895 105.72 191.321C106.162 190.807 106.423 190.19 106.473 189.548C106.482 189.423 106.583 189.321 106.708 189.321V189.321Z" fill="url(#paint2_linear_123_787)"/>
<path d="M98.6274 189.458C98.5606 187.419 100.366 185.705 102.659 185.63C104.952 185.555 106.866 187.147 106.933 189.185C107 191.224 105.195 192.937 102.901 193.013C100.608 193.088 98.6943 191.496 98.6274 189.458ZM106.446 189.201C106.387 187.402 104.698 185.997 102.673 186.063C100.649 186.129 99.0553 187.642 99.1143 189.442C99.1733 191.241 100.862 192.646 102.887 192.58C104.911 192.513 106.505 191.001 106.446 189.201Z" fill="#4E4DA2"/>
<path d="M98.854 189.45C98.7289 189.454 98.6233 189.356 98.6278 189.231C98.6543 188.499 98.9252 187.787 99.4087 187.186C99.9419 186.524 100.704 186.035 101.578 185.794C102.452 185.553 103.388 185.574 104.242 185.854C105.096 186.134 105.821 186.656 106.304 187.341C106.788 188.026 107.002 188.836 106.916 189.644C106.829 190.452 106.445 191.215 105.824 191.814C105.203 192.413 104.379 192.815 103.48 192.957C102.657 193.088 101.813 192.995 101.057 192.694C100.944 192.649 100.901 192.513 100.963 192.407V192.407C101.017 192.316 101.131 192.28 101.23 192.32C101.907 192.593 102.665 192.678 103.403 192.561C104.205 192.433 104.939 192.075 105.492 191.542C106.045 191.008 106.387 190.329 106.464 189.609C106.542 188.889 106.35 188.168 105.92 187.558C105.489 186.947 104.844 186.482 104.082 186.232C103.321 185.983 102.487 185.965 101.709 186.179C100.931 186.394 100.252 186.829 99.7766 187.419C99.3513 187.947 99.1108 188.573 99.082 189.216C99.0764 189.341 98.9792 189.446 98.854 189.45V189.45Z" fill="url(#paint3_linear_123_787)"/>
<path d="M141.097 189.321C141.097 191.361 139.237 193.015 136.942 193.015C134.648 193.015 132.787 191.361 132.787 189.321C132.787 187.282 134.648 185.628 136.942 185.628C139.237 185.628 141.097 187.282 141.097 189.321ZM133.275 189.321C133.275 191.122 134.917 192.582 136.942 192.582C138.968 192.582 140.61 191.122 140.61 189.321C140.61 187.521 138.968 186.061 136.942 186.061C134.917 186.061 133.275 187.521 133.275 189.321Z" fill="#4E4DA2"/>
<path d="M140.87 189.321C140.996 189.321 141.098 189.423 141.089 189.548C141.039 190.279 140.745 190.982 140.242 191.566C139.687 192.21 138.909 192.674 138.028 192.886C137.147 193.098 136.212 193.047 135.367 192.739C134.523 192.431 133.815 191.885 133.355 191.185C132.894 190.484 132.706 189.668 132.819 188.863C132.933 188.058 133.341 187.309 133.981 186.731C134.622 186.152 135.458 185.778 136.362 185.664C137.188 185.561 138.029 185.681 138.775 186.007C138.887 186.056 138.925 186.194 138.859 186.297V186.297C138.802 186.387 138.687 186.418 138.59 186.375C137.922 186.08 137.167 185.97 136.425 186.063C135.62 186.164 134.875 186.498 134.304 187.013C133.734 187.528 133.37 188.196 133.269 188.913C133.169 189.631 133.336 190.357 133.746 190.981C134.157 191.605 134.787 192.092 135.539 192.366C136.292 192.64 137.125 192.686 137.91 192.497C138.694 192.308 139.388 191.895 139.882 191.321C140.324 190.807 140.585 190.19 140.635 189.548C140.645 189.423 140.745 189.321 140.87 189.321V189.321Z" fill="url(#paint4_linear_123_787)"/>
<path d="M152.177 189.321C152.177 191.361 150.317 193.015 148.022 193.015C145.727 193.015 143.867 191.361 143.867 189.321C143.867 187.282 145.727 185.628 148.022 185.628C150.317 185.628 152.177 187.282 152.177 189.321ZM144.354 189.321C144.354 191.122 145.996 192.582 148.022 192.582C150.048 192.582 151.69 191.122 151.69 189.321C151.69 187.521 150.048 186.061 148.022 186.061C145.996 186.061 144.354 187.521 144.354 189.321Z" fill="#4E4DA2"/>
<path d="M151.95 189.321C152.075 189.321 152.178 189.423 152.169 189.548C152.119 190.279 151.825 190.982 151.322 191.566C150.767 192.21 149.989 192.674 149.108 192.886C148.227 193.098 147.292 193.047 146.447 192.739C145.603 192.431 144.895 191.885 144.435 191.185C143.974 190.484 143.786 189.668 143.899 188.863C144.012 188.058 144.421 187.309 145.061 186.731C145.701 186.152 146.538 185.778 147.442 185.664C148.268 185.561 149.109 185.681 149.854 186.007C149.967 186.056 150.005 186.194 149.939 186.297V186.297C149.882 186.387 149.767 186.418 149.67 186.375C149.002 186.08 148.247 185.97 147.505 186.063C146.7 186.164 145.955 186.498 145.384 187.013C144.814 187.528 144.45 188.196 144.349 188.913C144.248 189.631 144.416 190.357 144.826 190.981C145.237 191.605 145.867 192.092 146.619 192.366C147.372 192.64 148.205 192.686 148.989 192.497C149.774 192.308 150.467 191.895 150.962 191.321C151.404 190.807 151.665 190.19 151.715 189.548C151.724 189.423 151.825 189.321 151.95 189.321V189.321Z" fill="url(#paint5_linear_123_787)"/>
<path d="M130.017 189.321C130.017 191.361 128.157 193.015 125.863 193.015C123.568 193.015 121.708 191.361 121.708 189.321C121.708 187.282 123.568 185.628 125.863 185.628C128.157 185.628 130.017 187.282 130.017 189.321ZM122.195 189.321C122.195 191.122 123.837 192.582 125.863 192.582C127.888 192.582 129.53 191.122 129.53 189.321C129.53 187.521 127.888 186.061 125.863 186.061C123.837 186.061 122.195 187.521 122.195 189.321Z" fill="#4E4DA2"/>
<path d="M129.791 189.321C129.916 189.321 130.018 189.423 130.01 189.548C129.959 190.279 129.665 190.982 129.162 191.566C128.608 192.21 127.83 192.674 126.949 192.886C126.067 193.098 125.132 193.047 124.288 192.739C123.443 192.431 122.736 191.885 122.275 191.185C121.815 190.484 121.627 189.668 121.74 188.863C121.853 188.058 122.261 187.309 122.902 186.731C123.542 186.152 124.379 185.778 125.282 185.664C126.109 185.561 126.949 185.681 127.695 186.007C127.807 186.056 127.845 186.194 127.78 186.297V186.297C127.723 186.387 127.608 186.418 127.51 186.375C126.842 186.08 126.088 185.97 125.346 186.063C124.541 186.164 123.795 186.498 123.225 187.013C122.654 187.528 122.291 188.196 122.19 188.913C122.089 189.631 122.257 190.357 122.667 190.981C123.077 191.605 123.707 192.092 124.46 192.366C125.212 192.64 126.045 192.686 126.83 192.497C127.615 192.308 128.308 191.895 128.802 191.321C129.244 190.807 129.505 190.19 129.555 189.548C129.565 189.423 129.666 189.321 129.791 189.321V189.321Z" fill="url(#paint6_linear_123_787)"/>
<path d="M118.938 189.321C118.938 191.361 117.078 193.015 114.783 193.015C112.488 193.015 110.628 191.361 110.628 189.321C110.628 187.282 112.488 185.628 114.783 185.628C117.078 185.628 118.938 187.282 118.938 189.321ZM111.115 189.321C111.115 191.122 112.757 192.582 114.783 192.582C116.809 192.582 118.451 191.122 118.451 189.321C118.451 187.521 116.809 186.061 114.783 186.061C112.757 186.061 111.115 187.521 111.115 189.321Z" fill="#4E4DA2"/>
<path d="M118.711 189.321C118.836 189.321 118.939 189.423 118.93 189.548C118.88 190.279 118.586 190.982 118.083 191.566C117.528 192.21 116.75 192.674 115.869 192.886C114.988 193.098 114.053 193.047 113.208 192.739C112.364 192.431 111.656 191.885 111.196 191.185C110.735 190.484 110.547 189.668 110.66 188.863C110.773 188.058 111.182 187.309 111.822 186.731C112.462 186.152 113.299 185.778 114.203 185.664C115.029 185.561 115.87 185.681 116.615 186.007C116.728 186.056 116.766 186.194 116.7 186.297V186.297C116.643 186.387 116.528 186.418 116.431 186.375C115.763 186.08 115.008 185.97 114.266 186.063C113.461 186.164 112.716 186.498 112.145 187.013C111.575 187.528 111.211 188.196 111.11 188.913C111.009 189.631 111.177 190.357 111.587 190.981C111.998 191.605 112.628 192.092 113.38 192.366C114.133 192.64 114.966 192.686 115.75 192.497C116.535 192.308 117.228 191.895 117.723 191.321C118.165 190.807 118.426 190.19 118.476 189.548C118.485 189.423 118.586 189.321 118.711 189.321V189.321Z" fill="url(#paint7_linear_123_787)"/>
<path d="M102.448 197.605L102.558 200.405H101.815L101.744 198.572C101.643 198.662 101.535 198.741 101.421 198.809C101.288 198.879 101.149 198.937 101.008 198.982L100.982 198.357C101.187 198.292 101.38 198.187 101.55 198.046C101.689 197.931 101.8 197.781 101.873 197.608L102.448 197.605Z" fill="white"/>
<path d="M103.242 197.659L105.38 197.631L105.399 198.147C105.228 198.314 105.079 198.507 104.957 198.719C104.814 198.979 104.705 199.259 104.634 199.552C104.571 199.828 104.535 200.109 104.527 200.393H103.797C103.826 200.005 103.903 199.624 104.027 199.259C104.165 198.904 104.349 198.572 104.573 198.274L103.28 198.292L103.242 197.659Z" fill="white"/>
<path d="M103.482 210.005L101.286 210.036C101.302 209.807 101.372 209.585 101.489 209.394C101.682 209.118 101.915 208.879 102.18 208.687C102.327 208.579 102.46 208.45 102.574 208.302C102.627 208.233 102.656 208.145 102.655 208.055C102.654 208.014 102.644 207.974 102.627 207.938C102.611 207.901 102.587 207.869 102.558 207.843C102.496 207.783 102.415 207.751 102.332 207.755C102.248 207.753 102.167 207.788 102.106 207.85C102.037 207.943 102 208.059 101.999 208.179L101.263 208.126C101.274 207.948 101.321 207.775 101.402 207.621C101.48 207.492 101.593 207.393 101.725 207.338C101.908 207.262 102.104 207.226 102.3 207.232C102.504 207.22 102.709 207.249 102.904 207.317C103.044 207.37 103.166 207.467 103.256 207.596C103.341 207.718 103.389 207.866 103.395 208.02C103.4 208.191 103.357 208.36 103.272 208.504C103.138 208.705 102.97 208.878 102.778 209.012C102.636 209.122 102.539 209.196 102.494 209.238L102.322 209.408H103.466L103.482 210.005Z" fill="white"/>
<path d="M105.033 209.471H103.698L103.673 208.843L104.942 207.169H105.588L105.656 208.86H105.979L106.002 209.454H105.679L105.698 209.966H105.052L105.033 209.471ZM105.007 208.878L104.974 208.013L104.303 208.889L105.007 208.878Z" fill="white"/>
<path d="M102.61 217.675L101.915 217.555C101.956 217.339 102.072 217.148 102.238 217.022C102.444 216.881 102.684 216.813 102.926 216.828C103.189 216.802 103.453 216.869 103.679 217.018C103.753 217.075 103.814 217.15 103.857 217.237C103.901 217.324 103.925 217.421 103.928 217.52C103.934 217.635 103.906 217.749 103.847 217.845C103.777 217.954 103.684 218.043 103.576 218.103C103.658 218.119 103.737 218.149 103.811 218.191C103.898 218.243 103.972 218.318 104.025 218.41C104.078 218.51 104.108 218.623 104.112 218.738C104.118 218.9 104.082 219.06 104.008 219.201C103.937 219.353 103.824 219.476 103.685 219.554C103.499 219.644 103.298 219.688 103.094 219.681C102.902 219.69 102.71 219.662 102.526 219.6C102.391 219.549 102.27 219.461 102.174 219.346C102.074 219.222 101.999 219.078 101.951 218.922L102.678 218.809C102.696 218.929 102.746 219.039 102.823 219.127C102.889 219.187 102.973 219.219 103.059 219.215C103.104 219.216 103.15 219.205 103.191 219.185C103.233 219.165 103.27 219.136 103.301 219.099C103.359 219.011 103.389 218.904 103.385 218.796C103.381 218.688 103.343 218.584 103.278 218.502C103.244 218.466 103.203 218.439 103.159 218.422C103.114 218.404 103.067 218.396 103.02 218.399C102.94 218.404 102.86 218.421 102.784 218.449V217.901C102.816 217.904 102.849 217.904 102.881 217.901C102.924 217.903 102.968 217.895 103.008 217.878C103.049 217.861 103.086 217.835 103.117 217.803C103.144 217.775 103.165 217.742 103.179 217.705C103.194 217.669 103.201 217.629 103.201 217.589C103.201 217.549 103.194 217.509 103.179 217.472C103.165 217.436 103.144 217.403 103.117 217.375C103.09 217.349 103.058 217.33 103.023 217.317C102.989 217.305 102.953 217.301 102.917 217.305C102.879 217.302 102.841 217.309 102.805 217.323C102.77 217.338 102.737 217.36 102.71 217.389C102.648 217.47 102.613 217.57 102.61 217.675Z" fill="white"/>
<path d="M105.989 216.807L106.098 219.604H105.359L105.284 217.771C105.178 217.859 105.064 217.937 104.945 218.004C104.812 218.075 104.674 218.134 104.532 218.18L104.506 217.552C104.711 217.487 104.904 217.382 105.074 217.241C105.214 217.127 105.325 216.976 105.397 216.803L105.989 216.807Z" fill="white"/>
<path d="M112.985 174.061L111.878 174.942C111.816 174.994 111.741 175.022 111.664 175.023C111.587 175.023 111.512 174.995 111.45 174.944C111.387 174.892 111.341 174.819 111.317 174.735C111.293 174.652 111.293 174.561 111.317 174.477L111.706 173.001C111.73 172.918 111.73 172.83 111.706 172.747C111.683 172.665 111.638 172.593 111.576 172.542L110.506 171.607C110.446 171.554 110.402 171.481 110.38 171.398C110.357 171.315 110.358 171.226 110.381 171.144C110.404 171.061 110.449 170.989 110.51 170.936C110.57 170.884 110.643 170.854 110.719 170.851H112.065C112.14 170.851 112.213 170.824 112.274 170.774C112.335 170.724 112.38 170.653 112.403 170.571L112.845 169.112C112.87 169.029 112.917 168.958 112.98 168.907C113.042 168.856 113.117 168.829 113.193 168.829C113.269 168.829 113.344 168.856 113.406 168.907C113.469 168.958 113.516 169.029 113.541 169.112L113.983 170.571C114.008 170.652 114.053 170.722 114.114 170.772C114.174 170.822 114.246 170.85 114.321 170.851H115.672C115.748 170.854 115.821 170.884 115.881 170.936C115.942 170.989 115.987 171.061 116.01 171.144C116.033 171.226 116.034 171.315 116.012 171.398C115.989 171.481 115.945 171.554 115.885 171.607L114.809 172.542C114.751 172.595 114.707 172.667 114.684 172.749C114.661 172.83 114.659 172.918 114.68 173.001L115.069 174.477C115.093 174.561 115.093 174.652 115.069 174.735C115.045 174.819 114.999 174.892 114.936 174.944C114.874 174.995 114.799 175.023 114.722 175.023C114.645 175.022 114.57 174.994 114.508 174.942L113.406 174.061C113.344 174.011 113.271 173.985 113.196 173.985C113.12 173.985 113.047 174.011 112.985 174.061Z" fill="#4E4DA2"/>
<path d="M102.08 174.254L101.392 174.777C101.353 174.808 101.307 174.825 101.259 174.825C101.211 174.825 101.164 174.809 101.126 174.778C101.087 174.747 101.058 174.704 101.043 174.654C101.028 174.605 101.028 174.551 101.043 174.501L101.285 173.626C101.3 173.577 101.3 173.524 101.285 173.475C101.271 173.426 101.242 173.384 101.204 173.354L100.539 172.799C100.502 172.768 100.474 172.724 100.461 172.675C100.447 172.626 100.447 172.573 100.462 172.524C100.476 172.475 100.504 172.432 100.541 172.401C100.579 172.37 100.624 172.353 100.671 172.351H101.508C101.555 172.351 101.6 172.335 101.638 172.305C101.676 172.275 101.704 172.233 101.718 172.185L101.993 171.319C102.008 171.27 102.038 171.228 102.076 171.198C102.115 171.168 102.162 171.152 102.209 171.152C102.257 171.152 102.303 171.168 102.342 171.198C102.38 171.228 102.41 171.27 102.425 171.319L102.7 172.185C102.715 172.233 102.744 172.274 102.781 172.304C102.819 172.333 102.864 172.35 102.91 172.351H103.75C103.797 172.353 103.842 172.37 103.88 172.401C103.917 172.432 103.945 172.475 103.96 172.524C103.974 172.573 103.975 172.626 103.961 172.675C103.947 172.724 103.919 172.768 103.882 172.799L103.214 173.354C103.177 173.385 103.15 173.428 103.136 173.476C103.121 173.525 103.12 173.577 103.133 173.626L103.375 174.501C103.39 174.551 103.39 174.605 103.375 174.654C103.36 174.704 103.331 174.747 103.292 174.778C103.254 174.809 103.207 174.825 103.159 174.825C103.111 174.825 103.065 174.808 103.026 174.777L102.341 174.254C102.303 174.225 102.257 174.209 102.211 174.209C102.164 174.209 102.118 174.225 102.08 174.254Z" fill="#4E4DA2"/>
<path d="M124.03 174.254L123.342 174.777C123.304 174.808 123.257 174.825 123.209 174.825C123.161 174.825 123.115 174.809 123.076 174.778C123.037 174.747 123.008 174.704 122.994 174.654C122.979 174.605 122.979 174.551 122.993 174.501L123.236 173.626C123.25 173.577 123.25 173.524 123.236 173.475C123.221 173.426 123.193 173.384 123.155 173.354L122.489 172.799C122.452 172.768 122.425 172.724 122.411 172.675C122.397 172.626 122.398 172.573 122.412 172.524C122.426 172.475 122.454 172.432 122.492 172.401C122.529 172.37 122.575 172.353 122.622 172.351H123.459C123.505 172.351 123.551 172.335 123.588 172.305C123.626 172.275 123.654 172.233 123.668 172.185L123.943 171.319C123.959 171.27 123.988 171.228 124.027 171.198C124.066 171.168 124.112 171.152 124.159 171.152C124.207 171.152 124.253 171.168 124.292 171.198C124.331 171.228 124.36 171.27 124.376 171.319L124.65 172.185C124.666 172.233 124.694 172.274 124.732 172.304C124.769 172.333 124.814 172.35 124.86 172.351H125.7C125.747 172.353 125.793 172.37 125.83 172.401C125.868 172.432 125.896 172.475 125.91 172.524C125.925 172.573 125.925 172.626 125.911 172.675C125.897 172.724 125.87 172.768 125.833 172.799L125.164 173.354C125.128 173.385 125.1 173.428 125.086 173.476C125.072 173.525 125.071 173.577 125.083 173.626L125.326 174.501C125.34 174.551 125.34 174.605 125.325 174.654C125.31 174.704 125.282 174.747 125.243 174.778C125.204 174.809 125.157 174.825 125.11 174.825C125.062 174.825 125.015 174.808 124.977 174.777L124.292 174.254C124.253 174.225 124.208 174.209 124.161 174.209C124.114 174.209 124.069 174.225 124.03 174.254Z" fill="#4E4DA2"/>
<path d="M90.4299 189.678L91.1534 189.572C91.1659 189.656 91.202 189.734 91.2568 189.794C91.3054 189.836 91.3659 189.859 91.428 189.858C91.4844 189.858 91.5397 189.84 91.5872 189.807C91.6348 189.774 91.6726 189.727 91.6961 189.671C91.7544 189.483 91.7828 189.286 91.7801 189.088C91.7065 189.176 91.6175 189.246 91.5184 189.296C91.4169 189.346 91.3066 189.37 91.1954 189.367C90.9681 189.372 90.7479 189.279 90.5832 189.108C90.4185 188.936 90.3227 188.701 90.3168 188.452C90.3086 188.277 90.3455 188.103 90.4234 187.951C90.495 187.799 90.6079 187.676 90.7464 187.597C90.9164 187.512 91.1021 187.471 91.2891 187.477C91.511 187.463 91.7326 187.508 91.9352 187.608C92.1065 187.709 92.2461 187.864 92.3357 188.053C92.4501 188.307 92.5098 188.586 92.5101 188.869C92.5568 189.257 92.4642 189.649 92.2517 189.964C92.1468 190.083 92.0194 190.177 91.8784 190.238C91.7373 190.299 91.5859 190.326 91.4345 190.317C91.2651 190.326 91.0955 190.302 90.9338 190.246C90.8115 190.205 90.7005 190.131 90.6108 190.031C90.5303 189.927 90.4688 189.807 90.4299 189.678ZM91.722 188.431C91.7227 188.301 91.679 188.175 91.5992 188.078C91.5645 188.038 91.5229 188.007 91.4768 187.986C91.4307 187.964 91.3811 187.954 91.3311 187.954C91.2863 187.955 91.2422 187.966 91.2016 187.987C91.1611 188.008 91.1248 188.037 91.0953 188.074C91.0606 188.124 91.0353 188.181 91.0209 188.242C91.0065 188.302 91.0032 188.365 91.0113 188.427C91.009 188.557 91.0504 188.682 91.1276 188.781C91.1589 188.82 91.1978 188.851 91.2413 188.871C91.2849 188.892 91.3321 188.902 91.3795 188.901C91.4273 188.902 91.4747 188.891 91.5182 188.87C91.5618 188.848 91.6005 188.817 91.6315 188.777C91.667 188.731 91.6939 188.677 91.7105 188.62C91.7272 188.562 91.7332 188.502 91.7284 188.441L91.722 188.431Z" fill="white"/>
<defs>
<linearGradient id="paint0_linear_123_787" x1="94.2858" y1="201.841" x2="89.9506" y2="199.649" gradientUnits="userSpaceOnUse">
<stop stop-color="#CDCCEB" stop-opacity="0"/>
<stop offset="1" stop-color="#F5D6D7"/>
</linearGradient>
<linearGradient id="paint1_linear_123_787" x1="83.2062" y1="201.841" x2="78.871" y2="199.649" gradientUnits="userSpaceOnUse">
<stop stop-color="#CDCCEB" stop-opacity="0"/>
<stop offset="1" stop-color="#F5D6D7"/>
</linearGradient>
<linearGradient id="paint2_linear_123_787" x1="104.442" y1="191.685" x2="100.107" y2="189.493" gradientUnits="userSpaceOnUse">
<stop stop-color="#CDCCEB" stop-opacity="0"/>
<stop offset="1" stop-color="#F5D6D7"/>
</linearGradient>
<linearGradient id="paint3_linear_123_787" x1="101.042" y1="187.014" x2="105.446" y2="189.063" gradientUnits="userSpaceOnUse">
<stop stop-color="#CDCCEB" stop-opacity="0"/>
<stop offset="1" stop-color="#F5D6D7"/>
</linearGradient>
<linearGradient id="paint4_linear_123_787" x1="138.604" y1="191.685" x2="134.269" y2="189.493" gradientUnits="userSpaceOnUse">
<stop stop-color="#CDCCEB" stop-opacity="0"/>
<stop offset="1" stop-color="#F5D6D7"/>
</linearGradient>
<linearGradient id="paint5_linear_123_787" x1="149.684" y1="191.685" x2="145.349" y2="189.493" gradientUnits="userSpaceOnUse">
<stop stop-color="#CDCCEB" stop-opacity="0"/>
<stop offset="1" stop-color="#F5D6D7"/>
</linearGradient>
<linearGradient id="paint6_linear_123_787" x1="127.525" y1="191.685" x2="123.189" y2="189.493" gradientUnits="userSpaceOnUse">
<stop stop-color="#CDCCEB" stop-opacity="0"/>
<stop offset="1" stop-color="#F5D6D7"/>
</linearGradient>
<linearGradient id="paint7_linear_123_787" x1="116.445" y1="191.685" x2="112.11" y2="189.493" gradientUnits="userSpaceOnUse">
<stop stop-color="#CDCCEB" stop-opacity="0"/>
<stop offset="1" stop-color="#F5D6D7"/>
</linearGradient>
</defs>
</svg>
