<svg width="143" height="86" viewBox="0 0 143 86" fill="none" xmlns="http://www.w3.org/2000/svg">
<path d="M31.8874 63.4378V68.51H37.4168V70.1427H31.8874V75.3673H38.0699V77H29.9064V61.8051H38.0699V63.4378H31.8874ZM45.8784 77.1524C44.877 77.1524 43.9772 76.9782 43.179 76.6299C42.3953 76.2671 41.7785 75.7737 41.3286 75.1496C40.8787 74.5111 40.6465 73.7782 40.632 72.9509H42.7436C42.8162 73.6621 43.1064 74.2643 43.6144 74.7578C44.1369 75.2367 44.8915 75.4762 45.8784 75.4762C46.8217 75.4762 47.5619 75.2439 48.0989 74.7795C48.6503 74.3006 48.9261 73.6911 48.9261 72.9509C48.9261 72.3704 48.7664 71.8987 48.4472 71.5359C48.1279 71.1731 47.7288 70.8974 47.2499 70.7087C46.7709 70.52 46.1251 70.3168 45.3124 70.0992C44.311 69.8379 43.5056 69.5767 42.896 69.3155C42.301 69.0542 41.7858 68.6479 41.3504 68.0964C40.9295 67.5304 40.7191 66.7757 40.7191 65.8324C40.7191 65.0052 40.9295 64.2723 41.3504 63.6337C41.7713 62.9951 42.359 62.5017 43.1137 62.1534C43.8829 61.8051 44.7609 61.6309 45.7478 61.6309C47.17 61.6309 48.3311 61.9865 49.2309 62.6976C50.1452 63.4087 50.6604 64.3521 50.7765 65.5276H48.5995C48.527 64.9471 48.2222 64.4392 47.6852 64.0038C47.1483 63.5539 46.4371 63.3289 45.5519 63.3289C44.7246 63.3289 44.0498 63.5466 43.5273 63.982C43.0049 64.4029 42.7436 64.9979 42.7436 65.7671C42.7436 66.3186 42.896 66.7685 43.2008 67.1168C43.5201 67.4651 43.9047 67.7336 44.3546 67.9222C44.819 68.0964 45.4648 68.2996 46.292 68.5318C47.2934 68.8075 48.0989 69.0833 48.7084 69.359C49.3179 69.6202 49.8404 70.0338 50.2758 70.5998C50.7112 71.1513 50.9289 71.906 50.9289 72.8638C50.9289 73.604 50.7329 74.3006 50.3411 74.9537C49.9492 75.6068 49.3687 76.1365 48.5995 76.5428C47.8304 76.9492 46.9233 77.1524 45.8784 77.1524ZM63.1831 61.8269V63.4378H59.0469V77H57.0659V63.4378H52.908V61.8269H63.1831ZM74.5905 73.6258H67.9726L66.7535 77H64.6637L70.1495 61.9139H72.4353L77.8994 77H75.8095L74.5905 73.6258ZM74.0245 72.0148L71.2815 64.3521L68.5386 72.0148H74.0245ZM95.6811 61.9357V77H93.7001V65.7671L88.6932 77H87.3L82.2713 65.7453V77H80.2903V61.9357H82.4236L87.9966 74.3877L93.5695 61.9357H95.6811ZM101.022 63.4378V68.51H106.551V70.1427H101.022V75.3673H107.204V77H99.0407V61.8051H107.204V63.4378H101.022ZM118.191 77L114.577 70.7958H112.183V77H110.202V61.8269H115.1C116.246 61.8269 117.211 62.0228 117.995 62.4146C118.793 62.8065 119.388 63.3362 119.78 64.0038C120.172 64.6714 120.368 65.4333 120.368 66.2895C120.368 67.3345 120.063 68.256 119.454 69.0542C118.859 69.8524 117.959 70.3822 116.754 70.6434L120.564 77H118.191ZM112.183 69.2066H115.1C116.174 69.2066 116.979 68.9454 117.516 68.4229C118.053 67.886 118.322 67.1748 118.322 66.2895C118.322 65.3897 118.053 64.6931 117.516 64.1997C116.994 63.7063 116.188 63.4595 115.1 63.4595H112.183V69.2066Z" fill="#FD1E39"/>
<path d="M2.24 66.92L0.5 62.36C3.42 61.4 5.84 60.3 7.76 59.06C9.72 57.82 11.26 56.5 12.38 55.1C13.54 53.7 14.36 52.28 14.84 50.84C15.32 49.36 15.56 47.94 15.56 46.58C15.56 44.62 15.12 42.64 14.24 40.64C13.4 38.6 12.46 36.68 11.42 34.88L15.8 32.66C16.56 34.06 17.22 35.44 17.78 36.8C18.38 38.16 18.9 39.44 19.34 40.64C19.82 41.84 20.2 42.94 20.48 43.94C21.04 45.66 21.76 46.84 22.64 47.48C23.56 48.08 24.8 48.38 26.36 48.38C27.2 48.38 27.8 48.62 28.16 49.1C28.56 49.54 28.76 50.08 28.76 50.72C28.76 51.36 28.48 51.96 27.92 52.52C27.36 53.04 26.64 53.3 25.76 53.3C24 53.3 22.56 53 21.44 52.4C20.36 51.76 19.54 50.94 18.98 49.94C18.42 48.9 18.04 47.82 17.84 46.7L19.76 47.78C19.76 50.42 19.16 52.82 17.96 54.98C16.8 57.18 15.3 59.08 13.46 60.68C11.62 62.32 9.7 63.66 7.7 64.7C5.7 65.74 3.88 66.48 2.24 66.92ZM25.7891 53.3L26.3891 48.38C27.5091 48.38 28.3891 48.14 29.0291 47.66C29.7091 47.18 30.3491 46.38 30.9491 45.26C31.5891 44.14 32.3891 42.64 33.3491 40.76C34.3091 38.84 35.2691 37.28 36.2291 36.08C37.2291 34.84 38.1891 33.88 39.1091 33.2C40.0691 32.48 40.9691 31.98 41.8091 31.7C42.6491 31.42 43.4291 31.28 44.1491 31.28C45.4691 31.28 46.6491 31.58 47.6891 32.18C48.7291 32.74 49.7091 33.72 50.6291 35.12C51.5491 36.48 52.4891 38.36 53.4491 40.76C54.3691 42.96 55.1891 44.62 55.9091 45.74C56.6691 46.82 57.4491 47.54 58.2491 47.9C59.0891 48.22 60.0291 48.38 61.0691 48.38C61.9091 48.38 62.5091 48.62 62.8691 49.1C63.2691 49.54 63.4691 50.08 63.4691 50.72C63.4691 51.36 63.1891 51.96 62.6291 52.52C62.0691 53.04 61.3491 53.3 60.4691 53.3C58.9091 53.3 57.4691 53.04 56.1491 52.52C54.8691 52 53.7891 51.18 52.9091 50.06L53.7491 48.8C53.3091 50.04 52.7091 51.06 51.9491 51.86C51.2291 52.62 50.4091 53.18 49.4891 53.54C48.5691 53.94 47.5891 54.14 46.5491 54.14C45.2291 54.14 43.8691 53.86 42.4691 53.3C41.1091 52.74 39.7891 51.94 38.5091 50.9C37.2291 49.86 36.1091 48.64 35.1491 47.24C34.1091 49.08 33.1091 50.44 32.1491 51.32C31.2291 52.16 30.2691 52.7 29.2691 52.94C28.2691 53.18 27.1091 53.3 25.7891 53.3ZM37.4291 42.68C38.1091 43.8 38.8291 44.78 39.5891 45.62C40.3891 46.46 41.1891 47.16 41.9891 47.72C42.7891 48.24 43.5691 48.64 44.3291 48.92C45.1291 49.16 45.8491 49.28 46.4891 49.28C47.8891 49.28 48.9091 48.78 49.5491 47.78C50.2291 46.78 50.2091 45.38 49.4891 43.58C49.1291 42.66 48.7491 41.76 48.3491 40.88C47.9891 40 47.5891 39.2 47.1491 38.48C46.7091 37.72 46.2091 37.14 45.6491 36.74C45.0891 36.3 44.4691 36.08 43.7891 36.08C43.1891 36.08 42.5491 36.28 41.8691 36.68C41.2291 37.08 40.5291 37.76 39.7691 38.72C39.0491 39.68 38.2691 41 37.4291 42.68ZM60.4766 53.3L61.0766 48.38C62.7566 48.38 64.0766 48.24 65.0366 47.96C65.9966 47.64 66.7166 47.06 67.1966 46.22C67.7166 45.34 68.1566 44.08 68.5166 42.44C68.8766 40.8 69.3166 38.66 69.8366 36.02L74.5166 36.92C74.3566 37.64 74.1766 38.44 73.9766 39.32C73.7766 40.2 73.5966 41.08 73.4366 41.96C73.3166 42.8 73.2566 43.54 73.2566 44.18C73.2566 44.98 73.4366 45.7 73.7966 46.34C74.1566 46.98 74.9366 47.48 76.1366 47.84C77.3366 48.2 79.1766 48.38 81.6566 48.38C82.4966 48.38 83.0966 48.62 83.4566 49.1C83.8566 49.54 84.0566 50.08 84.0566 50.72C84.0566 51.36 83.7766 51.96 83.2166 52.52C82.6566 53.04 81.9366 53.3 81.0566 53.3C78.4566 53.3 76.4166 53.08 74.9366 52.64C73.4566 52.16 72.3766 51.46 71.6966 50.54C71.0166 49.58 70.5566 48.42 70.3166 47.06L72.1166 47.18C71.4766 48.46 70.7766 49.5 70.0166 50.3C69.2966 51.1 68.4966 51.72 67.6166 52.16C66.7366 52.6 65.7166 52.9 64.5566 53.06C63.3966 53.22 62.0366 53.3 60.4766 53.3ZM81.043 53.3L81.643 48.38C82.923 48.38 83.963 48.3 84.763 48.14C85.563 47.94 86.223 47.48 86.743 46.76C87.303 46 87.823 44.82 88.303 43.22C88.783 41.62 89.343 39.38 89.983 36.5L94.483 37.76C94.323 38.44 94.143 39.22 93.943 40.1C93.743 40.94 93.563 41.82 93.403 42.74C93.243 43.62 93.163 44.44 93.163 45.2C93.163 46.2 93.543 46.98 94.303 47.54C95.063 48.1 96.443 48.38 98.443 48.38C99.643 48.38 100.623 48.28 101.383 48.08C102.143 47.88 102.763 47.4 103.243 46.64C103.763 45.88 104.223 44.66 104.623 42.98C105.023 41.3 105.443 39 105.883 36.08L110.443 36.92C110.323 37.64 110.183 38.52 110.023 39.56C109.863 40.6 109.703 41.64 109.543 42.68C109.423 43.68 109.363 44.52 109.363 45.2C109.363 45.76 109.483 46.3 109.723 46.82C110.003 47.3 110.523 47.68 111.283 47.96C112.083 48.24 113.263 48.38 114.823 48.38C115.983 48.38 116.983 48.24 117.823 47.96C118.703 47.68 119.363 47.16 119.803 46.4C120.283 45.64 120.523 44.58 120.523 43.22C120.523 41.7 120.163 39.8 119.443 37.52C118.763 35.2 117.983 32.9 117.103 30.62L121.963 28.82C122.483 30.1 122.963 31.56 123.403 33.2C123.883 34.84 124.283 36.46 124.603 38.06C124.923 39.66 125.083 41.06 125.083 42.26C125.083 44.1 124.843 45.72 124.363 47.12C123.883 48.52 123.203 49.68 122.323 50.6C121.443 51.48 120.363 52.16 119.083 52.64C117.803 53.08 116.363 53.3 114.763 53.3C112.883 53.3 111.343 53.08 110.143 52.64C108.943 52.2 108.023 51.54 107.383 50.66C106.743 49.74 106.323 48.58 106.123 47.18H108.163C107.403 48.9 106.603 50.2 105.763 51.08C104.923 51.96 103.883 52.56 102.643 52.88C101.403 53.16 99.763 53.3 97.723 53.3C96.723 53.3 95.643 53.14 94.483 52.82C93.363 52.5 92.383 51.88 91.543 50.96C90.703 50 90.203 48.58 90.043 46.7L91.843 46.34C91.163 48.38 90.323 49.9 89.323 50.9C88.363 51.86 87.203 52.5 85.843 52.82C84.483 53.14 82.883 53.3 81.043 53.3ZM133.614 53L132.414 10.16H137.274L138.474 53H133.614Z" fill="#4E4DA2"/>
<path d="M68.1397 28.5299C65.9453 31.6134 61.6667 32.3341 58.5832 30.1397C55.4997 27.9453 54.7789 23.6667 56.9734 20.5832C59.1678 17.4997 63.4464 16.7789 66.5299 18.9734C69.6134 21.1678 70.3341 25.4464 68.1397 28.5299Z" stroke="#FD1E39" stroke-opacity="0.4" stroke-width="1.4178"/>
<path d="M58.6112 30.1227C55.5277 27.9282 54.7392 23.7465 56.9336 20.663C59.128 17.5795 63.4435 16.8067 66.527 19.0011" stroke="#FD1E39" stroke-width="1.4178"/>
<path d="M87.1397 28.5299C84.9453 31.6134 80.6667 32.3341 77.5832 30.1397C74.4997 27.9453 73.7789 23.6667 75.9734 20.5832C78.1678 17.4997 82.4464 16.7789 85.5299 18.9734C88.6134 21.1678 89.3341 25.4464 87.1397 28.5299Z" stroke="#FD1E39" stroke-opacity="0.4" stroke-width="1.4178"/>
<path d="M77.6112 30.1227C74.5277 27.9282 73.7392 23.7465 75.9336 20.663C78.128 17.5795 82.4435 16.8067 85.527 19.0011" stroke="#FD1E39" stroke-width="1.4178"/>
</svg>
