<svg width="221" height="244" viewBox="0 0 221 244" fill="none" xmlns="http://www.w3.org/2000/svg">
<path d="M44.0674 211.166L48.3289 212.049L58.4019 160.773L52.1457 159.479L44.0674 211.166Z" fill="#9799CD"/>
<path d="M59.0454 125.171L64.1489 123.353L64.5029 121.348L59.7492 121.189L59.0454 125.171Z" fill="#263238"/>
<path d="M58.9155 124.003L64.727 121.956L58.7558 158.763L52.4995 157.474L58.9155 124.003Z" fill="#9799CD"/>
<path d="M52.8584 159.538L58.5918 160.741L58.9503 158.74L53.2169 157.537L52.8584 159.538Z" fill="#263238"/>
<path d="M44.8359 217.237C44.7797 217.541 44.8963 217.821 45.0949 217.863C45.2935 217.905 45.5008 217.69 45.5526 217.396C45.6044 217.101 45.4878 216.811 45.2892 216.769C45.0906 216.727 44.8877 216.938 44.8359 217.237Z" fill="#F5D8DA"/>
<path d="M44.5423 217.274L45.8117 217.536L48.3289 212.049L44.0674 211.166L44.5423 217.274Z" fill="#263238"/>
<path d="M52.2189 148.155C52.1288 148.154 52.0402 148.129 51.9612 148.082C51.8822 148.035 51.8155 147.967 51.7669 147.885C51.7184 147.803 51.6897 147.709 51.6834 147.611C51.6772 147.514 51.6935 147.416 51.7311 147.328C54.408 141.117 56.5797 128.143 56.8733 125.059C56.9153 124.612 57.0672 124.185 57.3132 123.822C57.5592 123.46 57.8903 123.175 58.2723 122.998L59.6841 122.339C59.7488 122.308 59.8184 122.292 59.8889 122.29C59.9595 122.289 60.0296 122.302 60.0954 122.33C60.1612 122.358 60.2212 122.399 60.2721 122.452C60.3231 122.505 60.3639 122.568 60.3922 122.638C60.4206 122.708 60.4359 122.784 60.4374 122.86C60.4388 122.936 60.4264 123.012 60.4007 123.083C60.375 123.155 60.3367 123.22 60.2878 123.275C60.2389 123.33 60.1805 123.374 60.1159 123.405L58.704 124.064C58.4978 124.16 58.319 124.315 58.1862 124.511C58.0534 124.707 57.9713 124.939 57.9484 125.181C57.6419 128.419 55.4874 141.388 52.7155 147.818C52.6714 147.92 52.6011 148.006 52.5131 148.066C52.425 148.126 52.3228 148.157 52.2189 148.155Z" fill="#263238"/>
<path d="M32.3277 123.372C31.2526 125.368 30.1689 127.485 29.1456 129.56C28.6404 130.606 28.1482 131.653 27.6776 132.705C27.207 133.756 26.7666 134.817 26.3823 135.873L26.3089 136.065C26.2934 136.095 26.2831 136.129 26.2787 136.163C26.2542 136.317 26.244 136.474 26.2485 136.63C26.2672 137.094 26.3279 137.554 26.4298 138.004C26.6768 139.08 26.9942 140.136 27.3797 141.164C27.7639 142.238 28.2043 143.318 28.675 144.402C29.1456 145.486 29.6248 146.571 30.0955 147.627L28.0446 149.141C26.514 147.216 25.1537 145.14 23.9817 142.939C23.3589 141.783 22.8316 140.57 22.4058 139.313C22.1692 138.597 21.9957 137.858 21.8876 137.107C21.8297 136.653 21.8123 136.195 21.8358 135.738C21.8533 135.468 21.8879 135.199 21.9395 134.934C21.9654 134.798 22.0085 134.644 22.0474 134.499L22.1165 134.261C22.8167 131.826 23.6826 129.45 24.7071 127.153C25.711 124.875 26.834 122.661 28.0705 120.521L32.3277 123.372Z" fill="#FFC3BD"/>
<path d="M29.7715 146.954L31.7015 148.58L28.7569 151.216C28.7569 151.216 27.4141 149.814 27.6213 148.089L29.7715 146.954Z" fill="#FFC3BD"/>
<path d="M32.4877 150.954L30.5232 153.688L28.7529 151.216L31.7019 148.58L32.4877 150.954Z" fill="#FFC3BD"/>
<path d="M43.437 103.893C43.4931 104.174 43.6744 104.361 43.8428 104.361C44.0112 104.361 44.1105 104.062 44.0587 103.781C44.0069 103.501 43.8212 103.314 43.6529 103.337C43.4845 103.361 43.4024 103.608 43.437 103.893Z" fill="#263238"/>
<path d="M43.666 104.379C44.1414 105.175 44.7152 105.897 45.3715 106.524C45.2183 106.702 45.0312 106.841 44.8231 106.933C44.615 107.024 44.3911 107.065 44.1669 107.053L43.666 104.379Z" fill="#ED847E"/>
<path d="M42.202 102.533C42.1634 102.532 42.1266 102.515 42.0984 102.487C42.0834 102.471 42.0714 102.453 42.0632 102.432C42.055 102.412 42.0508 102.39 42.0508 102.368C42.0508 102.345 42.055 102.323 42.0632 102.303C42.0714 102.282 42.0834 102.264 42.0984 102.248C42.2612 102.045 42.4674 101.887 42.6991 101.79C42.9309 101.692 43.1811 101.657 43.4282 101.688C43.4483 101.691 43.4676 101.699 43.4849 101.711C43.5022 101.723 43.5172 101.738 43.529 101.756C43.5408 101.774 43.5493 101.794 43.5538 101.816C43.5584 101.837 43.559 101.86 43.5556 101.881C43.5522 101.903 43.5449 101.924 43.534 101.943C43.5232 101.962 43.509 101.978 43.4924 101.991C43.4757 102.003 43.4569 102.013 43.437 102.017C43.4171 102.022 43.3965 102.023 43.3764 102.019C43.1797 102.001 42.9818 102.034 42.7993 102.115C42.6167 102.196 42.4549 102.324 42.3272 102.487C42.3108 102.504 42.2911 102.517 42.2694 102.525C42.2478 102.533 42.2248 102.536 42.202 102.533Z" fill="#263238"/>
<path d="M36.0063 107.87C36.4812 110.492 36.9562 115.292 35.2637 117.04C35.2637 117.04 35.9243 119.694 40.4189 119.694C45.3626 119.694 42.785 117.04 42.785 117.04C40.0865 116.339 40.1555 114.175 40.6262 112.137L36.0063 107.87Z" fill="#FFC3BD"/>
<path d="M34.3051 117.236C33.9467 116.301 34.7369 113.497 35.5356 113.231C36.438 112.932 39.8533 113.1 41.5803 113.871C42.7936 115.198 43.1433 117.951 43.1433 117.951L34.3051 117.236Z" fill="#263238"/>
<path d="M20.1867 239.613C20.3195 239.664 20.4604 239.687 20.6012 239.679C20.7421 239.671 20.88 239.633 21.0071 239.566C21.0573 239.518 21.0919 239.455 21.1059 239.384C21.1199 239.313 21.1125 239.239 21.0848 239.174C21.0697 239.118 21.0437 239.067 21.0087 239.023C20.9737 238.98 20.9304 238.945 20.8818 238.921C20.4501 238.692 19.4095 239.146 19.3663 239.164C19.3523 239.17 19.3403 239.18 19.3318 239.194C19.3233 239.207 19.3188 239.223 19.3189 239.239C19.3186 239.255 19.3226 239.271 19.3302 239.285C19.3378 239.299 19.3488 239.311 19.362 239.319C19.6259 239.45 19.9025 239.548 20.1867 239.613ZM20.7221 239.043L20.8171 239.075C20.845 239.089 20.8699 239.109 20.8901 239.134C20.9102 239.159 20.9251 239.189 20.9336 239.22C20.9768 239.375 20.9336 239.421 20.9077 239.435C20.7307 239.599 20.0701 239.435 19.6125 239.248C19.9635 239.091 20.3427 239.021 20.7221 239.043Z" fill="#F5D8DA"/>
<path d="M19.3793 239.328H19.4181C19.7938 239.211 20.5925 238.594 20.6012 238.188C20.6024 238.124 20.5833 238.063 20.547 238.013C20.5107 237.964 20.4596 237.93 20.4026 237.916C20.3457 237.894 20.2852 237.885 20.2249 237.89C20.1647 237.895 20.1061 237.914 20.0528 237.945C19.6211 238.188 19.3318 239.183 19.3231 239.225C19.3159 239.238 19.312 239.252 19.312 239.267C19.312 239.282 19.3159 239.297 19.3231 239.309L19.3793 239.328ZM20.3162 238.061H20.3507C20.4457 238.099 20.4457 238.15 20.4457 238.169C20.4457 238.412 19.9103 238.893 19.5261 239.103C19.6279 238.709 19.8371 238.358 20.1262 238.094C20.1844 238.06 20.2513 238.049 20.3162 238.061Z" fill="#F5D8DA"/>
<path d="M44.0589 240.216C44.4906 240.216 44.8965 240.15 45.0303 239.945C45.0665 239.891 45.0859 239.827 45.0859 239.76C45.0859 239.694 45.0665 239.629 45.0303 239.576C45.0034 239.526 44.9673 239.483 44.9242 239.449C44.8811 239.415 44.8319 239.391 44.7799 239.379C44.2316 239.216 43.0744 239.926 43.0269 239.959C43.0127 239.967 43.0013 239.98 42.9943 239.996C42.9873 240.012 42.9852 240.03 42.9881 240.048C42.9906 240.064 42.9978 240.079 43.0086 240.091C43.0194 240.103 43.0334 240.11 43.0485 240.113C43.3818 240.18 43.7199 240.214 44.0589 240.216ZM44.5856 239.519C44.6367 239.52 44.6876 239.528 44.7367 239.543C44.7685 239.549 44.7986 239.562 44.8248 239.582C44.8509 239.603 44.8725 239.629 44.8878 239.66C44.944 239.763 44.9267 239.819 44.8878 239.847C44.7324 240.08 43.8991 240.085 43.2817 239.991C43.6832 239.742 44.1264 239.582 44.5856 239.519Z" fill="#F5D8DA"/>
<path d="M43.0616 240.118H43.0918C43.4933 239.926 44.2835 239.15 44.223 238.744C44.223 238.65 44.1453 238.533 43.9294 238.51C43.8521 238.5 43.7736 238.507 43.6992 238.532C43.6248 238.557 43.5561 238.599 43.4976 238.655C43.0659 239.029 42.9882 239.991 42.9838 240.033C42.9816 240.048 42.9833 240.062 42.9887 240.076C42.9941 240.089 43.0029 240.1 43.0141 240.108C43.0282 240.118 43.0452 240.121 43.0616 240.118ZM43.869 238.664H43.9165C44.0546 238.664 44.0633 238.739 44.0676 238.758C44.1064 239.001 43.5667 239.608 43.1609 239.875C43.1965 239.468 43.3473 239.082 43.5926 238.772C43.6703 238.702 43.7681 238.664 43.869 238.664Z" fill="#F5D8DA"/>
<path d="M39.4258 240.034H42.7331L43.0612 231.743H39.7539L39.4258 240.034Z" fill="#FFC3BD"/>
<path d="M15.5581 238.374L18.8784 239.132L21.2228 231.411L17.8983 230.654L15.5581 238.374Z" fill="#FFC3BD"/>
<path d="M19.2583 238.781L15.6272 237.93C15.5631 237.915 15.4961 237.924 15.4373 237.956C15.3785 237.987 15.3312 238.039 15.3034 238.103L14.0426 241.066C14.0127 241.139 13.9982 241.217 14.0002 241.297C14.0022 241.376 14.0207 241.454 14.0543 241.524C14.0879 241.595 14.1357 241.656 14.1943 241.704C14.2528 241.752 14.3205 241.785 14.3923 241.8C15.666 242.071 16.2964 242.137 17.8939 242.51C18.874 242.739 21.0933 243.324 22.449 243.641C23.8048 243.959 24.2754 242.548 23.7443 242.286C21.374 241.113 20.3809 240.08 19.7419 239.118C19.624 238.945 19.452 238.826 19.2583 238.781Z" fill="#263238"/>
<path d="M42.7117 239.618H39.1195C39.0542 239.618 38.991 239.642 38.94 239.686C38.8891 239.73 38.8534 239.792 38.8388 239.861L38.1868 243.043C38.1695 243.12 38.1689 243.2 38.1848 243.277C38.2008 243.354 38.2331 243.427 38.279 243.488C38.325 243.55 38.3834 243.599 38.4498 243.632C38.5162 243.665 38.5887 243.681 38.6618 243.679C39.9571 243.655 41.8482 243.576 43.4846 243.576C45.3973 243.576 44.6547 243.688 46.8998 243.688C48.2599 243.688 48.6269 242.202 48.0656 242.066C45.475 241.454 45.7643 241.389 43.5278 239.898C43.2864 239.721 43.003 239.624 42.7117 239.618Z" fill="#263238"/>
<path d="M29.3398 117.862C26.2397 118.628 23.688 127.209 23.688 127.209L29.9097 132.35C31.5214 130.49 32.6595 128.21 33.2127 125.732C34.2791 121.213 32.5089 117.058 29.3398 117.862Z" fill="#263238"/>
<path opacity="0.2" d="M31.9998 124.148C30.316 125.947 29.7676 129.232 29.6338 132.093L29.9101 132.322C31.5236 130.464 32.662 128.183 33.2131 125.704C33.2779 125.438 33.3297 125.167 33.3772 124.905L31.9998 124.148Z" fill="black"/>
<path d="M47.8714 118.03C47.8714 118.03 51.3902 122.334 48.0657 148.973H30.3634C30.2425 146.033 31.948 131.681 29.3271 117.848C31.2835 117.44 33.2623 117.17 35.2509 117.04C37.7559 116.881 40.2673 116.881 42.7722 117.04C44.4932 117.226 46.1981 117.557 47.8714 118.03Z" fill="#263238"/>
<path opacity="0.2" d="M43.0616 231.743L42.8932 236.019H39.5815L39.7499 231.743H43.0616Z" fill="black"/>
<path opacity="0.2" d="M17.8984 230.654L21.223 231.411L20.0097 235.393L16.6895 234.636L17.8984 230.654Z" fill="black"/>
<path d="M34.6245 105.211C35.4881 108.641 35.8076 110.698 37.7635 112.123C40.7081 114.273 44.3738 111.81 44.486 108.169C44.5896 104.898 43.1907 99.8368 39.7798 99.1452C39.0305 98.9882 38.2565 99.0415 37.5315 99.2997C36.8066 99.558 36.1547 100.013 35.638 100.621C35.1213 101.229 34.7569 101.97 34.5795 102.773C34.4021 103.577 34.4176 104.416 34.6245 105.211Z" fill="#FFC3BD"/>
<path d="M37.7851 111.726H37.7419C37.2308 111.729 36.7264 111.6 36.2705 111.35C35.8147 111.099 35.4207 110.735 35.1211 110.287C34.1281 108.786 32.7335 106.183 32.5737 103.178C33.8345 101.739 38.5709 100.79 40.6822 101.309C42.4395 101.744 42.1848 107.16 40.5225 110.09C40.2318 110.592 39.828 111.005 39.3492 111.291C38.8703 111.577 38.3321 111.727 37.7851 111.726Z" fill="#FFC3BD"/>
<path opacity="0.8" d="M37.7851 111.726H37.7419C37.2308 111.729 36.7264 111.6 36.2705 111.35C35.8147 111.099 35.4207 110.735 35.1211 110.287C34.1281 108.786 32.7335 106.183 32.5737 103.178C33.8345 101.739 38.5709 100.79 40.6822 101.309C42.4395 101.744 42.1848 107.16 40.5225 110.09C40.2318 110.592 39.828 111.005 39.3492 111.291C38.8703 111.577 38.3321 111.727 37.7851 111.726Z" fill="#263238"/>
<path d="M34.4952 104.398C33.9292 104.381 33.3807 104.182 32.9194 103.827C32.4581 103.472 32.1048 102.976 31.9046 102.403C31.529 101.187 31.9262 98.6218 34.1843 98.547C36.4424 98.4722 36.6756 97.0795 35.9804 96.7945C37.4571 96.9113 36.9908 98.0282 36.9908 98.0282C37.3837 98.0282 37.755 96.8833 40.0131 96.9767C42.2712 97.0702 43.3722 96.5468 43.0829 96C44.1494 96.2337 43.8515 97.6357 42.9491 98.0142C42.9491 98.0142 45.0863 99.7667 45.5915 98.804C45.9499 99.505 45.2418 100.346 42.5432 99.963C43.6183 101.594 41.0709 101.23 39.9872 101.968C38.9035 102.706 35.9848 104.515 34.4952 104.398Z" fill="#263238"/>
<path d="M40.0173 105.052C40.2351 105.903 40.7036 106.653 41.3515 107.188C42.215 107.88 42.854 107.188 42.7936 106.141C42.7418 105.207 42.2236 103.688 41.2781 103.407C40.3325 103.127 39.7712 104.02 40.0173 105.052Z" fill="#FFC3BD"/>
<path d="M41.7921 148.973C41.7921 148.973 38.0358 176.331 35.9763 186.579C33.7225 197.795 21.6202 234.935 21.6202 234.935L15.7007 233.533C15.7007 233.533 24.1632 203.268 26.063 187.579C27.518 175.527 30.3806 148.954 30.3806 148.954L41.7921 148.973Z" fill="#263238"/>
<path d="M23.0404 232.799L21.9351 235.136L15.2729 233.575L15.8342 231.406L23.0404 232.799Z" fill="#9799CD"/>
<path opacity="0.3" d="M39.4172 158.721C35.078 159.656 35.5313 177.158 36.0624 186.168C37.3102 179.798 39.1452 167.545 40.38 158.848C40.081 158.691 39.7422 158.646 39.4172 158.721Z" fill="black"/>
<path d="M48.0657 148.973C48.0657 148.973 48.5234 175.737 48.1607 186.654C47.7894 198.011 44.1237 235.192 44.1237 235.192H38.5108C38.5108 235.192 38.3079 198.674 38.0574 187.523C37.7854 175.373 36.4297 148.973 36.4297 148.973H48.0657Z" fill="#263238"/>
<path d="M45.2031 232.776C45.2291 232.776 44.8836 235.29 44.8836 235.29H38.0704L37.8848 233.047L45.2031 232.776Z" fill="#9799CD"/>
<path d="M47.9535 117.558C48.817 117.946 49.6503 118.643 49.9007 120.956C50.1425 123.176 49.6762 142.631 49.1149 148.842C49.1071 149.055 49.0293 149.258 48.8956 149.415C48.7619 149.572 48.5809 149.672 48.3852 149.697C44.8491 149.861 33.8953 148.262 30.1994 148.963C29.7676 149.048 29.392 148.534 29.4179 148.066C29.7072 142.014 29.2884 132.247 28.6062 126.045C28.1744 121.993 28.1744 117.755 31.2961 117.035C33.6189 116.502 44.5771 116.035 47.9535 117.558Z" fill="#9799CD"/>
<path d="M49.3219 122.933C49.5205 123.961 49.7537 125.078 49.9696 126.143C50.1855 127.209 50.4531 128.288 50.7295 129.34C51.0058 130.391 51.2908 131.424 51.6189 132.41C51.9137 133.345 52.2835 134.251 52.7242 135.116C52.8849 135.449 53.0774 135.762 53.2985 136.051C53.3805 136.149 53.4453 136.214 53.4625 136.233C53.4798 136.252 53.4625 136.275 53.5446 136.303C53.8226 136.403 54.1157 136.444 54.4081 136.425C54.8423 136.404 55.2749 136.354 55.7034 136.275C57.6529 135.831 59.5672 135.221 61.4286 134.452L62.685 136.789C60.9006 138.34 58.9014 139.576 56.7612 140.453C56.1639 140.691 55.5484 140.87 54.9219 140.991C54.1639 141.146 53.3869 141.158 52.6249 141.028C52.135 140.938 51.6613 140.765 51.2217 140.514C50.8255 140.274 50.4573 139.984 50.125 139.649C49.5983 139.117 49.1329 138.517 48.739 137.864C47.5194 135.694 46.5741 133.357 45.9283 130.915C45.6044 129.76 45.3065 128.606 45.0647 127.442C44.823 126.279 44.5812 125.148 44.3955 123.909L49.3219 122.933Z" fill="#FFC3BD"/>
<path d="M42.0469 121.531C39.3614 127.377 45.7428 133.985 45.7428 133.985L52.8583 129.966C52.3615 126.868 51.5461 123.839 50.4274 120.937C48.355 115.946 43.5926 118.171 42.0469 121.531Z" fill="#263238"/>
<path d="M60.7681 134.78L63.1816 133.06L64.1833 136.967C64.1833 136.967 63.1039 138.336 61.1264 136.845L60.7681 134.78Z" fill="#FFC3BD"/>
<path d="M65.2843 134.639L65.2066 135.462C65.1674 135.857 64.9916 136.221 64.7144 136.481L64.1833 136.948L63.1816 133.041L63.4882 132.957C63.7144 132.893 63.9515 132.89 64.1791 132.948C64.4067 133.005 64.6179 133.122 64.7947 133.287C64.9714 133.453 65.1083 133.663 65.1936 133.898C65.2789 134.134 65.31 134.388 65.2843 134.639Z" fill="#FFC3BD"/>
<path d="M75.6997 69.618H183.351C183.89 69.6111 184.424 69.7162 184.919 69.9267C185.415 70.1372 185.861 70.4485 186.23 70.8407C186.599 71.233 186.882 71.6977 187.062 72.2053C187.242 72.7129 187.314 73.2524 187.274 73.7894L178.493 215.23C178.409 216.354 177.907 217.406 177.087 218.179C176.267 218.952 175.187 219.39 174.06 219.408H66.4024C65.8651 219.409 65.3332 219.3 64.8398 219.087C64.3465 218.874 63.9021 218.562 63.5343 218.171C63.1665 217.779 62.8831 217.316 62.7016 216.81C62.5202 216.304 62.4446 215.766 62.4795 215.23L71.2538 73.7894C71.3416 72.665 71.8463 71.6141 72.6687 70.8424C73.4911 70.0708 74.5721 69.6341 75.6997 69.618Z" fill="#F5D8DA"/>
<path d="M73.2285 69.618H180.88C181.418 69.6111 181.952 69.7162 182.448 69.9267C182.944 70.1372 183.39 70.4485 183.759 70.8407C184.128 71.233 184.411 71.6977 184.591 72.2053C184.771 72.7129 184.843 73.2524 184.803 73.7894L176.022 215.23C175.937 216.355 175.435 217.408 174.613 218.181C173.792 218.954 172.711 219.392 171.583 219.408H63.9312C63.3939 219.409 62.862 219.3 62.3687 219.087C61.8753 218.874 61.4309 218.562 61.0631 218.171C60.6953 217.779 60.4119 217.316 60.2304 216.81C60.049 216.304 59.9734 215.766 60.0083 215.23L68.7826 73.7894C68.869 72.6645 69.3732 71.6127 70.1959 70.8407C71.0187 70.0688 72.1005 69.6326 73.2285 69.618Z" fill="#F5D8DA"/>
<path opacity="0.4" d="M65.8467 211.771L170.634 213.027L179.134 76.0385H74.2679L65.8467 211.771Z" fill="black"/>
<path d="M62.7871 210.385H168.928C174.773 156.831 176.571 127.919 177.369 74.3909H71.2279C70.4303 127.919 68.6388 156.831 62.7871 210.385Z" fill="white"/>
<path opacity="0.3" d="M164.672 111.619H146.397C146.213 111.622 146.031 111.585 145.862 111.512C145.693 111.438 145.541 111.33 145.417 111.194C145.291 111.06 145.193 110.902 145.13 110.729C145.067 110.555 145.04 110.371 145.05 110.188L146.182 91.9198C146.203 91.5769 146.354 91.255 146.604 91.0195C146.855 90.784 147.185 90.6523 147.528 90.6514H165.835C166.019 90.6519 166.201 90.69 166.37 90.7633C166.539 90.8366 166.691 90.9435 166.817 91.0775C166.943 91.2115 167.04 91.3698 167.103 91.5427C167.166 91.7156 167.193 91.8996 167.182 92.0832L166.045 110.358C166.039 110.531 165.998 110.702 165.926 110.859C165.854 111.017 165.75 111.159 165.623 111.276C165.495 111.394 165.345 111.484 165.182 111.543C165.018 111.602 164.845 111.628 164.672 111.619ZM147.836 108.926H163.403L164.351 93.3516H148.797L147.836 108.926Z" fill="#9799CD"/>
<path opacity="0.3" d="M162.939 139.452H144.671C144.487 139.452 144.306 139.414 144.137 139.341C143.969 139.268 143.817 139.161 143.691 139.027C143.564 138.894 143.465 138.735 143.402 138.562C143.339 138.389 143.313 138.205 143.324 138.021L144.456 119.746C144.477 119.404 144.629 119.083 144.879 118.848C145.129 118.614 145.459 118.484 145.802 118.484H164.077C164.261 118.482 164.443 118.519 164.612 118.592C164.781 118.665 164.933 118.774 165.057 118.909C165.183 119.044 165.281 119.202 165.344 119.375C165.407 119.548 165.434 119.732 165.424 119.916L164.286 138.184C164.266 138.528 164.115 138.85 163.865 139.086C163.614 139.322 163.283 139.453 162.939 139.452ZM146.103 136.752H161.671L162.638 121.178H147.071L146.103 136.752Z" fill="#9799CD"/>
<path opacity="0.3" d="M161.213 167.279H142.945C142.76 167.28 142.577 167.242 142.407 167.169C142.237 167.096 142.084 166.989 141.958 166.854C141.83 166.721 141.732 166.563 141.67 166.389C141.608 166.216 141.584 166.031 141.598 165.847L142.729 147.579C142.751 147.237 142.902 146.915 143.152 146.679C143.402 146.444 143.733 146.312 144.076 146.311H162.35C162.534 146.312 162.716 146.35 162.885 146.423C163.053 146.496 163.205 146.602 163.331 146.736C163.456 146.871 163.553 147.03 163.616 147.202C163.679 147.375 163.707 147.559 163.697 147.743L162.56 166.05C162.53 166.386 162.375 166.699 162.126 166.927C161.876 167.155 161.551 167.28 161.213 167.279ZM144.377 164.585H159.944L160.912 149.011H145.345L144.377 164.585Z" fill="#9799CD"/>
<path opacity="0.3" d="M159.487 195.112H141.22C141.035 195.111 140.852 195.073 140.683 195C140.513 194.927 140.36 194.821 140.232 194.687C140.105 194.554 140.007 194.396 139.945 194.222C139.883 194.049 139.858 193.864 139.873 193.68L141.004 175.406C141.027 175.064 141.179 174.744 141.429 174.51C141.679 174.276 142.008 174.145 142.351 174.144H160.625C160.809 174.142 160.992 174.179 161.161 174.252C161.33 174.325 161.481 174.433 161.606 174.569C161.732 174.703 161.829 174.862 161.892 175.035C161.955 175.208 161.982 175.392 161.972 175.576L160.834 193.844C160.813 194.187 160.661 194.508 160.411 194.744C160.161 194.98 159.831 195.111 159.487 195.112ZM142.651 192.412H158.219L159.186 176.838H143.619L142.651 192.412Z" fill="#9799CD"/>
<path opacity="0.3" d="M89.0838 98.7456H130.464C131.08 98.736 131.67 98.4967 132.119 98.0746C132.568 97.6525 132.842 97.078 132.89 96.4638C132.911 96.1701 132.872 95.8752 132.774 95.5976C132.675 95.3201 132.521 95.066 132.319 94.8514C132.117 94.6369 131.873 94.4666 131.602 94.3513C131.331 94.2361 131.04 94.1784 130.745 94.1819H89.3714C88.7546 94.1885 88.1627 94.4268 87.7134 94.8495C87.264 95.2722 86.99 95.8484 86.9457 96.4638C86.924 96.7568 86.9633 97.0512 87.0612 97.3283C87.159 97.6054 87.3133 97.8592 87.5143 98.0736C87.7152 98.2881 87.9584 98.4585 88.2285 98.5742C88.4987 98.6898 88.7899 98.7482 89.0838 98.7456Z" fill="#F5D8DA"/>
<path opacity="0.3" d="M96.3543 108.095H129.863C130.479 108.086 131.069 107.846 131.518 107.424C131.966 107.002 132.241 106.428 132.288 105.813C132.311 105.52 132.272 105.225 132.175 104.947C132.078 104.669 131.923 104.414 131.722 104.199C131.521 103.984 131.278 103.813 131.007 103.697C130.737 103.581 130.445 103.522 130.15 103.525H96.6551C96.0381 103.535 95.447 103.775 94.9982 104.199C94.5493 104.622 94.2751 105.198 94.2294 105.813C94.2078 106.105 94.2468 106.399 94.3438 106.675C94.4409 106.951 94.594 107.204 94.7935 107.419C94.993 107.633 95.2346 107.803 95.5032 107.92C95.7718 108.036 96.0616 108.096 96.3543 108.095Z" fill="#F5D8DA"/>
<path opacity="0.3" d="M87.0633 131.358H128.444C128.737 131.356 129.029 131.414 129.299 131.53C129.569 131.645 129.812 131.816 130.013 132.03C130.214 132.245 130.368 132.498 130.466 132.776C130.564 133.053 130.603 133.347 130.582 133.64C130.534 134.254 130.259 134.829 129.811 135.251C129.362 135.673 128.772 135.912 128.156 135.922H86.7756C86.4818 135.925 86.1906 135.866 85.9204 135.75C85.6503 135.635 85.4071 135.464 85.2061 135.25C85.0052 135.035 84.8509 134.782 84.7531 134.505C84.6552 134.228 84.6159 133.933 84.6376 133.64C84.6848 133.026 84.9597 132.451 85.4084 132.029C85.8572 131.607 86.4473 131.368 87.0633 131.358Z" fill="#F5D8DA"/>
<path opacity="0.3" d="M95.5106 122.009H129.045C129.339 122.005 129.631 122.063 129.902 122.178C130.173 122.293 130.417 122.464 130.619 122.678C130.82 122.893 130.975 123.147 131.074 123.424C131.172 123.702 131.211 123.997 131.19 124.29C131.144 124.906 130.87 125.482 130.421 125.905C129.972 126.329 129.381 126.569 128.764 126.579H95.2295C94.9345 126.582 94.6419 126.525 94.3705 126.409C94.0991 126.293 93.8548 126.122 93.653 125.907C93.4513 125.692 93.2966 125.437 93.1988 125.159C93.101 124.88 93.0622 124.585 93.0849 124.29C93.1321 123.676 93.407 123.102 93.8557 122.68C94.3044 122.257 94.8946 122.018 95.5106 122.009Z" fill="#F5D8DA"/>
<path opacity="0.3" d="M85.6314 154.405H127.012C127.628 154.396 128.218 154.156 128.667 153.734C129.115 153.312 129.39 152.738 129.437 152.124C129.459 151.83 129.42 151.535 129.321 151.257C129.223 150.98 129.068 150.726 128.867 150.511C128.665 150.297 128.421 150.126 128.15 150.011C127.879 149.896 127.587 149.838 127.293 149.842H85.8929C85.277 149.851 84.6868 150.091 84.2381 150.513C83.7894 150.935 83.5145 151.509 83.4673 152.124C83.4453 152.419 83.4854 152.715 83.5848 152.994C83.6842 153.273 83.8408 153.528 84.0446 153.743C84.2483 153.958 84.4948 154.128 84.768 154.242C85.0413 154.356 85.3354 154.412 85.6314 154.405Z" fill="#F5D8DA"/>
<path opacity="0.3" d="M109.784 163.755H126.43C127.046 163.745 127.636 163.506 128.085 163.084C128.533 162.662 128.808 162.087 128.855 161.473C128.877 161.179 128.838 160.884 128.74 160.606C128.641 160.328 128.487 160.074 128.285 159.859C128.084 159.644 127.84 159.473 127.569 159.357C127.298 159.241 127.006 159.182 126.711 159.185H110.084C109.468 159.196 108.878 159.437 108.429 159.86C107.98 160.283 107.706 160.858 107.659 161.473C107.637 161.765 107.676 162.058 107.773 162.335C107.87 162.611 108.023 162.864 108.223 163.078C108.422 163.292 108.664 163.463 108.932 163.58C109.201 163.696 109.491 163.756 109.784 163.755Z" fill="#F5D8DA"/>
<path opacity="0.3" d="M92.9218 163.755H101.703C102.319 163.745 102.909 163.506 103.358 163.084C103.806 162.662 104.081 162.087 104.128 161.473C104.15 161.179 104.111 160.884 104.012 160.606C103.914 160.328 103.759 160.074 103.558 159.859C103.356 159.644 103.112 159.473 102.841 159.357C102.571 159.241 102.278 159.182 101.984 159.185H93.203C92.5864 159.196 91.9962 159.437 91.5476 159.86C91.099 160.283 90.8244 160.858 90.7773 161.473C90.7555 161.767 90.795 162.062 90.8933 162.339C90.9915 162.617 91.1464 162.871 91.348 163.085C91.5496 163.3 91.7936 163.47 92.0646 163.586C92.3355 163.701 92.6274 163.758 92.9218 163.755Z" fill="#F5D8DA"/>
<path opacity="0.3" d="M83.9314 182.239H125.312C125.928 182.229 126.518 181.99 126.967 181.567C127.415 181.145 127.69 180.571 127.737 179.957C127.759 179.663 127.72 179.368 127.621 179.09C127.523 178.812 127.368 178.557 127.167 178.342C126.965 178.127 126.721 177.956 126.451 177.84C126.18 177.724 125.888 177.666 125.593 177.668H84.1864C83.5694 177.678 82.9783 177.918 82.5295 178.342C82.0806 178.765 81.8064 179.341 81.7607 179.957C81.7387 180.253 81.7789 180.55 81.8787 180.829C81.9785 181.108 82.1358 181.364 82.3402 181.579C82.5447 181.794 82.7919 181.963 83.066 182.077C83.34 182.191 83.6348 182.246 83.9314 182.239Z" fill="#F5D8DA"/>
<path opacity="0.3" d="M91.1957 191.588H124.704C125.321 191.577 125.911 191.336 126.359 190.913C126.808 190.49 127.083 189.915 127.13 189.3C127.151 189.006 127.112 188.711 127.014 188.434C126.915 188.156 126.761 187.902 126.559 187.687C126.357 187.473 126.113 187.303 125.842 187.187C125.571 187.072 125.28 187.014 124.985 187.018H91.4769C90.8609 187.027 90.2707 187.267 89.822 187.689C89.3733 188.111 89.0984 188.685 89.0512 189.3C89.0295 189.594 89.069 189.889 89.1672 190.167C89.2653 190.445 89.4201 190.699 89.6216 190.914C89.8231 191.129 90.0671 191.3 90.338 191.416C90.609 191.532 90.901 191.591 91.1957 191.588Z" fill="#F5D8DA"/>
<path d="M154.616 106.618C154.345 106.62 154.08 106.537 153.858 106.382L146.816 101.577C146.547 101.364 146.369 101.058 146.317 100.719C146.266 100.38 146.344 100.034 146.538 99.7514C146.731 99.4685 147.025 99.2694 147.359 99.1944C147.693 99.1193 148.044 99.174 148.339 99.3472L154.354 103.46C156.551 100.812 162.815 93.6524 168.026 91.3052C168.188 91.2331 168.362 91.1935 168.539 91.1888C168.716 91.1841 168.893 91.2144 169.058 91.2778C169.224 91.3413 169.375 91.4367 169.503 91.5586C169.632 91.6805 169.735 91.8266 169.807 91.9884C169.88 92.1503 169.919 92.3247 169.924 92.5019C169.929 92.679 169.898 92.8553 169.835 93.0208C169.771 93.1862 169.676 93.3375 169.554 93.4661C169.432 93.5947 169.286 93.698 169.124 93.7701C163.436 96.3004 155.754 106.01 155.682 106.108C155.554 106.267 155.392 106.396 155.207 106.484C155.023 106.573 154.821 106.618 154.616 106.618Z" fill="#D75B61"/>
<path d="M151.34 133.908C150.99 133.909 150.653 133.776 150.399 133.535L144.273 127.651C144.012 127.402 143.862 127.06 143.854 126.7C143.846 126.341 143.981 125.992 144.23 125.732C144.479 125.472 144.821 125.321 145.181 125.313C145.541 125.305 145.889 125.441 146.149 125.69L151.38 130.718C153.962 128.41 161.187 122.264 166.653 120.773C166.825 120.726 167.004 120.714 167.18 120.736C167.357 120.759 167.527 120.816 167.682 120.904C167.836 120.992 167.972 121.11 168.081 121.251C168.19 121.392 168.27 121.552 168.317 121.724C168.364 121.896 168.376 122.075 168.354 122.252C168.331 122.428 168.274 122.599 168.186 122.753C168.097 122.908 167.979 123.043 167.839 123.152C167.698 123.261 167.537 123.341 167.365 123.388C161.403 125.016 152.373 133.477 152.282 133.562C152.155 133.679 152.007 133.769 151.846 133.829C151.684 133.888 151.512 133.915 151.34 133.908Z" fill="#D75B61"/>
<path opacity="0.4" d="M139.879 77.6076H141.84C142.366 77.6128 142.887 77.5144 143.375 77.3181C143.862 77.1218 144.306 76.8314 144.681 76.4634C145.056 76.0955 145.355 75.6573 145.561 75.1738C145.767 74.6903 145.876 74.1709 145.881 73.6455V69.9972C145.881 69.9442 145.87 69.8918 145.85 69.843C145.829 69.7942 145.799 69.7499 145.762 69.7128C145.724 69.6757 145.679 69.6464 145.63 69.6268C145.581 69.6071 145.528 69.5975 145.476 69.5983H139.931C139.812 69.6 139.698 69.6481 139.614 69.7323C139.53 69.8166 139.482 69.9303 139.48 70.0495L139.506 77.2088C139.506 77.3102 139.544 77.4079 139.614 77.4819C139.683 77.556 139.778 77.601 139.879 77.6076Z" fill="black"/>
<path d="M109.79 63.0013H143.174C143.651 62.9877 144.125 63.0801 144.562 63.2719C144.999 63.4637 145.388 63.7501 145.7 64.1103C146.013 64.4706 146.242 64.8959 146.371 65.3553C146.499 65.8148 146.524 66.2971 146.443 66.7673L145.443 74.2013C145.281 75.2288 144.764 76.1673 143.984 76.8549C143.203 77.5424 142.207 77.9359 141.167 77.9673H107.77C107.293 77.9809 106.819 77.8885 106.382 77.6967C105.945 77.5049 105.557 77.2185 105.244 76.8582C104.931 76.4979 104.702 76.0727 104.574 75.6132C104.445 75.1538 104.42 74.6715 104.501 74.2013L105.508 66.7673C105.67 65.7387 106.187 64.7994 106.97 64.1117C107.752 63.424 108.749 63.0312 109.79 63.0013Z" fill="#F5D8DA"/>
<path opacity="0.6" d="M109.79 63.0013H143.174C143.651 62.9877 144.125 63.0801 144.562 63.2719C144.999 63.4637 145.388 63.7501 145.7 64.1103C146.013 64.4706 146.242 64.8959 146.371 65.3553C146.499 65.8148 146.524 66.2971 146.443 66.7673L145.443 74.2013C145.281 75.2288 144.764 76.1673 143.984 76.8549C143.203 77.5424 142.207 77.9359 141.167 77.9673H107.77C107.293 77.9809 106.819 77.8885 106.382 77.6967C105.945 77.5049 105.557 77.2185 105.244 76.8582C104.931 76.4979 104.702 76.0727 104.574 75.6132C104.445 75.1538 104.42 74.6715 104.501 74.2013L105.508 66.7673C105.67 65.7387 106.187 64.7994 106.97 64.1117C107.752 63.424 108.749 63.0312 109.79 63.0013Z" fill="#4E4DA2"/>
<path opacity="0.5" d="M142.311 66.5973H127.273C127.134 66.6085 126.994 66.5908 126.861 66.5451C126.729 66.4994 126.608 66.4268 126.505 66.3319C126.402 66.237 126.32 66.1219 126.264 65.9937C126.208 65.8655 126.179 65.7271 126.179 65.5872C126.179 65.4472 126.208 65.3088 126.264 65.1806C126.32 65.0524 126.402 64.9372 126.505 64.8423C126.608 64.7475 126.729 64.6749 126.861 64.6292C126.994 64.5835 127.134 64.5658 127.273 64.577H142.311C142.565 64.5974 142.802 64.7127 142.975 64.8999C143.148 65.0871 143.243 65.3325 143.243 65.5872C143.243 65.8418 143.148 66.0872 142.975 66.2744C142.802 66.4616 142.565 66.5769 142.311 66.5973Z" fill="white"/>
<path opacity="0.5" d="M122.271 66.5973H120.689C120.55 66.6085 120.409 66.5908 120.277 66.5451C120.145 66.4994 120.023 66.4268 119.92 66.3319C119.818 66.237 119.735 66.1219 119.679 65.9937C119.623 65.8655 119.594 65.7271 119.594 65.5872C119.594 65.4472 119.623 65.3088 119.679 65.1806C119.735 65.0524 119.818 64.9372 119.92 64.8423C120.023 64.7475 120.145 64.6749 120.277 64.6292C120.409 64.5835 120.55 64.5658 120.689 64.577H122.271C122.411 64.5658 122.551 64.5835 122.683 64.6292C122.816 64.6749 122.937 64.7475 123.04 64.8423C123.143 64.9372 123.225 65.0524 123.281 65.1806C123.337 65.3088 123.366 65.4472 123.366 65.5872C123.366 65.7271 123.337 65.8655 123.281 65.9937C123.225 66.1219 123.143 66.237 123.04 66.3319C122.937 66.4268 122.816 66.4994 122.683 66.5451C122.551 66.5908 122.411 66.6085 122.271 66.5973Z" fill="white"/>
<path d="M58.4494 29.504L59.0734 26.144C60.5934 26.16 61.8174 26.12 62.7454 26.024C63.6894 25.912 64.4014 25.712 64.8814 25.424C65.3774 25.12 65.6974 24.696 65.8414 24.152C66.0014 23.592 66.0574 22.88 66.0094 22.016L65.4814 11.432H68.8414L69.3694 22.184C69.4174 23.144 69.5294 23.88 69.7054 24.392C69.8814 24.904 70.1454 25.264 70.4974 25.472C70.8494 25.664 71.3134 25.76 71.8894 25.76C72.4814 25.76 72.9054 25.92 73.1614 26.24C73.4334 26.544 73.5694 26.928 73.5694 27.392C73.5694 27.888 73.4014 28.304 73.0654 28.64C72.7294 28.96 72.2574 29.12 71.6494 29.12C70.9454 29.12 70.3134 29.032 69.7534 28.856C69.1934 28.68 68.7294 28.376 68.3614 27.944C67.9934 27.496 67.7454 26.896 67.6174 26.144H68.6974C68.3294 26.928 67.8254 27.552 67.1854 28.016C66.5614 28.48 65.8094 28.816 64.9294 29.024C64.0654 29.248 63.0894 29.384 62.0014 29.432C60.9134 29.496 59.7294 29.52 58.4494 29.504ZM57.2974 23.816L56.6734 21.44C57.2334 21.296 57.6894 21.168 58.0414 21.056C58.4094 20.944 58.6814 20.832 58.8574 20.72C59.0334 20.608 59.1214 20.496 59.1214 20.384C59.1214 20.24 59.0494 20.088 58.9054 19.928C58.7614 19.768 58.6014 19.584 58.4254 19.376C58.2494 19.168 58.0894 18.936 57.9454 18.68C57.8014 18.424 57.7294 18.128 57.7294 17.792C57.7294 17.392 57.8414 17.016 58.0654 16.664C58.2894 16.296 58.6494 15.944 59.1454 15.608C59.6574 15.256 60.3294 14.912 61.1614 14.576L62.1934 16.712C61.5214 16.984 61.0654 17.224 60.8254 17.432C60.6014 17.624 60.4894 17.808 60.4894 17.984C60.4894 18.128 60.5614 18.296 60.7054 18.488C60.8494 18.68 61.0094 18.896 61.1854 19.136C61.3774 19.36 61.5454 19.616 61.6894 19.904C61.8334 20.176 61.9054 20.472 61.9054 20.792C61.9054 21.048 61.8494 21.312 61.7374 21.584C61.6414 21.856 61.4334 22.12 61.1134 22.376C60.8094 22.632 60.3534 22.88 59.7454 23.12C59.1374 23.36 58.3214 23.592 57.2974 23.816ZM58.4494 29.504C56.7214 29.504 55.2574 29.368 54.0574 29.096C52.8734 28.84 51.9054 28.472 51.1534 27.992C50.4174 27.496 49.8814 26.92 49.5454 26.264C49.2094 25.608 49.0414 24.888 49.0414 24.104C49.0414 23.592 49.0814 23.08 49.1614 22.568C49.2574 22.04 49.3694 21.528 49.4974 21.032C49.6414 20.536 49.7694 20.088 49.8814 19.688L52.8814 20.384C52.8174 20.672 52.7454 20.984 52.6654 21.32C52.5854 21.656 52.5214 21.984 52.4734 22.304C52.4254 22.608 52.4014 22.888 52.4014 23.144C52.4014 23.736 52.6094 24.264 53.0254 24.728C53.4574 25.176 54.1614 25.528 55.1374 25.784C56.1134 26.024 57.4254 26.144 59.0734 26.144L59.5534 28.736L58.4494 29.504ZM71.6406 29.12L71.8806 25.784C73.2086 25.784 74.2726 25.776 75.0726 25.76C75.8886 25.744 76.5206 25.712 76.9686 25.664C77.4326 25.6 77.7766 25.528 78.0006 25.448C78.2246 25.352 78.4166 25.248 78.5766 25.136C78.7686 24.992 78.9286 24.8 79.0566 24.56C79.2006 24.304 79.3126 23.968 79.3926 23.552C79.4726 23.136 79.5126 22.616 79.5126 21.992C79.5126 21.208 79.4406 20.552 79.2966 20.024C79.1686 19.48 78.9766 19.072 78.7206 18.8C78.4806 18.528 78.1846 18.392 77.8326 18.392C77.5766 18.392 77.3366 18.48 77.1126 18.656C76.8886 18.816 76.7046 19.04 76.5606 19.328C76.4166 19.616 76.3446 19.944 76.3446 20.312C76.3446 20.52 76.4006 20.704 76.5126 20.864C76.6246 21.024 76.8006 21.144 77.0406 21.224C77.2806 21.304 77.5846 21.344 77.9526 21.344C78.3046 21.344 78.6726 21.304 79.0566 21.224C79.4566 21.128 79.8246 21 80.1606 20.84L80.2566 23.696C80.0006 23.872 79.7046 24.032 79.3686 24.176C79.0326 24.32 78.6726 24.432 78.2886 24.512C77.9206 24.576 77.5446 24.608 77.1606 24.608C76.3126 24.608 75.5766 24.496 74.9526 24.272C74.3446 24.032 73.8726 23.648 73.5366 23.12C73.2006 22.592 73.0326 21.872 73.0326 20.96C73.0326 20.256 73.1526 19.56 73.3926 18.872C73.6326 18.168 73.9766 17.536 74.4246 16.976C74.8726 16.4 75.4006 15.944 76.0086 15.608C76.6166 15.256 77.2886 15.08 78.0246 15.08C79.1126 15.08 80.0086 15.4 80.7126 16.04C81.4326 16.664 81.9606 17.512 82.2966 18.584C82.6486 19.64 82.8246 20.816 82.8246 22.112C82.8246 23.248 82.6566 24.24 82.3206 25.088C81.9846 25.92 81.5846 26.576 81.1206 27.056C80.7366 27.456 80.2966 27.792 79.8006 28.064C79.3046 28.336 78.6966 28.552 77.9766 28.712C77.2726 28.856 76.4006 28.96 75.3606 29.024C74.3366 29.088 73.0966 29.12 71.6406 29.12ZM77.9766 12.848C77.4806 12.848 77.0566 12.68 76.7046 12.344C76.3686 12.008 76.2006 11.592 76.2006 11.096C76.2006 10.6 76.3686 10.176 76.7046 9.824C77.0566 9.472 77.4806 9.296 77.9766 9.296C78.4566 9.296 78.8646 9.472 79.2006 9.824C79.5526 10.176 79.7286 10.6 79.7286 11.096C79.7286 11.592 79.5526 12.008 79.2006 12.344C78.8646 12.68 78.4566 12.848 77.9766 12.848ZM85.6778 29L85.1738 11.432H88.5338L89.0378 29H85.6778ZM95.5523 25.76C96.2723 25.76 96.8243 25.696 97.2083 25.568C97.5923 25.44 97.8563 25.272 98.0003 25.064C98.1443 24.856 98.2163 24.632 98.2163 24.392C98.2163 24.008 98.1043 23.56 97.8803 23.048C97.6723 22.536 97.4083 22 97.0883 21.44C96.7683 20.88 96.4323 20.344 96.0803 19.832C95.7443 19.32 95.4403 18.872 95.1683 18.488L98.0243 16.592C98.7123 17.52 99.3043 18.44 99.8003 19.352C100.296 20.248 100.696 21.08 101 21.848C101.32 22.616 101.544 23.272 101.672 23.816C101.8 24.328 101.992 24.728 102.248 25.016C102.52 25.288 102.832 25.48 103.184 25.592C103.536 25.704 103.888 25.76 104.24 25.76C104.848 25.76 105.28 25.92 105.536 26.24C105.808 26.544 105.944 26.928 105.944 27.392C105.944 27.888 105.776 28.304 105.44 28.64C105.12 28.96 104.64 29.12 104 29.12C103.296 29.12 102.68 29.024 102.152 28.832C101.624 28.64 101.176 28.336 100.808 27.92C100.44 27.504 100.128 26.976 99.8723 26.336L101.336 26.648C101.208 27.096 100.912 27.512 100.448 27.896C100 28.264 99.4003 28.568 98.6483 28.808C97.9123 29.032 97.0403 29.144 96.0323 29.144C95.5523 29.144 95.0163 29.104 94.4243 29.024C93.8483 28.944 93.2723 28.824 92.6963 28.664C92.1363 28.504 91.6243 28.296 91.1603 28.04L92.3363 24.992C92.9283 25.248 93.4963 25.44 94.0403 25.568C94.6003 25.696 95.1043 25.76 95.5523 25.76ZM113.799 29.192C113.079 29.192 112.335 29.104 111.567 28.928C110.815 28.752 110.087 28.488 109.383 28.136C108.679 27.784 108.047 27.344 107.487 26.816C106.927 26.288 106.479 25.68 106.143 24.992C105.823 24.288 105.663 23.496 105.663 22.616C105.663 21.896 105.815 21.232 106.119 20.624C106.423 20.016 106.871 19.528 107.463 19.16C108.071 18.776 108.807 18.584 109.671 18.584C110.487 18.584 111.191 18.784 111.783 19.184C112.391 19.568 112.863 20.072 113.199 20.696C113.535 21.304 113.703 21.944 113.703 22.616C113.703 23.688 113.439 24.632 112.911 25.448C112.383 26.248 111.655 26.92 110.727 27.464C109.815 28.008 108.783 28.424 107.631 28.712C106.479 28.984 105.279 29.12 104.031 29.12L104.271 25.76C105.183 25.76 105.975 25.736 106.647 25.688C107.335 25.64 107.927 25.536 108.423 25.376C108.919 25.216 109.351 24.976 109.719 24.656C110.087 24.336 110.367 23.984 110.559 23.6C110.767 23.2 110.871 22.808 110.871 22.424C110.871 22.168 110.831 21.928 110.751 21.704C110.687 21.48 110.575 21.296 110.415 21.152C110.271 20.992 110.079 20.912 109.839 20.912C109.583 20.912 109.367 20.992 109.191 21.152C109.031 21.296 108.903 21.488 108.807 21.728C108.727 21.968 108.687 22.224 108.687 22.496C108.687 23.056 108.831 23.56 109.119 24.008C109.423 24.456 109.823 24.832 110.319 25.136C110.815 25.44 111.359 25.672 111.951 25.832C112.559 25.992 113.175 26.072 113.799 26.072C114.295 26.072 114.647 25.992 114.855 25.832C115.063 25.672 115.167 25.456 115.167 25.184C115.167 24.992 115.119 24.792 115.023 24.584C114.943 24.36 114.759 24.088 114.471 23.768C114.183 23.448 113.743 23.056 113.151 22.592C112.559 22.112 111.767 21.52 110.775 20.816C109.783 20.112 108.535 19.256 107.031 18.248L108.879 15.632C110.575 16.832 111.991 17.88 113.127 18.776C114.279 19.672 115.207 20.456 115.911 21.128C116.615 21.8 117.151 22.392 117.519 22.904C117.903 23.4 118.159 23.856 118.287 24.272C118.415 24.688 118.479 25.104 118.479 25.52C118.479 26.288 118.295 26.944 117.927 27.488C117.559 28.032 117.023 28.456 116.319 28.76C115.631 29.048 114.791 29.192 113.799 29.192ZM121.326 29L120.822 11.432H124.182L124.686 29H121.326ZM132.363 28.04L133.539 24.992C134.131 25.248 134.699 25.44 135.243 25.568C135.787 25.696 136.331 25.76 136.875 25.76C137.435 25.76 137.899 25.712 138.267 25.616C138.651 25.504 138.939 25.344 139.131 25.136C139.323 24.928 139.419 24.68 139.419 24.392C139.419 24.12 139.331 23.744 139.155 23.264C138.995 22.784 138.699 22.16 138.267 21.392C137.835 20.608 137.203 19.64 136.371 18.488L139.227 16.592C139.995 17.68 140.659 18.744 141.219 19.784C141.779 20.808 142.211 21.768 142.515 22.664C142.835 23.544 142.995 24.32 142.995 24.992C142.995 25.824 142.771 26.552 142.323 27.176C141.891 27.784 141.243 28.264 140.379 28.616C139.531 28.968 138.483 29.144 137.235 29.144C136.771 29.144 136.251 29.104 135.675 29.024C135.099 28.944 134.515 28.824 133.923 28.664C133.347 28.504 132.827 28.296 132.363 28.04ZM149.154 25.76C149.874 25.76 150.426 25.696 150.81 25.568C151.194 25.44 151.458 25.272 151.602 25.064C151.746 24.856 151.818 24.632 151.818 24.392C151.818 24.008 151.706 23.56 151.482 23.048C151.274 22.536 151.01 22 150.69 21.44C150.37 20.88 150.034 20.344 149.682 19.832C149.346 19.32 149.042 18.872 148.77 18.488L151.626 16.592C152.314 17.52 152.906 18.44 153.402 19.352C153.898 20.248 154.298 21.08 154.602 21.848C154.922 22.616 155.146 23.272 155.274 23.816C155.402 24.328 155.594 24.728 155.85 25.016C156.122 25.288 156.434 25.48 156.786 25.592C157.138 25.704 157.49 25.76 157.842 25.76C158.45 25.76 158.882 25.92 159.138 26.24C159.41 26.544 159.546 26.928 159.546 27.392C159.546 27.888 159.378 28.304 159.042 28.64C158.722 28.96 158.242 29.12 157.602 29.12C156.898 29.12 156.282 29.024 155.754 28.832C155.226 28.64 154.778 28.336 154.41 27.92C154.042 27.504 153.73 26.976 153.474 26.336L154.938 26.648C154.81 27.096 154.514 27.512 154.05 27.896C153.602 28.264 153.002 28.568 152.25 28.808C151.514 29.032 150.642 29.144 149.634 29.144C149.154 29.144 148.618 29.104 148.026 29.024C147.45 28.944 146.874 28.824 146.298 28.664C145.738 28.504 145.226 28.296 144.762 28.04L145.938 24.992C146.53 25.248 147.098 25.44 147.642 25.568C148.202 25.696 148.706 25.76 149.154 25.76ZM157.633 29.12L157.873 25.76C158.737 25.76 159.593 25.712 160.441 25.616C161.289 25.52 162.113 25.376 162.913 25.184C163.713 24.992 164.473 24.744 165.193 24.44C165.929 24.136 166.617 23.768 167.257 23.336C166.777 23.048 166.257 22.8 165.697 22.592C165.137 22.384 164.537 22.232 163.897 22.136C163.273 22.024 162.609 21.968 161.905 21.968C161.649 21.968 161.377 21.976 161.089 21.992C160.817 22.008 160.537 22.04 160.249 22.088C159.961 22.12 159.673 22.168 159.385 22.232L158.905 18.944C159.369 18.816 159.857 18.728 160.369 18.68C160.897 18.616 161.361 18.584 161.761 18.584C162.625 18.584 163.417 18.68 164.137 18.872C164.873 19.064 165.545 19.304 166.153 19.592C166.777 19.88 167.353 20.168 167.881 20.456C168.425 20.744 168.937 20.984 169.417 21.176C169.913 21.368 170.393 21.464 170.857 21.464H171.745L172.129 24.656C171.441 24.688 170.793 24.824 170.185 25.064C169.593 25.288 169.001 25.576 168.409 25.928C167.833 26.264 167.209 26.616 166.537 26.984C165.881 27.352 165.137 27.696 164.305 28.016C163.473 28.336 162.513 28.6 161.425 28.808C160.337 29.016 159.073 29.12 157.633 29.12Z" fill="#4E4DA2"/>
</svg>
