<svg width="95" height="58" viewBox="0 0 95 58" fill="none" xmlns="http://www.w3.org/2000/svg">
<path d="M14.9149 40.2397V43.8968H18.9017V45.074H14.9149V48.8411H19.3726V50.0183H13.4865V39.0624H19.3726V40.2397H14.9149ZM25.0027 50.1282C24.2807 50.1282 23.6319 50.0026 23.0564 49.7515C22.4913 49.4899 22.0466 49.1341 21.7222 48.6841C21.3978 48.2237 21.2304 47.6953 21.2199 47.0988H22.7425C22.7948 47.6116 23.0041 48.0458 23.3703 48.4016C23.747 48.7469 24.2911 48.9196 25.0027 48.9196C25.6829 48.9196 26.2165 48.7522 26.6037 48.4173C27.0013 48.072 27.2001 47.6325 27.2001 47.0988C27.2001 46.6803 27.085 46.3402 26.8548 46.0786C26.6246 45.817 26.3369 45.6182 25.9915 45.4821C25.6462 45.3461 25.1806 45.1996 24.5946 45.0427C23.8726 44.8543 23.2918 44.6659 22.8523 44.4776C22.4233 44.2892 22.0518 43.9962 21.7379 43.5986C21.4344 43.1905 21.2827 42.6464 21.2827 41.9662C21.2827 41.3698 21.4344 40.8413 21.7379 40.3809C22.0414 39.9205 22.4652 39.5647 23.0093 39.3136C23.5639 39.0624 24.197 38.9369 24.9085 38.9369C25.934 38.9369 26.7711 39.1932 27.4199 39.706C28.0791 40.2187 28.4506 40.8989 28.5343 41.7465H26.9647C26.9124 41.3279 26.6926 40.9617 26.3055 40.6478C25.9183 40.3234 25.4056 40.1612 24.7672 40.1612C24.1708 40.1612 23.6842 40.3181 23.3075 40.6321C22.9308 40.9355 22.7425 41.3645 22.7425 41.9191C22.7425 42.3168 22.8523 42.6412 23.0721 42.8923C23.3023 43.1434 23.5796 43.337 23.904 43.473C24.2388 43.5986 24.7045 43.7451 25.3009 43.9125C26.0229 44.1114 26.6037 44.3102 27.0432 44.509C27.4827 44.6973 27.8594 44.9956 28.1733 45.4037C28.4872 45.8013 28.6442 46.3454 28.6442 47.0361C28.6442 47.5697 28.5029 48.072 28.2204 48.5429C27.9379 49.0138 27.5193 49.3957 26.9647 49.6887C26.4101 49.9817 25.7561 50.1282 25.0027 50.1282ZM37.4797 39.0781V40.2397H34.4975V50.0183H33.0691V40.2397H30.0712V39.0781H37.4797ZM45.7047 47.5854H40.9331L40.0541 50.0183H38.5473L42.5027 39.1409H44.1508L48.0905 50.0183H46.5837L45.7047 47.5854ZM45.2966 46.4239L43.3189 40.8989L41.3412 46.4239H45.2966ZM60.9115 39.1566V50.0183H59.4832V41.9191L55.8731 50.0183H54.8685L51.2427 41.9034V50.0183H49.8144V39.1566H51.3526L55.3708 48.1348L59.389 39.1566H60.9115ZM64.7622 40.2397V43.8968H68.749V45.074H64.7622V48.8411H69.2199V50.0183H63.3339V39.0624H69.2199V40.2397H64.7622ZM77.1416 50.0183L74.5361 45.5449H72.8095V50.0183H71.3812V39.0781H74.9128C75.7395 39.0781 76.4353 39.2194 77.0004 39.5019C77.5759 39.7845 78.0049 40.1664 78.2875 40.6478C78.57 41.1291 78.7112 41.6785 78.7112 42.2958C78.7112 43.0493 78.4915 43.7137 78.052 44.2892C77.623 44.8648 76.9742 45.2467 76.1057 45.4351L78.8525 50.0183H77.1416ZM72.8095 44.3991H74.9128C75.6871 44.3991 76.2679 44.2108 76.6551 43.8341C77.0422 43.4469 77.2358 42.9341 77.2358 42.2958C77.2358 41.6471 77.0422 41.1448 76.6551 40.789C76.2784 40.4332 75.6976 40.2553 74.9128 40.2553H72.8095V44.3991Z" fill="#FD1E39"/>
<path d="M57.0498 17.064C57.01 19.2061 54.968 20.9052 52.4889 20.8592C50.0098 20.8131 48.0324 19.0392 48.0722 16.8971C48.112 14.7551 50.154 13.0559 52.6331 13.102C55.1122 13.1481 57.0896 14.9219 57.0498 17.064ZM48.5985 16.9069C48.5634 18.7978 50.3089 20.3637 52.4974 20.4044C54.6858 20.4451 56.4883 18.9452 56.5235 17.0542C56.5587 15.1633 54.8131 13.5975 52.6247 13.5568C50.4362 13.5161 48.6337 15.016 48.5985 16.9069Z" fill="#FD1E39"/>
<path d="M56.8049 17.0595C56.9402 17.062 57.0487 17.1739 57.0363 17.3086C56.9661 18.0726 56.6351 18.8023 56.082 19.4039C55.4701 20.0695 54.6206 20.5412 53.6646 20.7462C52.7086 20.9511 51.6994 20.878 50.7928 20.5381C49.8863 20.1982 49.1329 19.6103 48.649 18.8654C48.1652 18.1205 47.9778 17.26 48.1158 16.4168C48.2538 15.5736 48.7095 14.7946 49.4126 14.2002C50.1157 13.6059 51.0269 13.2292 52.0056 13.1283C52.8999 13.0362 53.8049 13.1791 54.6039 13.5357C54.7239 13.5893 54.762 13.7385 54.6882 13.8472V13.8472C54.6263 13.9384 54.5066 13.9686 54.4063 13.9231C53.6883 13.5971 52.8723 13.4657 52.0662 13.5488C51.1944 13.6386 50.3825 13.9742 49.7562 14.5037C49.1299 15.0332 48.7239 15.7271 48.6009 16.4783C48.478 17.2295 48.6449 17.9961 49.076 18.6597C49.507 19.3233 50.1782 19.847 50.9858 20.1498C51.7934 20.4527 52.6925 20.5178 53.5441 20.3352C54.3958 20.1526 55.1526 19.7323 55.6977 19.1394C56.184 18.6105 56.4776 17.9704 56.5453 17.2994C56.5589 17.1648 56.6696 17.057 56.8049 17.0595V17.0595Z" fill="url(#paint0_linear_129_569)"/>
<path d="M47.0935 16.7248C47.0935 18.7819 45.1635 20.4495 42.7827 20.4495C40.4019 20.4495 38.4719 18.7819 38.4719 16.7248C38.4719 14.6676 40.4019 13 42.7827 13C45.1635 13 47.0935 14.6676 47.0935 16.7248ZM38.9774 16.7248C38.9774 18.5407 40.6811 20.0128 42.7827 20.0128C44.8844 20.0128 46.5881 18.5407 46.5881 16.7248C46.5881 14.9088 44.8844 13.4367 42.7827 13.4367C40.6811 13.4367 38.9774 14.9088 38.9774 16.7248Z" fill="#FD1E39"/>
<path d="M46.8583 16.7248C46.9882 16.7248 47.0944 16.8302 47.0849 16.9598C47.0312 17.6945 46.7264 18.4009 46.2061 18.9884C45.6306 19.6382 44.8235 20.1062 43.9094 20.32C42.9953 20.5339 42.0251 20.4817 41.1488 20.1716C40.2724 19.8614 39.5386 19.3105 39.0608 18.604C38.583 17.8976 38.3878 17.0748 38.5052 16.2628C38.6226 15.4509 39.0463 14.6949 39.7106 14.1118C40.3749 13.5286 41.243 13.1508 42.1808 13.0365C43.0376 12.9321 43.909 13.0531 44.6824 13.3812C44.7986 13.4305 44.8379 13.573 44.7689 13.6788V13.6788C44.7112 13.7673 44.5967 13.7985 44.4996 13.7566C43.8046 13.4564 43.0189 13.3449 42.2465 13.439C41.4111 13.5408 40.6377 13.8775 40.0459 14.397C39.4541 14.9165 39.0767 15.5899 38.972 16.3132C38.8674 17.0366 39.0414 17.7696 39.467 18.3989C39.8927 19.0283 40.5464 19.5191 41.3271 19.7954C42.1078 20.0717 42.9721 20.1182 43.7864 19.9276C44.6007 19.7371 45.3198 19.3202 45.8325 18.7413C46.2899 18.2248 46.5604 17.6051 46.6134 16.9597C46.624 16.8303 46.7284 16.7248 46.8583 16.7248V16.7248Z" fill="url(#paint1_linear_129_569)"/>
<path d="M1.16 44.28L-1.49012e-08 41.24C1.94667 40.6 3.56 39.8667 4.84 39.04C6.14667 38.2133 7.17333 37.3333 7.92 36.4C8.69333 35.4667 9.24 34.52 9.56 33.56C9.88 32.5733 10.04 31.6267 10.04 30.72C10.04 29.4133 9.74667 28.0933 9.16 26.76C8.6 25.4 7.97333 24.12 7.28 22.92L10.2 21.44C10.7067 22.3733 11.1467 23.2933 11.52 24.2C11.92 25.1067 12.2667 25.96 12.56 26.76C12.88 27.56 13.1333 28.2933 13.32 28.96C13.6933 30.1067 14.1733 30.8933 14.76 31.32C15.3733 31.72 16.2 31.92 17.24 31.92C17.8 31.92 18.2 32.08 18.44 32.4C18.7067 32.6933 18.84 33.0533 18.84 33.48C18.84 33.9067 18.6533 34.3067 18.28 34.68C17.9067 35.0267 17.4267 35.2 16.84 35.2C15.6667 35.2 14.7067 35 13.96 34.6C13.24 34.1733 12.6933 33.6267 12.32 32.96C11.9467 32.2667 11.6933 31.5467 11.56 30.8L12.84 31.52C12.84 33.28 12.44 34.88 11.64 36.32C10.8667 37.7867 9.86667 39.0533 8.64 40.12C7.41333 41.2133 6.13333 42.1067 4.8 42.8C3.46667 43.4933 2.25333 43.9867 1.16 44.28ZM16.8594 35.2L17.2594 31.92C18.006 31.92 18.5927 31.76 19.0194 31.44C19.4727 31.12 19.8994 30.5867 20.2994 29.84C20.726 29.0933 21.2594 28.0933 21.8994 26.84C22.5394 25.56 23.1794 24.52 23.8194 23.72C24.486 22.8933 25.126 22.2533 25.7394 21.8C26.3794 21.32 26.9794 20.9867 27.5394 20.8C28.0994 20.6133 28.6194 20.52 29.0994 20.52C29.9794 20.52 30.766 20.72 31.4594 21.12C32.1527 21.4933 32.806 22.1467 33.4194 23.08C34.0327 23.9867 34.6594 25.24 35.2994 26.84C35.9127 28.3067 36.4594 29.4133 36.9394 30.16C37.446 30.88 37.966 31.36 38.4994 31.6C39.0594 31.8133 39.686 31.92 40.3794 31.92C40.9394 31.92 41.3394 32.08 41.5794 32.4C41.846 32.6933 41.9794 33.0533 41.9794 33.48C41.9794 33.9067 41.7927 34.3067 41.4194 34.68C41.046 35.0267 40.566 35.2 39.9794 35.2C38.9394 35.2 37.9794 35.0267 37.0994 34.68C36.246 34.3333 35.526 33.7867 34.9394 33.04L35.4994 32.2C35.206 33.0267 34.806 33.7067 34.2994 34.24C33.8194 34.7467 33.2727 35.12 32.6594 35.36C32.046 35.6267 31.3927 35.76 30.6994 35.76C29.8194 35.76 28.9127 35.5733 27.9794 35.2C27.0727 34.8267 26.1927 34.2933 25.3394 33.6C24.486 32.9067 23.7394 32.0933 23.0994 31.16C22.406 32.3867 21.7394 33.2933 21.0994 33.88C20.486 34.44 19.846 34.8 19.1794 34.96C18.5127 35.12 17.7394 35.2 16.8594 35.2ZM24.6194 28.12C25.0727 28.8667 25.5527 29.52 26.0594 30.08C26.5927 30.64 27.126 31.1067 27.6594 31.48C28.1927 31.8267 28.7127 32.0933 29.2194 32.28C29.7527 32.44 30.2327 32.52 30.6594 32.52C31.5927 32.52 32.2727 32.1867 32.6994 31.52C33.1527 30.8533 33.1394 29.92 32.6594 28.72C32.4194 28.1067 32.166 27.5067 31.8994 26.92C31.6594 26.3333 31.3927 25.8 31.0994 25.32C30.806 24.8133 30.4727 24.4267 30.0994 24.16C29.726 23.8667 29.3127 23.72 28.8594 23.72C28.4594 23.72 28.0327 23.8533 27.5794 24.12C27.1527 24.3867 26.686 24.84 26.1794 25.48C25.6994 26.12 25.1794 27 24.6194 28.12ZM39.9844 35.2L40.3844 31.92C41.5044 31.92 42.3844 31.8267 43.0244 31.64C43.6644 31.4267 44.1444 31.04 44.4644 30.48C44.811 29.8933 45.1044 29.0533 45.3444 27.96C45.5844 26.8667 45.8777 25.44 46.2244 23.68L49.3444 24.28C49.2377 24.76 49.1177 25.2933 48.9844 25.88C48.851 26.4667 48.731 27.0533 48.6244 27.64C48.5444 28.2 48.5044 28.6933 48.5044 29.12C48.5044 29.6533 48.6244 30.1333 48.8644 30.56C49.1044 30.9867 49.6244 31.32 50.4244 31.56C51.2244 31.8 52.451 31.92 54.1044 31.92C54.6644 31.92 55.0644 32.08 55.3044 32.4C55.571 32.6933 55.7044 33.0533 55.7044 33.48C55.7044 33.9067 55.5177 34.3067 55.1444 34.68C54.771 35.0267 54.291 35.2 53.7044 35.2C51.971 35.2 50.611 35.0533 49.6244 34.76C48.6377 34.44 47.9177 33.9733 47.4644 33.36C47.011 32.72 46.7044 31.9467 46.5444 31.04L47.7444 31.12C47.3177 31.9733 46.851 32.6667 46.3444 33.2C45.8644 33.7333 45.331 34.1467 44.7444 34.44C44.1577 34.7333 43.4777 34.9333 42.7044 35.04C41.931 35.1467 41.0244 35.2 39.9844 35.2ZM53.6953 35.2L54.0953 31.92C54.9486 31.92 55.642 31.8667 56.1753 31.76C56.7086 31.6267 57.1486 31.32 57.4953 30.84C57.8686 30.3333 58.2153 29.5467 58.5353 28.48C58.8553 27.4133 59.2286 25.92 59.6553 24L62.6553 24.84C62.5486 25.2933 62.4286 25.8133 62.2953 26.4C62.162 26.96 62.042 27.5467 61.9353 28.16C61.8286 28.7467 61.7753 29.2933 61.7753 29.8C61.7753 30.4667 62.0286 30.9867 62.5353 31.36C63.042 31.7333 63.962 31.92 65.2953 31.92C66.0953 31.92 66.7486 31.8533 67.2553 31.72C67.762 31.5867 68.1753 31.2667 68.4953 30.76C68.842 30.2533 69.1486 29.44 69.4153 28.32C69.682 27.2 69.962 25.6667 70.2553 23.72L73.2953 24.28C73.2153 24.76 73.122 25.3467 73.0153 26.04C72.9086 26.7333 72.802 27.4267 72.6953 28.12C72.6153 28.7867 72.5753 29.3467 72.5753 29.8C72.5753 30.1733 72.6553 30.5333 72.8153 30.88C73.002 31.2 73.3486 31.4533 73.8553 31.64C74.3886 31.8267 75.1753 31.92 76.2153 31.92C76.9886 31.92 77.6553 31.8267 78.2153 31.64C78.802 31.4533 79.242 31.1067 79.5353 30.6C79.8553 30.0933 80.0153 29.3867 80.0153 28.48C80.0153 27.4667 79.7753 26.2 79.2953 24.68C78.842 23.1333 78.322 21.6 77.7353 20.08L80.9753 18.88C81.322 19.7333 81.642 20.7067 81.9353 21.8C82.2553 22.8933 82.522 23.9733 82.7353 25.04C82.9486 26.1067 83.0553 27.04 83.0553 27.84C83.0553 29.0667 82.8953 30.1467 82.5753 31.08C82.2553 32.0133 81.802 32.7867 81.2153 33.4C80.6286 33.9867 79.9086 34.44 79.0553 34.76C78.202 35.0533 77.242 35.2 76.1753 35.2C74.922 35.2 73.8953 35.0533 73.0953 34.76C72.2953 34.4667 71.682 34.0267 71.2553 33.44C70.8286 32.8267 70.5486 32.0533 70.4153 31.12H71.7753C71.2686 32.2667 70.7353 33.1333 70.1753 33.72C69.6153 34.3067 68.922 34.7067 68.0953 34.92C67.2686 35.1067 66.1753 35.2 64.8153 35.2C64.1486 35.2 63.4286 35.0933 62.6553 34.88C61.9086 34.6667 61.2553 34.2533 60.6953 33.64C60.1353 33 59.802 32.0533 59.6953 30.8L60.8953 30.56C60.442 31.92 59.882 32.9333 59.2153 33.6C58.5753 34.24 57.802 34.6667 56.8953 34.88C55.9886 35.0933 54.922 35.2 53.6953 35.2ZM88.7425 35L87.9425 6.44H91.1825L91.9825 35H88.7425Z" fill="#4E4DA2"/>
<defs>
<linearGradient id="paint0_linear_129_569" x1="54.3104" y1="19.4962" x2="49.7265" y2="17.002" gradientUnits="userSpaceOnUse">
<stop stop-color="#CDCCEB" stop-opacity="0"/>
<stop offset="1" stop-color="#F5D6D7"/>
</linearGradient>
<linearGradient id="paint1_linear_129_569" x1="44.507" y1="19.1086" x2="40.0619" y2="16.7959" gradientUnits="userSpaceOnUse">
<stop stop-color="#CDCCEB" stop-opacity="0"/>
<stop offset="1" stop-color="#F5D6D7"/>
</linearGradient>
</defs>
</svg>
